SplineFontDB: 3.2
FontName: MononokiFork-Italic
FullName: Mononoki Fork Italic
FamilyName: MononokiFork
Weight: Regular
Copyright: Modifications:\nCopyright (c) 2020-2021, Marvin Dostal\n\nOriginal author:\nCopyright (c) 2013-2017, Matthias Tellen matthias.tellen@googlemail.com\n\nLicensed under SIL OPEN FONT LICENSE Version 1.1 - 26 February 2007
Version: 2.0
ItalicAngle: -9
UnderlinePosition: 0
UnderlineWidth: 0
Ascent: 819
Descent: 205
InvalidEm: 1
UFOAscent: 750
UFODescent: -250
LayerCount: 2
Layer: 0 0 "Back" 1
Layer: 1 0 "Fore" 0
FSType: 0
OS2Version: 3
OS2_WeightWidthSlopeOnly: 0
OS2_UseTypoMetrics: 0
CreationTime: 1593379981
ModificationTime: 1613687534
PfmFamily: 17
TTFWeight: 400
TTFWidth: 5
LineGap: 0
VLineGap: 0
OS2TypoAscent: 0
OS2TypoAOffset: 1
OS2TypoDescent: 0
OS2TypoDOffset: 1
OS2TypoLinegap: 0
OS2WinAscent: 900
OS2WinAOffset: 0
OS2WinDescent: 250
OS2WinDOffset: 0
HheadAscent: 0
HheadAOffset: 1
HheadDescent: 0
HheadDOffset: 1
OS2CapHeight: 700
OS2XHeight: 500
OS2Vendor: 'PfEd'
Lookup: 260 0 0 "'mark' Mark Positioning lookup 0" { "'mark' Mark Positioning lookup 0-2"  } ['mark' ('DFLT' <'dflt' > 'cyrl' <'dflt' > 'grek' <'dflt' > 'latn' <'dflt' > 'mong' <'dflt' > ) ]
MarkAttachClasses: 1
DEI: 91125
LangName: 1033
Encoding: UnicodeBmp
Compacted: 1
UnicodeInterp: none
NameList: Adobe Glyph List
DisplaySize: -48
AntiAlias: 1
FitToEm: 0
WinInfo: 26 13 9
BeginPrivate: 3
BlueValues 31 [-15 0 500 516 700 716 750 766]
StemSnapH 4 [78]
StemSnapV 4 [85]
EndPrivate
Grid
-650 272 m 25
 1300 272 l 1049
-651 349 m 1
 1300 349 l 1049
EndSplineSet
AnchorClass2: "mark-topright" "'mark' Mark Positioning lookup 0-2" "mark-top" "'mark' Mark Positioning lookup 0-2" "mark-bottom" "'mark' Mark Positioning lookup 0-2" "mark-ogonek" "'mark' Mark Positioning lookup 0-2" "mark-centerright" "'mark' Mark Positioning lookup 0-2" "bottomright"""  "topright"""  "center"""  "topleft"""  "bottom"""  "top"""  "ogonek""" 
BeginChars: 65593 966

StartChar: A
Encoding: 65 65 0
GlifName: A_
Width: 575
VWidth: 0
Flags: HMW
AnchorPoint: "mark-top" 360 700 basechar 0
AnchorPoint: "mark-bottom" 248 0 basechar 0
AnchorPoint: "mark-ogonek" 487 0 basechar 0
LayerCount: 2
Fore
SplineSet
469 621 m 258
 523 28 l 258
 525 11 514 0 497 0 c 258
 461 0 l 258
 446 0 438 7 437 22 c 258
 419 220 l 257
 147 220 l 257
 66 22 l 258
 60 7 49 0 34 0 c 258
 -1 0 l 258
 -19 0 -25 11 -18 28 c 258
 224 621 l 258
 248 679 296 710 355 710 c 259
 414 710 464 679 469 621 c 258
306 607 m 257
 178 296 l 257
 412 296 l 257
 384 607 l 258
 382 625 366 634 349 634 c 259
 332 634 312 625 306 607 c 257
EndSplineSet
PickledDataWithLists: "(dp0
Vcom.schriftgestaltung.Glyphs.lastChange\\u000d
p1
V2016-06-09 18:44:34 +0000\\u000d
p2
s."
EndChar

StartChar: A.hex
Encoding: 65537 -1 1
GlifName: A_.hex
Width: 575
VWidth: 0
Flags: HMW
LayerCount: 2
Fore
SplineSet
114 875 m 258
 114 829 l 258
 114 812 105 804 89 804 c 258
 54 804 l 258
 37 804 29 813 29 829 c 258
 29 875 l 258
 29 891 38 900 54 900 c 258
 89 900 l 258
 105 900 114 891 114 875 c 258
402 875 m 258
 402 829 l 258
 402 812 393 804 377 804 c 258
 342 804 l 258
 325 804 317 813 317 829 c 258
 317 875 l 258
 317 891 326 900 342 900 c 258
 377 900 l 258
 393 900 402 891 402 875 c 258
EndSplineSet
Refer: 0 65 N 1 0 0 1 0 0 2
PickledDataWithLists: "(dp0
Vcom.schriftgestaltung.Glyphs.lastChange\\u000d
p1
V2016-06-09 18:35:33 +0000\\u000d
p2
s."
EndChar

StartChar: AE
Encoding: 198 198 2
GlifName: A_E_
Width: 575
VWidth: 0
Flags: HMW
LayerCount: 2
Fore
SplineSet
346 77 m 257
 466 77 l 258
 483 77 489 68 487 52 c 258
 482 25 l 258
 480 9 470 0 453 0 c 258
 273 0 l 258
 257 0 250 9 252 25 c 258
 275 170 l 257
 126 170 l 257
 66 22 l 257
 61 7 49 0 34 0 c 258
 -1 0 l 258
 -19 0 -25 11 -18 28 c 258
 224 621 l 258
 248 679 294 700 359 700 c 258
 553 700 l 258
 569 700 577 692 574 675 c 258
 570 649 l 258
 568 632 557 624 541 624 c 258
 432 624 l 257
 397 403 l 257
 499 403 l 258
 515 403 523 394 520 378 c 258
 516 351 l 258
 513 335 503 326 487 326 c 258
 385 326 l 257
 346 77 l 257
287 246 m 257
 349 634 l 257
 328 634 312 624 306 607 c 258
 157 246 l 257
 287 246 l 257
EndSplineSet
PickledDataWithLists: "(dp0
Vcom.schriftgestaltung.Glyphs.lastChange\\u000d
p1
V2016-06-09 18:35:33 +0000\\u000d
p2
s."
EndChar

StartChar: B
Encoding: 66 66 13
GlifName: B_
Width: 575
VWidth: 0
Flags: HMW
AnchorPoint: "mark-top" 360 700 basechar 0
AnchorPoint: "mark-bottom" 248 0 basechar 0
LayerCount: 2
Fore
SplineSet
66 25 m 258
 161 624 l 257
 123 624 l 258
 106 624 99 633 102 649 c 258
 106 675 l 258
 109 692 119 700 135 700 c 258
 315 700 l 258
 435 700 519 658 519 553 c 259
 519 476 473 404 401 370 c 257
 469 346 507 289 507 213 c 259
 507 75 382 0 224 0 c 258
 87 0 l 258
 70 0 63 9 66 25 c 258
246 624 m 257
 211 403 l 257
 268 403 l 258
 370 403 442 448 442 527 c 259
 442 591 394 624 303 624 c 258
 246 624 l 257
160 77 m 257
 237 77 l 258
 348 77 431 121 431 215 c 259
 431 299 362 326 276 326 c 258
 199 326 l 257
 160 77 l 257
EndSplineSet
PickledDataWithLists: "(dp0
Vcom.schriftgestaltung.Glyphs.lastChange\\u000d
p1
V2016-06-09 18:35:33 +0000\\u000d
p2
s."
EndChar

StartChar: B.hex
Encoding: 65538 -1 14
GlifName: B_.hex
Width: 575
VWidth: 0
Flags: HMW
LayerCount: 2
Fore
SplineSet
214 875 m 258
 214 829 l 258
 214 812 205 804 189 804 c 258
 154 804 l 258
 137 804 129 813 129 829 c 258
 129 875 l 258
 129 891 138 900 154 900 c 258
 189 900 l 258
 205 900 214 891 214 875 c 258
502 875 m 258
 502 829 l 258
 502 812 493 804 477 804 c 258
 442 804 l 258
 425 804 417 813 417 829 c 258
 417 875 l 258
 417 891 426 900 442 900 c 258
 477 900 l 258
 493 900 502 891 502 875 c 258
646 875 m 258
 646 829 l 258
 646 812 637 804 621 804 c 258
 586 804 l 258
 569 804 561 813 561 829 c 258
 561 875 l 258
 561 891 570 900 586 900 c 258
 621 900 l 258
 637 900 646 891 646 875 c 258
EndSplineSet
Refer: 13 66 N 1 0 0 1 0 0 2
PickledDataWithLists: "(dp0
Vcom.schriftgestaltung.Glyphs.lastChange\\u000d
p1
V2016-06-09 18:35:33 +0000\\u000d
p2
s."
EndChar

StartChar: C
Encoding: 67 67 16
GlifName: C_
Width: 575
VWidth: 0
Flags: HMW
AnchorPoint: "mark-top" 360 700 basechar 0
AnchorPoint: "mark-bottom" 248 0 basechar 0
LayerCount: 2
Fore
SplineSet
422 81 m 256
 438 87 448 82 452 67 c 258
 458 43 l 258
 462 28 456 16 440 10 c 256
 390 -10 342 -20 297 -20 c 259
 194 -20 85 33 85 207 c 256
 85 246 90 280 107 390 c 256
 147 640 295 710 413 710 c 259
 458 710 502 700 546 680 c 256
 560 674 562 662 554 647 c 258
 540 623 l 258
 532 608 520 603 506 609 c 256
 464 625 430 632 399 632 c 259
 320 632 224 586 193 390 c 256
 176 286 172 253 172 217 c 256
 172 91 241 58 308 58 c 259
 339 58 376 65 422 81 c 256
EndSplineSet
PickledDataWithLists: "(dp0
Vcom.schriftgestaltung.Glyphs.lastChange\\u000d
p1
V2016-06-09 18:35:33 +0000\\u000d
p2
s."
EndChar

StartChar: C.hex
Encoding: 65539 -1 17
GlifName: C_.hex
Width: 575
VWidth: 0
Flags: HMW
LayerCount: 2
Fore
SplineSet
214 875 m 258
 214 829 l 258
 214 812 205 804 189 804 c 258
 154 804 l 258
 137 804 129 813 129 829 c 258
 129 875 l 258
 129 891 138 900 154 900 c 258
 189 900 l 258
 205 900 214 891 214 875 c 258
358 875 m 258
 358 829 l 258
 358 812 349 804 333 804 c 258
 298 804 l 258
 281 804 273 813 273 829 c 258
 273 875 l 258
 273 891 282 900 298 900 c 258
 333 900 l 258
 349 900 358 891 358 875 c 258
EndSplineSet
Refer: 16 67 N 1 0 0 1 0 0 2
PickledDataWithLists: "(dp0
Vcom.schriftgestaltung.Glyphs.lastChange\\u000d
p1
V2016-06-09 18:35:33 +0000\\u000d
p2
s."
EndChar

StartChar: D
Encoding: 68 68 23
GlifName: D_
Width: 575
VWidth: 0
Flags: HMW
AnchorPoint: "mark-top" 360 700 basechar 0
AnchorPoint: "mark-bottom" 248 0 basechar 0
LayerCount: 2
Fore
SplineSet
133 700 m 258
 185 700 l 258
 402 700 546 648 546 473 c 256
 546 433 542 405 528 320 c 256
 494 102 394 0 143 0 c 258
 89 0 l 258
 72 0 63 11 66 27 c 258
 161 624 l 257
 125 624 l 258
 108 624 99 635 102 651 c 258
 106 677 l 258
 109 694 117 700 133 700 c 258
160 76 m 257
 345 80 415 145 444 332 c 256
 459 420 461 441 461 473 c 256
 461 570 405 614 247 622 c 257
 160 76 l 257
EndSplineSet
PickledDataWithLists: "(dp0
Vcom.schriftgestaltung.Glyphs.lastChange\\u000d
p1
V2016-06-09 18:46:00 +0000\\u000d
p2
s."
EndChar

StartChar: D.hex
Encoding: 65540 -1 24
GlifName: D_.hex
Width: 575
VWidth: 0
Flags: HMW
LayerCount: 2
Fore
SplineSet
145 875 m 258
 145 829 l 258
 145 812 136 804 120 804 c 258
 85 804 l 258
 68 804 60 813 60 829 c 258
 60 875 l 258
 60 891 69 900 85 900 c 258
 120 900 l 258
 136 900 145 891 145 875 c 258
289 875 m 258
 289 829 l 258
 289 812 280 804 264 804 c 258
 229 804 l 258
 212 804 204 813 204 829 c 258
 204 875 l 258
 204 891 213 900 229 900 c 258
 264 900 l 258
 280 900 289 891 289 875 c 258
577 875 m 258
 577 829 l 258
 577 812 568 804 552 804 c 258
 517 804 l 258
 500 804 492 813 492 829 c 258
 492 875 l 258
 492 891 501 900 517 900 c 258
 552 900 l 258
 568 900 577 891 577 875 c 258
EndSplineSet
Refer: 23 68 N 1 0 0 1 0 0 2
PickledDataWithLists: "(dp0
Vcom.schriftgestaltung.Glyphs.lastChange\\u000d
p1
V2016-06-09 18:35:33 +0000\\u000d
p2
s."
EndChar

StartChar: E
Encoding: 69 69 27
GlifName: E_
Width: 575
VWidth: 0
Flags: HMW
AnchorPoint: "mark-top" 360 700 basechar 0
AnchorPoint: "mark-bottom" 248 0 basechar 0
AnchorPoint: "mark-ogonek" 442 0 basechar 0
LayerCount: 2
Fore
SplineSet
143 77 m 257
 464 77 l 258
 481 77 488 68 485 52 c 258
 481 25 l 258
 478 8 468 0 452 0 c 258
 70 0 l 258
 53 0 46 9 49 25 c 258
 152 675 l 258
 155 692 165 700 181 700 c 258
 540 700 l 258
 557 700 564 691 561 675 c 258
 557 649 l 258
 554 632 544 624 528 624 c 258
 229 624 l 257
 194 403 l 257
 472 403 l 258
 489 403 496 394 493 378 c 258
 489 351 l 258
 486 334 476 326 460 326 c 258
 182 326 l 257
 143 77 l 257
EndSplineSet
PickledDataWithLists: "(dp0
Vcom.schriftgestaltung.Glyphs.lastChange\\u000d
p1
V2016-06-09 18:35:33 +0000\\u000d
p2
s."
EndChar

StartChar: E.hex
Encoding: 65541 -1 28
GlifName: E_.hex
Width: 575
VWidth: 0
Flags: HMW
LayerCount: 2
Fore
SplineSet
214 875 m 258
 214 829 l 258
 214 812 205 804 189 804 c 258
 154 804 l 258
 137 804 129 813 129 829 c 258
 129 875 l 258
 129 891 138 900 154 900 c 258
 189 900 l 258
 205 900 214 891 214 875 c 258
358 875 m 258
 358 829 l 258
 358 812 349 804 333 804 c 258
 298 804 l 258
 281 804 273 813 273 829 c 258
 273 875 l 258
 273 891 282 900 298 900 c 258
 333 900 l 258
 349 900 358 891 358 875 c 258
502 875 m 258
 502 829 l 258
 502 812 493 804 477 804 c 258
 442 804 l 258
 425 804 417 813 417 829 c 258
 417 875 l 258
 417 891 426 900 442 900 c 258
 477 900 l 258
 493 900 502 891 502 875 c 258
EndSplineSet
Refer: 27 69 N 1 0 0 1 0 0 2
PickledDataWithLists: "(dp0
Vcom.schriftgestaltung.Glyphs.lastChange\\u000d
p1
V2016-06-09 18:35:33 +0000\\u000d
p2
s."
EndChar

StartChar: Eth
Encoding: 208 208 39
GlifName: E_th
Width: 575
VWidth: 0
Flags: HMW
LayerCount: 2
Fore
SplineSet
-33 337 m 258
 -29 363 l 258
 -26 380 -16 389 0 389 c 258
 223 389 l 258
 239 389 247 380 244 364 c 258
 240 337 l 258
 237 321 227 312 211 312 c 258
 -12 312 l 258
 -28 312 -36 321 -33 337 c 258
EndSplineSet
Refer: 23 68 N 1 0 0 1 -10 0 2
PickledDataWithLists: "(dp0
Vcom.schriftgestaltung.Glyphs.lastChange\\u000d
p1
V2016-06-09 18:35:33 +0000\\u000d
p2
s."
EndChar

StartChar: Euro
Encoding: 8364 8364 40
GlifName: E_uro
Width: 575
VWidth: 0
Flags: HMW
LayerCount: 2
Fore
SplineSet
469 385 m 258
 89 385 l 258
 73 385 66 394 68 410 c 258
 72 431 l 258
 74 448 85 456 101 456 c 258
 119 456 l 257
 145 573 208 710 424 710 c 256
 457 710 511 708 570 697 c 256
 586 694 591 684 585 668 c 258
 575 641 l 257
 569 626 557 619 542 622 c 256
 487 632 437 634 412 634 c 256
 266 634 225 552 204 456 c 257
 481 456 l 258
 497 456 504 448 502 431 c 258
 498 410 l 258
 496 394 485 385 469 385 c 258
456 78 m 256
 472 81 481 75 483 59 c 258
 485 33 l 257
 485 17 477 6 460 3 c 256
 394 -9 341 -10 310 -10 c 256
 92 -10 74 130 85 244 c 257
 67 244 l 258
 51 244 43 253 46 269 c 258
 49 290 l 258
 52 307 62 315 78 315 c 258
 458 315 l 258
 474 315 482 307 479 290 c 258
 476 269 l 258
 473 253 463 244 447 244 c 258
 171 244 l 257
 160 116 201 67 322 67 c 256
 350 67 399 69 456 78 c 256
EndSplineSet
PickledDataWithLists: "(dp0
Vcom.schriftgestaltung.Glyphs.lastChange\\u000d
p1
V2015-12-22 14:04:06 +0000\\u000d
p2
s."
EndChar

StartChar: F
Encoding: 70 70 41
GlifName: F_
Width: 575
VWidth: 0
Flags: HMW
AnchorPoint: "mark-top" 360 700 basechar 0
AnchorPoint: "mark-bottom" 248 0 basechar 0
LayerCount: 2
Fore
SplineSet
181 700 m 258
 562 700 l 258
 579 700 586 691 583 675 c 258
 579 649 l 258
 576 632 566 624 550 624 c 258
 229 624 l 257
 189 368 l 257
 488 368 l 258
 505 368 512 359 509 343 c 258
 505 317 l 258
 502 300 492 292 476 292 c 258
 177 292 l 257
 134 25 l 258
 131 8 121 0 105 0 c 258
 70 0 l 258
 53 0 46 9 49 25 c 258
 152 675 l 258
 155 692 165 700 181 700 c 258
EndSplineSet
PickledDataWithLists: "(dp0
Vcom.schriftgestaltung.Glyphs.lastChange\\u000d
p1
V2016-06-09 18:35:33 +0000\\u000d
p2
s."
EndChar

StartChar: F.hex
Encoding: 65542 -1 42
GlifName: F_.hex
Width: 575
VWidth: 0
Flags: HMW
LayerCount: 2
Fore
SplineSet
214 875 m 258
 214 829 l 258
 214 812 205 804 189 804 c 258
 154 804 l 258
 137 804 129 813 129 829 c 258
 129 875 l 258
 129 891 138 900 154 900 c 258
 189 900 l 258
 205 900 214 891 214 875 c 258
358 875 m 258
 358 829 l 258
 358 812 349 804 333 804 c 258
 298 804 l 258
 281 804 273 813 273 829 c 258
 273 875 l 258
 273 891 282 900 298 900 c 258
 333 900 l 258
 349 900 358 891 358 875 c 258
502 875 m 258
 502 829 l 258
 502 812 493 804 477 804 c 258
 442 804 l 258
 425 804 417 813 417 829 c 258
 417 875 l 258
 417 891 426 900 442 900 c 258
 477 900 l 258
 493 900 502 891 502 875 c 258
646 875 m 258
 646 829 l 258
 646 812 637 804 621 804 c 258
 586 804 l 258
 569 804 561 813 561 829 c 258
 561 875 l 258
 561 891 570 900 586 900 c 258
 621 900 l 258
 637 900 646 891 646 875 c 258
EndSplineSet
Refer: 41 70 N 1 0 0 1 0 0 2
PickledDataWithLists: "(dp0
Vcom.schriftgestaltung.Glyphs.lastChange\\u000d
p1
V2016-06-09 18:35:33 +0000\\u000d
p2
s."
EndChar

StartChar: G
Encoding: 71 71 43
GlifName: G_
Width: 575
VWidth: 0
Flags: HMW
AnchorPoint: "mark-top" 360 700 basechar 0
AnchorPoint: "mark-bottom" 248 0 basechar 0
LayerCount: 2
Fore
SplineSet
365 389 m 258
 497 389 l 258
 514 389 521 380 518 364 c 258
 467 41 l 258
 465 27 457 17 443 11 c 256
 391 -10 342 -20 297 -20 c 259
 194 -20 85 33 85 206 c 256
 85 246 90 280 107 390 c 256
 147 640 295 710 413 710 c 259
 458 710 502 700 546 680 c 256
 560 674 562 662 554 647 c 258
 540 623 l 258
 532 608 520 603 506 609 c 256
 464 625 430 632 399 632 c 259
 320 632 224 586 193 390 c 256
 176 286 172 253 172 217 c 256
 172 91 241 58 308 58 c 259
 330 58 356 62 386 70 c 257
 425 312 l 257
 353 312 l 258
 336 312 329 321 332 337 c 258
 336 363 l 258
 339 380 349 389 365 389 c 258
EndSplineSet
PickledDataWithLists: "(dp0
Vcom.schriftgestaltung.Glyphs.lastChange\\u000d
p1
V2016-06-09 18:35:33 +0000\\u000d
p2
s."
EndChar

StartChar: Gamma
Encoding: 915 915 44
GlifName: G_amma
Width: 575
VWidth: 0
Flags: HMW
AnchorPoint: "mark-top" 360 700 basechar 0
LayerCount: 2
Fore
SplineSet
166 700 m 258
 551 700 l 258
 568 700 575 692 572 675 c 258
 568 649 l 258
 566 632 556 624 539 624 c 258
 214 624 l 257
 119 25 l 258
 117 9 107 0 90 0 c 258
 55 0 l 258
 39 0 32 9 34 25 c 258
 137 675 l 258
 140 692 150 700 166 700 c 258
EndSplineSet
PickledDataWithLists: "(dp0
Vcom.schriftgestaltung.Glyphs.lastChange\\u000d
p1
V2015-12-22 16:32:37 +0000\\u000d
p2
s."
EndChar

StartChar: H
Encoding: 72 72 46
GlifName: H_
Width: 575
VWidth: 0
Flags: HMW
AnchorPoint: "mark-top" 360 700 basechar 0
AnchorPoint: "mark-bottom" 248 0 basechar 0
LayerCount: 2
Fore
SplineSet
518 700 m 258
 553 700 l 258
 570 700 577 691 574 675 c 258
 471 25 l 258
 468 8 458 0 442 0 c 258
 407 0 l 258
 390 0 383 9 386 25 c 258
 435 333 l 257
 166 333 l 257
 117 25 l 258
 114 8 104 0 88 0 c 258
 53 0 l 258
 36 0 29 9 32 25 c 258
 135 675 l 258
 138 692 148 700 164 700 c 258
 199 700 l 258
 216 700 223 691 220 675 c 258
 178 410 l 257
 447 410 l 257
 489 675 l 258
 492 692 502 700 518 700 c 258
EndSplineSet
PickledDataWithLists: "(dp0
Vcom.schriftgestaltung.Glyphs.lastChange\\u000d
p1
V2016-06-09 18:35:33 +0000\\u000d
p2
s."
EndChar

StartChar: I
Encoding: 73 73 48
GlifName: I_
Width: 575
VWidth: 0
Flags: HMW
AnchorPoint: "mark-top" 360 700 basechar 0
AnchorPoint: "mark-bottom" 248 0 basechar 0
AnchorPoint: "mark-ogonek" 416 0 basechar 0
LayerCount: 2
Fore
SplineSet
191 700 m 258
 526 700 l 258
 543 700 550 691 547 675 c 258
 543 649 l 258
 540 632 530 624 514 624 c 258
 389 624 l 257
 303 77 l 257
 438 77 l 258
 455 77 462 68 459 52 c 258
 455 25 l 258
 452 8 442 0 426 0 c 258
 71 0 l 258
 54 0 47 9 50 25 c 258
 54 52 l 258
 57 69 67 77 83 77 c 258
 218 77 l 257
 304 624 l 257
 179 624 l 258
 162 624 155 633 158 649 c 258
 162 675 l 258
 165 692 175 700 191 700 c 258
EndSplineSet
PickledDataWithLists: "(dp0
Vcom.schriftgestaltung.Glyphs.lastChange\\u000d
p1
V2016-06-09 18:35:33 +0000\\u000d
p2
s."
EndChar

StartChar: IJ
Encoding: 306 306 49
GlifName: I_J_
Width: 575
VWidth: 0
Flags: HMW
LayerCount: 2
Fore
SplineSet
161 700 m 258
 296 700 l 258
 312 700 320 692 317 675 c 258
 313 649 l 258
 311 632 300 624 284 624 c 258
 259 624 l 257
 173 77 l 257
 208 77 l 258
 225 77 231 68 229 52 c 258
 224 25 l 258
 222 9 212 0 195 0 c 258
 40 0 l 258
 24 0 17 9 19 25 c 258
 24 52 l 258
 26 68 37 77 53 77 c 258
 88 77 l 257
 174 624 l 257
 149 624 l 258
 133 624 126 633 128 649 c 258
 132 675 l 258
 135 692 145 700 161 700 c 258
423 700 m 258
 536 700 l 258
 553 700 560 692 557 675 c 258
 470 125 l 258
 454 24 398 1 302 1 c 256
 285 1 277 9 279 25 c 258
 284 52 l 258
 286 68 297 77 313 77 c 256
 350 77 379 86 385 125 c 258
 464 624 l 257
 411 624 l 258
 395 624 388 632 390 649 c 258
 394 675 l 258
 397 691 407 700 423 700 c 258
EndSplineSet
PickledDataWithLists: "(dp0
Vcom.schriftgestaltung.Glyphs.lastChange\\u000d
p1
V2016-06-09 18:35:33 +0000\\u000d
p2
s."
EndChar

StartChar: J
Encoding: 74 74 57
GlifName: J_
Width: 575
VWidth: 0
Flags: HMW
AnchorPoint: "mark-top" 360 700 basechar 0
AnchorPoint: "mark-bottom" 248 0 basechar 0
LayerCount: 2
Fore
SplineSet
268 700 m 258
 536 700 l 258
 553 700 560 691 557 675 c 258
 494 275 l 258
 459 52 328 -10 164 -10 c 259
 134 -10 88 -8 36 3 c 256
 20 6 15 17 22 33 c 258
 33 59 l 258
 39 75 51 81 67 78 c 256
 112 69 155 67 176 67 c 259
 332 67 390 153 409 275 c 258
 464 624 l 257
 256 624 l 258
 239 624 232 633 235 649 c 258
 239 675 l 258
 242 692 252 700 268 700 c 258
EndSplineSet
PickledDataWithLists: "(dp0
Vcom.schriftgestaltung.Glyphs.lastChange\\u000d
p1
V2016-06-09 18:35:33 +0000\\u000d
p2
s."
EndChar

StartChar: K
Encoding: 75 75 59
GlifName: K_
Width: 575
VWidth: 0
Flags: HMW
AnchorPoint: "mark-top" 360 700 basechar 0
AnchorPoint: "mark-bottom" 248 0 basechar 0
LayerCount: 2
Fore
SplineSet
455 0 m 258
 403 0 l 258
 389 0 382 5 376 16 c 258
 203 323 l 257
 182 323 l 257
 134 25 l 258
 131 8 121 0 105 0 c 258
 70 0 l 258
 53 0 46 9 49 25 c 258
 152 675 l 258
 155 692 165 700 181 700 c 258
 216 700 l 258
 233 700 240 691 237 675 c 258
 194 399 l 257
 216 399 l 257
 466 685 l 258
 476 696 485 700 498 700 c 258
 551 700 l 258
 572 700 577 687 562 670 c 258
 280 360 l 257
 475 31 l 258
 486 14 476 0 455 0 c 258
EndSplineSet
PickledDataWithLists: "(dp0
Vcom.schriftgestaltung.Glyphs.lastChange\\u000d
p1
V2016-06-09 18:35:33 +0000\\u000d
p2
s."
EndChar

StartChar: L
Encoding: 76 76 61
GlifName: L_
Width: 575
VWidth: 0
Flags: HMW
AnchorPoint: "mark-top" 360 700 basechar 0
AnchorPoint: "mark-bottom" 248 0 basechar 0
AnchorPoint: "mark-topright" 461 700 basechar 0
AnchorPoint: "mark-centerright" 394 400 basechar 0
LayerCount: 2
Fore
SplineSet
143 77 m 257
 502 77 l 258
 519 77 526 68 523 52 c 258
 519 25 l 258
 516 8 506 0 490 0 c 258
 70 0 l 258
 53 0 46 9 49 25 c 258
 152 675 l 258
 155 692 165 700 181 700 c 258
 216 700 l 258
 233 700 240 691 237 675 c 258
 143 77 l 257
EndSplineSet
PickledDataWithLists: "(dp0
Vcom.schriftgestaltung.Glyphs.lastChange\\u000d
p1
V2016-06-09 18:35:33 +0000\\u000d
p2
s."
EndChar

StartChar: Lambda
Encoding: 923 923 63
GlifName: L_ambda
Width: 575
VWidth: 0
Flags: HMW
AnchorPoint: "mark-top" 360 700 basechar 0
LayerCount: 2
Fore
SplineSet
361 710 m 256
 425 710 464 679 469 621 c 258
 523 28 l 258
 525 11 514 0 497 0 c 258
 461 0 l 258
 446 0 439 7 437 22 c 258
 384 607 l 258
 382 624 370 634 349 634 c 256
 328 634 312 624 306 607 c 258
 66 22 l 258
 61 7 49 0 34 0 c 258
 -1 0 l 258
 -19 0 -25 11 -18 28 c 258
 224 621 l 258
 248 679 296 710 361 710 c 256
EndSplineSet
PickledDataWithLists: "(dp0
Vcom.schriftgestaltung.Glyphs.lastChange\\u000d
p1
V2015-12-22 12:18:02 +0000\\u000d
p2
s."
EndChar

StartChar: Lslash
Encoding: 321 321 66
GlifName: L_slash
Width: 575
VWidth: 0
Flags: HMW
LayerCount: 2
Fore
SplineSet
32 332 m 258
 299 512 l 258
 312 520 326 517 333 507 c 258
 348 484 l 258
 356 471 351 455 338 446 c 258
 71 267 l 258
 58 259 44 261 37 271 c 258
 21 294 l 258
 13 306 19 323 32 332 c 258
EndSplineSet
Refer: 61 76 N 1 0 0 1 0 0 2
PickledDataWithLists: "(dp0
Vcom.schriftgestaltung.Glyphs.lastChange\\u000d
p1
V2016-06-09 18:35:33 +0000\\u000d
p2
s."
EndChar

StartChar: M
Encoding: 77 77 67
GlifName: M_
Width: 575
VWidth: 0
Flags: HMW
AnchorPoint: "mark-top" 360 700 basechar 0
AnchorPoint: "mark-bottom" 248 0 basechar 0
LayerCount: 2
Fore
SplineSet
572 700 m 258
 590 700 597 691 594 675 c 258
 510 25 l 258
 508 10 494 0 479 0 c 258
 445 0 l 258
 430 0 423 10 425 25 c 258
 488 540 l 257
 342 318 l 258
 334 305 324 300 310 300 c 258
 282 300 l 258
 268 300 260 305 256 318 c 258
 180 540 l 257
 81 25 l 258
 78 10 67 0 52 0 c 258
 17 0 l 258
 2 0 -7 10 -4 25 c 258
 120 675 l 258
 123 691 132 700 150 700 c 258
 168 700 l 258
 196 700 213 689 221 664 c 258
 312 399 l 257
 489 664 l 258
 505 689 526 700 554 700 c 258
 572 700 l 258
EndSplineSet
PickledDataWithLists: "(dp0
Vcom.schriftgestaltung.Glyphs.lastChange\\u000d
p1
V2016-06-09 18:35:33 +0000\\u000d
p2
s."
EndChar

StartChar: N
Encoding: 78 78 69
GlifName: N_
Width: 575
VWidth: 0
Flags: HMW
AnchorPoint: "mark-top" 360 700 basechar 0
AnchorPoint: "mark-bottom" 248 0 basechar 0
LayerCount: 2
Fore
SplineSet
519 700 m 258
 554 700 l 258
 571 700 578 692 575 676 c 258
 470 25 l 258
 467 8 457 0 441 0 c 258
 423 0 l 258
 395 0 379 11 370 36 c 258
 198 527 l 257
 119 25 l 258
 116 8 106 0 90 0 c 258
 55 0 l 258
 38 0 31 9 34 25 c 258
 137 675 l 258
 140 692 150 700 166 700 c 258
 186 700 l 258
 214 700 231 689 239 664 c 258
 408 169 l 257
 490 675 l 258
 492 690 504 700 519 700 c 258
EndSplineSet
PickledDataWithLists: "(dp0
Vcom.schriftgestaltung.Glyphs.lastChange\\u000d
p1
V2016-06-09 18:35:33 +0000\\u000d
p2
s."
EndChar

StartChar: O
Encoding: 79 79 74
GlifName: O_
Width: 575
VWidth: 0
Flags: HMW
AnchorPoint: "mark-top" 360 700 basechar 0
AnchorPoint: "mark-bottom" 248 0 basechar 0
LayerCount: 2
Fore
SplineSet
111 457 m 256
 137 624 238 710 356 710 c 259
 458 710 535 644 535 519 c 256
 535 480 529 456 496 243 c 256
 470 78 370 -10 252 -10 c 259
 155 -10 77 48 72 162 c 256
 70 214 77 246 111 457 c 256
159 172 m 256
 166 104 214 67 264 67 c 259
 329 67 393 131 411 243 c 256
 443 443 449 475 449 503 c 256
 449 587 399 634 344 634 c 259
 279 634 214 569 196 457 c 256
 161 237 155 215 159 172 c 256
EndSplineSet
PickledDataWithLists: "(dp0
Vcom.schriftgestaltung.Glyphs.lastChange\\u000d
p1
V2016-06-09 18:35:33 +0000\\u000d
p2
s."
EndChar

StartChar: OE
Encoding: 338 338 75
GlifName: O_E_
Width: 575
VWidth: 0
Flags: HMW
LayerCount: 2
Fore
SplineSet
346 77 m 257
 466 77 l 258
 483 77 489 68 487 52 c 258
 482 25 l 258
 480 9 470 0 453 0 c 258
 248 0 l 258
 128 0 79 76 79 185 c 256
 79 223 85 256 116 447 c 256
 139 594 217 700 359 700 c 258
 553 700 l 258
 569 700 577 692 574 675 c 258
 570 649 l 258
 568 632 557 624 541 624 c 258
 432 624 l 257
 397 403 l 257
 499 403 l 258
 515 403 523 394 520 378 c 258
 516 351 l 258
 513 335 503 326 487 326 c 258
 385 326 l 257
 346 77 l 257
261 77 m 257
 347 624 l 257
 255 624 216 539 201 447 c 256
 169 248 165 227 165 196 c 256
 165 129 189 77 261 77 c 257
EndSplineSet
PickledDataWithLists: "(dp0
Vcom.schriftgestaltung.Glyphs.lastChange\\u000d
p1
V2016-06-09 18:35:33 +0000\\u000d
p2
s."
EndChar

StartChar: Oslash
Encoding: 216 216 83
GlifName: O_slash
Width: 575
VWidth: 0
Flags: HMW
LayerCount: 2
Fore
SplineSet
111 457 m 0
 137 624 238 710 356 710 c 0
 398.687783386 710 436.996849811 698.440187224 467.115543785 675.833669141 c 1
 526 772 l 2
 534.684570312 786.193359375 546 790 558 783 c 2
 581 770 l 2
 593 763 595.684570312 751.193359375 587 737 c 2
 514.262890116 618.210400426 l 1
 527.567852536 590.97496939 535 557.834865866 535 519 c 0
 535 480 529 456 496 243 c 0
 470 78 370 -10 252 -10 c 0
 212.68647464 -10 176.493951751 -0.472729299575 147.017477957 18.4486622263 c 1
 80 -91 l 2
 71 -105 60 -109 48 -102 c 2
 25 -89 l 2
 13 -82 10 -70 19 -56 c 2
 96.7667032611 71.0036100596 l 1
 82.3931164157 95.7376621697 73.5749724427 126.090628306 72 162 c 0
 70 214 77 246 111 457 c 0
419.187236761 597.560220982 m 1
 399.635352363 621.390178386 372.488411374 634 344 634 c 0
 279 634 214 569 196 457 c 0
 161.151007128 237.94918766 155.052313702 215.193523266 158.948786098 172.555413983 c 1
 419.187236761 597.560220982 l 1
194.047102565 95.2544396926 m 1
 213.358678972 76.6860301698 238.417554887 67 264 67 c 0
 329 67 393 131 411 243 c 0
 443 443 449 475 449 503 c 0
 449 505.826246404 448.943398039 508.610607356 448.831908093 511.352701974 c 1
 194.047102565 95.2544396926 l 1
EndSplineSet
PickledDataWithLists: "(dp0
Vcom.schriftgestaltung.Glyphs.lastChange\\u000d
p1
V2016-06-09 18:35:33 +0000\\u000d
p2
s."
EndChar

StartChar: P
Encoding: 80 80 85
GlifName: P_
Width: 575
VWidth: 0
Flags: HMW
AnchorPoint: "mark-top" 360 700 basechar 0
AnchorPoint: "mark-bottom" 248 0 basechar 0
LayerCount: 2
Fore
SplineSet
181 700 m 258
 316 700 l 258
 480 700 556 616 556 508 c 259
 556 360 418 260 247 260 c 258
 172 260 l 257
 134 25 l 258
 131 8 121 0 105 0 c 258
 70 0 l 258
 53 0 46 9 49 25 c 258
 152 675 l 258
 155 692 165 700 181 700 c 258
184 337 m 257
 259 337 l 258
 379 337 470 402 470 495 c 259
 470 569 419 624 304 624 c 258
 229 624 l 257
 184 337 l 257
EndSplineSet
PickledDataWithLists: "(dp0
Vcom.schriftgestaltung.Glyphs.lastChange\\u000d
p1
V2016-06-09 18:35:33 +0000\\u000d
p2
s."
EndChar

StartChar: Phi
Encoding: 934 934 86
GlifName: P_hi
Width: 575
VWidth: 0
Flags: HMW
AnchorPoint: "mark-top" 360 700 basechar 0
LayerCount: 2
Fore
SplineSet
617 649 m 258
 615 633 604 624 588 624 c 258
 389 624 l 257
 378 550 l 257
 486 538 549 479 549 386 c 256
 549 256 451 166 314 150 c 257
 302 76 l 257
 501 76 l 258
 517 76 525 67 522 51 c 258
 518 25 l 258
 516 8 505 0 489 0 c 258
 7 0 l 258
 -10 0 -16 9 -14 25 c 258
 -10 51 l 258
 -7 67 2 76 18 76 c 258
 217 76 l 257
 229 150 l 257
 121 162 58 222 58 314 c 256
 58 445 155 534 292 549 c 257
 304 624 l 257
 105 624 l 258
 89 624 83 633 85 649 c 258
 89 675 l 258
 92 691 101 700 118 700 c 258
 600 700 l 258
 616 700 624 692 621 675 c 258
 617 649 l 258
280 472 m 257
 197 457 144 402 144 329 c 256
 144 275 179 239 242 228 c 257
 280 472 l 257
327 228 m 257
 410 243 463 298 463 371 c 256
 463 425 427 461 365 472 c 257
 327 228 l 257
EndSplineSet
PickledDataWithLists: "(dp0
Vcom.schriftgestaltung.Glyphs.lastChange\\u000d
p1
V2015-12-22 12:22:42 +0000\\u000d
p2
s."
EndChar

StartChar: Pi
Encoding: 928 928 87
GlifName: P_i
Width: 575
VWidth: 0
Flags: HMW
AnchorPoint: "mark-top" 360 700 basechar 0
LayerCount: 2
Fore
SplineSet
181 700 m 258
 536 700 l 258
 553 700 560 692 557 675 c 258
 454 25 l 258
 452 9 442 0 425 0 c 258
 390 0 l 258
 374 0 367 9 369 25 c 258
 464 624 l 257
 229 624 l 257
 134 25 l 258
 132 9 122 0 105 0 c 258
 70 0 l 258
 54 0 47 9 49 25 c 258
 152 675 l 258
 155 692 165 700 181 700 c 258
EndSplineSet
PickledDataWithLists: "(dp0
Vcom.schriftgestaltung.Glyphs.lastChange\\u000d
p1
V2015-12-22 12:20:26 +0000\\u000d
p2
s."
EndChar

StartChar: Psi
Encoding: 936 936 88
GlifName: P_si
Width: 575
VWidth: 0
Flags: HMW
AnchorPoint: "mark-top" 360 700 basechar 0
LayerCount: 2
Fore
SplineSet
531 700 m 258
 566 700 l 258
 583 700 590 692 587 675 c 258
 549 433 l 258
 529 309 454 235 326 222 c 257
 294 25 l 258
 292 9 282 0 265 0 c 258
 230 0 l 258
 214 0 207 9 209 25 c 258
 241 222 l 257
 134 234 80 291 80 386 c 256
 80 401 81 417 84 433 c 258
 122 675 l 258
 125 691 135 700 151 700 c 258
 186 700 l 258
 202 700 210 692 207 675 c 258
 169 433 l 258
 167 423 167 412 167 403 c 256
 167 349 193 312 253 301 c 257
 312 675 l 258
 315 691 325 700 341 700 c 258
 376 700 l 258
 393 700 400 691 397 675 c 258
 338 301 l 257
 412 314 453 363 464 433 c 258
 502 675 l 258
 505 691 515 700 531 700 c 258
EndSplineSet
PickledDataWithLists: "(dp0
Vcom.schriftgestaltung.Glyphs.lastChange\\u000d
p1
V2015-12-22 12:24:48 +0000\\u000d
p2
s."
EndChar

StartChar: Q
Encoding: 81 81 89
GlifName: Q_
Width: 575
VWidth: 0
Flags: HMW
AnchorPoint: "mark-top" 360 700 basechar 0
LayerCount: 2
Fore
SplineSet
473 -142 m 257
 480 -168 l 257
 483 -183 478 -195 461 -200 c 257
 426 -212 388 -220 353 -220 c 259
 258 -220 179 -167 204 -6 c 258
 212 43 l 257
 298 43 l 257
 290 -6 l 258
 273 -114 307 -142 365 -142 c 259
 390 -142 414 -138 442 -128 c 256
 458 -122 468 -127 473 -142 c 257
EndSplineSet
Refer: 74 79 N 1 0 0 1 0 0 2
PickledDataWithLists: "(dp0
Vcom.schriftgestaltung.Glyphs.lastChange\\u000d
p1
V2016-06-09 18:35:33 +0000\\u000d
p2
s."
EndChar

StartChar: R
Encoding: 82 82 90
GlifName: R_
Width: 575
VWidth: 0
Flags: HMW
AnchorPoint: "mark-top" 360 700 basechar 0
AnchorPoint: "mark-bottom" 248 0 basechar 0
LayerCount: 2
Fore
SplineSet
411 335 m 257
 516 30 l 258
 522 12 512 0 493 0 c 258
 451 0 l 258
 437 0 429 6 425 18 c 258
 325 312 l 257
 180 312 l 257
 134 25 l 258
 131 8 121 0 105 0 c 258
 70 0 l 258
 53 0 46 9 49 25 c 258
 152 675 l 258
 155 692 165 700 181 700 c 258
 339 700 l 258
 476 700 544 631 544 537 c 259
 544 454 489 370 411 335 c 257
192 389 m 257
 290 389 l 258
 383 389 457 446 457 520 c 259
 457 575 417 624 327 624 c 258
 229 624 l 257
 192 389 l 257
EndSplineSet
PickledDataWithLists: "(dp0
Vcom.schriftgestaltung.Glyphs.lastChange\\u000d
p1
V2016-06-09 18:35:33 +0000\\u000d
p2
s."
EndChar

StartChar: S
Encoding: 83 83 94
GlifName: S_
Width: 575
VWidth: 0
Flags: HMW
AnchorPoint: "mark-top" 360 700 basechar 0
AnchorPoint: "mark-bottom" 248 0 basechar 0
LayerCount: 2
Back
SplineSet
531 652 m 258
 517 625 l 258
 510 610 498 605 484 611 c 256
 451 624 415 634 377 634 c 259
 294 634 210 586 210 511 c 259
 210 463 242 419 316 403 c 256
 446 375 507 307 507 220 c 259
 507 78 363 -10 209 -10 c 259
 161 -10 107 0 65 20 c 256
 51 26 48 38 57 53 c 258
 72 78 l 258
 80 93 92 98 106 92 c 264
 150.201684494 73.0564209313 192 69 226 69 c 259
 323 69 419 118 419 204 c 259
 419 256 382 299 295 318 c 256
 171 345 122 415 122 493 c 259
 122 623 248 710 389 710 c 259
 432 710 486 701 525 683 c 256
 538 676 538 668 531 652 c 258
EndSplineSet
Fore
SplineSet
531 652 m 258
 517 625 l 258
 510 610 498 605 484 611 c 256
 451 624 415 634 377 634 c 259
 294 634 210 586 210 511 c 259
 210 344.807340716 507 442 507 220 c 263
 507 78 363 -10 209 -10 c 259
 161 -10 107 0 65 20 c 256
 51 26 48 38 57 53 c 258
 72 78 l 258
 80 93 92 98 106 92 c 264
 150.201684494 73.0564209313 192 69 226 69 c 259
 323 69 419 118 419 204 c 259
 419 368.003048752 122 267.920014217 122 493 c 259
 122 623 248 710 389 710 c 259
 432 710 486 701 525 683 c 256
 538 676 538 668 531 652 c 258
EndSplineSet
PickledDataWithLists: "(dp0
Vcom.schriftgestaltung.Glyphs.lastChange\\u000d
p1
V2016-06-09 18:35:33 +0000\\u000d
p2
s."
EndChar

StartChar: T
Encoding: 84 84 100
GlifName: T_
Width: 575
VWidth: 0
Flags: HMW
AnchorPoint: "mark-top" 360 700 basechar 0
AnchorPoint: "mark-bottom" 248 0 basechar 0
LayerCount: 2
Fore
SplineSet
621 675 m 258
 617 649 l 258
 614 632 604 624 588 624 c 258
 389 624 l 257
 294 25 l 258
 291 8 281 0 265 0 c 258
 230 0 l 258
 213 0 206 9 209 25 c 258
 304 624 l 257
 106 624 l 258
 89 624 82 633 85 649 c 258
 89 675 l 258
 92 692 102 700 118 700 c 258
 600 700 l 258
 617 700 624 691 621 675 c 258
EndSplineSet
PickledDataWithLists: "(dp0
Vcom.schriftgestaltung.Glyphs.lastChange\\u000d
p1
V2016-06-09 18:35:33 +0000\\u000d
p2
s."
EndChar

StartChar: Theta
Encoding: 920 920 104
GlifName: T_heta
Width: 575
VWidth: 0
Flags: HMW
AnchorPoint: "mark-top" 360 700 basechar 0
LayerCount: 2
Fore
SplineSet
261 347 m 258
 266 374 l 258
 268 390 279 399 295 399 c 258
 324 399 l 258
 340 399 347 390 345 374 c 258
 340 347 l 258
 338 331 327 322 311 322 c 258
 282 322 l 258
 266 322 259 331 261 347 c 258
EndSplineSet
Refer: 74 79 N 1 0 0 1 0 0 2
PickledDataWithLists: "(dp0
Vcom.schriftgestaltung.Glyphs.lastChange\\u000d
p1
V2016-05-30 08:32:14 +0000\\u000d
p2
s."
EndChar

StartChar: Thorn
Encoding: 222 222 105
GlifName: T_horn
Width: 575
VWidth: 0
Flags: HMW
LayerCount: 2
Fore
SplineSet
237 675 m 258
 231 637 l 257
 268 641 299 642 321 642 c 256
 459 642 519 590 519 448 c 256
 519 254 438 121 239 121 c 256
 219 121 188 122 150 126 c 257
 134 25 l 258
 132 9 121 0 105 0 c 258
 70 0 l 258
 54 0 47 9 49 25 c 258
 152 675 l 258
 155 691 165 700 181 700 c 258
 216 700 l 258
 232 700 240 691 237 675 c 258
219 562 m 257
 162 202 l 257
 199 199 231 198 251 198 c 256
 387 198 433 298 433 435 c 256
 433 533 399 565 309 565 c 256
 291 565 259 565 219 562 c 257
EndSplineSet
PickledDataWithLists: "(dp0
Vcom.schriftgestaltung.Glyphs.lastChange\\u000d
p1
V2016-06-09 18:35:33 +0000\\u000d
p2
s."
EndChar

StartChar: U
Encoding: 85 85 106
GlifName: U_
Width: 575
VWidth: 0
Flags: HMW
AnchorPoint: "mark-top" 360 700 basechar 0
AnchorPoint: "mark-bottom" 248 0 basechar 0
AnchorPoint: "mark-ogonek" 326 5 basechar 0
LayerCount: 2
Fore
SplineSet
406 213 m 258
 479 675 l 258
 482 692 492 700 508 700 c 262
 543 700 l 262
 560 700 567 691 564 675 c 258
 491 213 l 258
 465 46 377 -10 259 -10 c 259
 157 -10 67 32 67 152 c 259
 67 171 69 191 72 213 c 258
 145 675 l 258
 148 692 158 700 174 700 c 262
 209 700 l 262
 226 700 233 691 230 675 c 258
 157 213 l 258
 154 192 152 174 152 159 c 259
 152 90 202 66 271 66 c 259
 355 66 389 103 406 213 c 258
EndSplineSet
PickledDataWithLists: "(dp0
Vcom.schriftgestaltung.Glyphs.lastChange\\u000d
p1
V2016-06-09 18:35:33 +0000\\u000d
p2
s."
EndChar

StartChar: V
Encoding: 86 86 117
GlifName: V_
Width: 575
VWidth: 0
Flags: HMW
AnchorPoint: "mark-top" 360 700 basechar 0
AnchorPoint: "mark-bottom" 248 0 basechar 0
LayerCount: 2
Fore
SplineSet
625 672 m 258
 383 79 l 258
 360 21 312 -10 253 -10 c 259
 194 -10 144 21 138 79 c 258
 84 672 l 258
 83 689 92 700 110 700 c 258
 145 700 l 258
 160 700 169 693 170 678 c 258
 224 93 l 258
 225 75 242 66 259 66 c 259
 276 66 295 75 302 93 c 258
 541 678 l 258
 547 693 557 700 572 700 c 258
 608 700 l 258
 625 700 633 689 625 672 c 258
EndSplineSet
PickledDataWithLists: "(dp0
Vcom.schriftgestaltung.Glyphs.lastChange\\u000d
p1
V2016-06-09 18:35:33 +0000\\u000d
p2
s."
EndChar

StartChar: X
Encoding: 88 88 123
GlifName: X_
Width: 575
VWidth: 0
Flags: HMW
AnchorPoint: "mark-top" 360 700 basechar 0
AnchorPoint: "mark-bottom" 248 0 basechar 0
LayerCount: 2
Fore
SplineSet
595 671 m 258
 415 390 l 258
 406 376 390 364 372 357 c 257
 388 351 400 338 405 325 c 258
 500 30 l 258
 505 12 496 0 477 0 c 258
 446 0 l 258
 432 0 423 6 419 18 c 258
 325 295 l 258
 318 315 310 325 300 325 c 259
 289 325 277 315 265 295 c 258
 82 18 l 258
 74 6 64 0 50 0 c 258
 19 0 l 258
 0 0 -6 12 5 30 c 258
 195 325 l 258
 203 338 220 351 237 357 c 257
 222 364 209 376 205 390 c 258
 114 671 l 258
 108 688 117 700 137 700 c 258
 168 700 l 258
 182 700 190 695 194 682 c 258
 285 419 l 258
 291 400 299 390 310 390 c 259
 320 390 332 399 345 419 c 258
 517 682 l 258
 525 695 536 700 550 700 c 258
 581 700 l 258
 600 700 606 688 595 671 c 258
EndSplineSet
PickledDataWithLists: "(dp0
Vcom.schriftgestaltung.Glyphs.lastChange\\u000d
p1
V2016-06-09 18:35:33 +0000\\u000d
p2
s."
EndChar

StartChar: Xi
Encoding: 926 926 124
GlifName: X_i
Width: 575
VWidth: 0
Flags: HMW
AnchorPoint: "mark-top" 360 700 basechar 0
LayerCount: 2
Fore
SplineSet
528 624 m 258
 165 624 l 258
 149 624 142 632 144 649 c 258
 148 675 l 258
 151 692 161 700 177 700 c 258
 540 700 l 258
 556 700 564 692 561 675 c 258
 557 649 l 258
 555 632 544 624 528 624 c 258
151 403 m 258
 472 403 l 258
 488 403 496 394 493 378 c 258
 489 351 l 258
 486 335 476 326 460 326 c 258
 139 326 l 258
 123 326 115 335 118 351 c 258
 122 378 l 258
 125 394 135 403 151 403 c 258
57 77 m 258
 464 77 l 258
 480 77 487 68 485 52 c 258
 480 25 l 258
 478 9 467 0 451 0 c 258
 44 0 l 258
 28 0 21 9 23 25 c 258
 28 52 l 258
 30 68 41 77 57 77 c 258
EndSplineSet
PickledDataWithLists: "(dp0
Vcom.schriftgestaltung.Glyphs.lastChange\\u000d
p1
V2015-12-22 12:18:54 +0000\\u000d
p2
s."
EndChar

StartChar: Y
Encoding: 89 89 125
GlifName: Y_
Width: 575
VWidth: 0
Flags: HMW
AnchorPoint: "mark-top" 360 700 basechar 0
AnchorPoint: "mark-bottom" 248 0 basechar 0
LayerCount: 2
Fore
SplineSet
567 700 m 258
 603 700 l 258
 623 700 628 688 617 671 c 258
 426 380 l 258
 404 347 375 325 340 315 c 257
 294 25 l 258
 291 8 281 0 265 0 c 258
 230 0 l 258
 213 0 206 9 209 25 c 258
 255 315 l 257
 224 325 201 347 191 380 c 258
 92 671 l 258
 85 688 95 700 114 700 c 258
 151 700 l 258
 165 700 173 695 177 682 c 258
 270 410 l 258
 277 391 291 380 309 380 c 259
 327 380 343 391 355 410 c 258
 534 682 l 258
 542 695 553 700 567 700 c 258
EndSplineSet
PickledDataWithLists: "(dp0
Vcom.schriftgestaltung.Glyphs.lastChange\\u000d
p1
V2016-06-09 18:35:33 +0000\\u000d
p2
s."
EndChar

StartChar: Z
Encoding: 90 90 130
GlifName: Z_
Width: 575
VWidth: 0
Flags: HMW
AnchorPoint: "mark-top" 360 700 basechar 0
AnchorPoint: "mark-bottom" 248 0 basechar 0
LayerCount: 2
Fore
SplineSet
466 455 m 258
 191 217 l 258
 159 190 136 141 123 77 c 257
 458 77 l 258
 475 77 482 68 479 52 c 258
 474 25 l 258
 471 8 461 0 445 0 c 258
 50 0 l 258
 33 0 26 9 29 25 c 258
 34 55 l 258
 48 142 87 216 143 265 c 258
 420 504 l 258
 449 529 472 571 483 624 c 257
 180 624 l 258
 163 624 156 633 159 649 c 258
 163 675 l 258
 166 692 176 700 192 700 c 258
 556 700 l 258
 573 700 580 691 577 675 c 258
 573 645 l 257
 561 572 523 504 466 455 c 258
EndSplineSet
PickledDataWithLists: "(dp0
Vcom.schriftgestaltung.Glyphs.lastChange\\u000d
p1
V2016-06-09 18:35:33 +0000\\u000d
p2
s."
EndChar

StartChar: a
Encoding: 97 97 135
GlifName: a
Width: 575
VWidth: 0
Flags: HMW
AnchorPoint: "mark-top" 327 500 basechar 0
AnchorPoint: "mark-bottom" 248 0 basechar 0
AnchorPoint: "mark-ogonek" 417 0 basechar 0
LayerCount: 2
Fore
SplineSet
522 471 m 258
 454 30 l 258
 452 14 443 0 427 0 c 258
 390 0 l 258
 374 0 366 9 369 25 c 258
 375 63 l 257
 322 15 263 -10 212 -10 c 259
 136 -10 77 36 77 189 c 259
 77 370 157 510 357 510 c 259
 386 510 440 508 501 500 c 256
 517 497 525 487 522 471 c 258
388 151 m 257
 433 430 l 257
 395 433 363 434 345 434 c 259
 209 434 163 326 163 204 c 259
 163 94 195 66 242 66 c 259
 283 66 336 95 388 151 c 257
EndSplineSet
PickledDataWithLists: "(dp0
Vcom.schriftgestaltung.Glyphs.lastChange\\u000d
p1
V2016-06-09 18:35:33 +0000\\u000d
p2
s."
EndChar

StartChar: a.hex
Encoding: 65543 -1 136
GlifName: a.hex
Width: 575
VWidth: 0
Flags: HMW
LayerCount: 2
Fore
SplineSet
214 875 m 258
 214 829 l 258
 214 812 205 804 189 804 c 258
 154 804 l 258
 137 804 129 813 129 829 c 258
 129 875 l 258
 129 891 138 900 154 900 c 258
 189 900 l 258
 205 900 214 891 214 875 c 258
502 875 m 258
 502 829 l 258
 502 812 493 804 477 804 c 258
 442 804 l 258
 425 804 417 813 417 829 c 258
 417 875 l 258
 417 891 426 900 442 900 c 258
 477 900 l 258
 493 900 502 891 502 875 c 258
EndSplineSet
Refer: 135 97 N 1 0 0 1 0 0 2
PickledDataWithLists: "(dp0
Vcom.schriftgestaltung.Glyphs.lastChange\\u000d
p1
V2016-06-09 18:35:34 +0000\\u000d
p2
s."
EndChar

StartChar: acute
Encoding: 180 180 140
GlifName: acute
Width: 575
VWidth: 0
GlyphClass: 2
Flags: HMW
LayerCount: 2
Fore
SplineSet
232 544 m 257
 226 562 l 257
 223 577 229 588 245 595 c 258
 471 696 l 258
 486 703 497 699 502 684 c 258
 515 638 l 258
 520 623 513 611 496 606 c 258
 264 531 l 258
 248 526 237 530 232 544 c 257
EndSplineSet
PickledDataWithLists: "(dp0
Vcom.schriftgestaltung.Glyphs.lastChange\\u000d
p1
V2015-12-22 16:32:39 +0000\\u000d
p2
s."
EndChar

StartChar: ae
Encoding: 230 230 142
GlifName: ae
Width: 575
VWidth: 0
Flags: HMW
AnchorPoint: "mark-top" 327 500 basechar 0
LayerCount: 2
Fore
SplineSet
156 443 m 258
 153 470 l 258
 151 486 160 496 176 499 c 256
 215 506 257 510 293 510 c 256
 459 510 510 412 487 270 c 257
 484 247 l 258
 481 231 471 222 455 222 c 258
 321 222 l 257
 296 67 l 257
 320 68 351 71 384 76 c 256
 401 79 410 73 411 57 c 258
 413 31 l 258
 415 15 406 4 389 1 c 256
 333 -9 321 -9 249 -10 c 257
 84 -10 35 46 49 149 c 256
 64 243 133 290 248 298 c 257
 269 433 l 257
 246 432 215 430 183 425 c 256
 166 422 157 428 156 443 c 258
333 299 m 257
 407 299 l 257
 411 347 403 401 351 415 c 257
 333 299 l 257
211 67 m 257
 235 220 l 257
 177 214 141 190 133 140 c 256
 126 98 160 73 211 67 c 257
EndSplineSet
PickledDataWithLists: "(dp0
Vcom.schriftgestaltung.Glyphs.lastChange\\u000d
p1
V2016-06-09 18:35:33 +0000\\u000d
p2
s."
EndChar

StartChar: alpha
Encoding: 945 945 144
GlifName: alpha
Width: 575
VWidth: 0
Flags: HMW
AnchorPoint: "mark-top" 327 500 basechar 0
LayerCount: 2
Fore
SplineSet
519 500 m 258
 546 500 l 258
 564 500 571 492 564 471 c 256
 558 455 535 355 483 250 c 257
 501 145 494 45 494 29 c 256
 495 8 484 0 466 0 c 258
 439 0 l 258
 424 0 418 5 417 22 c 256
 416 32 419 71 418 121 c 257
 365 47 297 -10 211 -10 c 256
 130 -10 39 27 39 177 c 256
 39 347 119 510 293 510 c 256
 379 510 429 453 458 379 c 257
 475 429 486 468 489 478 c 256
 496 495 504 500 519 500 c 258
125 193 m 256
 125 89 183 67 223 67 c 256
 302 67 364 155 421 250 c 257
 394 345 360 433 281 433 c 256
 169 433 125 293 125 193 c 256
EndSplineSet
PickledDataWithLists: "(dp0
Vcom.schriftgestaltung.Glyphs.lastChange\\u000d
p1
V2015-12-22 12:26:38 +0000\\u000d
p2
s."
EndChar

StartChar: ampersand
Encoding: 38 38 146
GlifName: ampersand
Width: 575
VWidth: 0
Flags: HMW
LayerCount: 2
Fore
SplineSet
463 0 m 258
 431 0 l 258
 416 0 410 7 407 21 c 256
 404 41 398 62 389 85 c 257
 325 21 255 -7 192 -7 c 256
 94 -7 38 51 38 143 c 256
 38 241 99 325 185 380 c 257
 146 428 127 475 127 519 c 256
 127 616 217 697 319 697 c 256
 405 697 463 640 463 564 c 256
 463 506 436 453 391 415 c 256
 380 405 368 405 357 417 c 258
 341 437 l 258
 331 449 332 461 344 471 c 256
 368 491 381 521 381 547 c 256
 381 587 350 618 305 618 c 256
 255 618 213 578 213 529 c 256
 213 500 226 467 259 428 c 256
 313 364 364 298 403 237 c 257
 410 252 417 267 423 284 c 256
 430 299 441 306 456 303 c 258
 488 297 l 258
 504 294 509 283 503 267 c 256
 486 226 467 190 448 159 c 257
 470 112 484 69 490 27 c 256
 491 10 480 0 463 0 c 258
122 153 m 256
 122 98 153 69 204 69 c 256
 247 69 302 94 352 157 c 257
 323 205 283 260 232 324 c 257
 165 282 122 217 122 153 c 256
EndSplineSet
PickledDataWithLists: "(dp0
Vcom.schriftgestaltung.Glyphs.lastChange\\u000d
p1
V2015-12-22 14:24:01 +0000\\u000d
p2
s."
EndChar

StartChar: asciicircum
Encoding: 94 94 150
GlifName: asciicircum
Width: 575
VWidth: 0
Flags: HMW
LayerCount: 2
Fore
SplineSet
68 499 m 258
 286 682 l 258
 311 702 332 719 362 719 c 259
 392 719 408 701 425 682 c 258
 585 499 l 258
 596 487 593 474 579 463 c 258
 554 443 l 258
 540 432 528 432 518 444 c 258
 364 633 l 258
 360 639 357 642 350 642 c 259
 343 642 336 636 333 633 c 258
 119 444 l 258
 106 432 94 432 84 443 c 258
 64 463 l 258
 53 474 55 487 68 499 c 258
EndSplineSet
PickledDataWithLists: "(dp0
Vcom.schriftgestaltung.Glyphs.lastChange\\u000d
p1
V2015-12-22 14:26:04 +0000\\u000d
p2
s."
EndChar

StartChar: asciitilde
Encoding: 126 126 151
GlifName: asciitilde
Width: 575
VWidth: 0
Flags: HMW
LayerCount: 2
Fore
SplineSet
504 368 m 258
 533 368 l 258
 548 368 555 359 552 342 c 256
 537 250 485 200 404 200 c 259
 360 200 311 229 266 283 c 256
 232 323 201 344 178 344 c 259
 147 344 127 320 119 275 c 256
 117 261 107 253 89 253 c 258
 61 253 l 258
 46 253 38 262 41 279 c 256
 56 370 109 421 191 421 c 259
 234 421 283 391 328 337 c 256
 361 298 392 276 416 276 c 259
 446 276 467 301 474 346 c 256
 476 360 487 368 504 368 c 258
EndSplineSet
PickledDataWithLists: "(dp0
Vcom.schriftgestaltung.Glyphs.lastChange\\u000d
p1
V2015-12-22 16:32:54 +0000\\u000d
p2
s."
EndChar

StartChar: asterisk
Encoding: 42 42 152
GlifName: asterisk
Width: 575
VWidth: 0
Flags: HMW
LayerCount: 2
Fore
SplineSet
548 395 m 258
 554 361 l 258
 556 346 549 335 533 330 c 258
 384 284 l 257
 462 144 l 258
 469 131 465 118 452 109 c 258
 420 89 l 258
 405 79 393 81 385 94 c 258
 294 256 l 257
 152 94 l 257
 139 81 127 79 115 88 c 258
 90 109 l 258
 78 118 79 131 90 144 c 258
 214 284 l 257
 80 330 l 258
 66 335 61 346 69 361 c 258
 85 395 l 258
 92 410 104 416 120 411 c 258
 268 359 l 257
 295 525 l 258
 297 542 308 550 324 550 c 258
 359 550 l 258
 375 550 382 542 380 525 c 258
 353 359 l 257
 519 411 l 258
 535 416 545 410 548 395 c 258
EndSplineSet
PickledDataWithLists: "(dp0
Vcom.schriftgestaltung.Glyphs.lastChange\\u000d
p1
V2015-12-22 20:53:16 +0000\\u000d
p2
s."
EndChar

StartChar: at
Encoding: 64 64 153
GlifName: at
Width: 575
VWidth: 0
Flags: HMW
LayerCount: 2
Fore
SplineSet
25 88 m 258
 85 464 l 258
 111 627 204 710 361 710 c 259
 495 710 563 649 563 528 c 256
 563 508 562 487 558 464 c 258
 502 112 l 258
 499 95 489 87 473 87 c 258
 413 87 l 258
 299 87 261 142 282 276 c 256
 303 410 359 465 473 465 c 257
 476 482 477 497 477 512 c 256
 477 593 434 634 349 634 c 259
 248 634 188 577 170 464 c 258
 110 88 l 258
 107 71 106 55 106 41 c 259
 106 -41 149 -82 235 -82 c 259
 268 -82 296 -76 331 -64 c 256
 347 -58 357 -63 361 -78 c 258
 368 -105 l 258
 372 -120 365 -132 350 -137 c 256
 308 -151 269 -158 223 -158 c 259
 88 -158 20 -96 20 25 c 259
 20 45 22 66 25 88 c 258
EndSplineSet
PickledDataWithLists: "(dp0
Vcom.schriftgestaltung.Glyphs.lastChange\\u000d
p1
V2016-02-01 22:12:54 +0000\\u000d
p2
s."
EndChar

StartChar: b
Encoding: 98 98 155
GlifName: b
Width: 575
VWidth: 0
Flags: HMW
AnchorPoint: "mark-bottom" 248 0 basechar 0
LayerCount: 2
Fore
SplineSet
240 725 m 266
 195 437 l 257
 248 485 307 510 358 510 c 259
 434 510 493 454 493 310 c 259
 493 120 413 -10 213 -10 c 259
 184 -10 130 -8 69 0 c 256
 53 3 46 13 48 29 c 258
 155 725 l 274
 158 742 168 750 184 750 c 258
 219 750 l 258
 236 750 243 741 240 725 c 266
182 349 m 257
 137 70 l 257
 175 67 207 66 225 66 c 259
 361 66 407 164 407 295 c 259
 407 396 375 434 328 434 c 259
 287 434 234 405 182 349 c 257
EndSplineSet
EndChar

StartChar: b.hex
Encoding: 65545 -1 156
GlifName: b.hex
Width: 575
VWidth: 0
Flags: HMW
LayerCount: 2
Fore
SplineSet
214 875 m 258
 214 829 l 258
 214 812 205 804 189 804 c 258
 154 804 l 258
 137 804 129 813 129 829 c 258
 129 875 l 258
 129 891 138 900 154 900 c 258
 189 900 l 258
 205 900 214 891 214 875 c 258
502 875 m 258
 502 829 l 258
 502 812 493 804 477 804 c 258
 442 804 l 258
 425 804 417 813 417 829 c 258
 417 875 l 258
 417 891 426 900 442 900 c 258
 477 900 l 258
 493 900 502 891 502 875 c 258
646 875 m 258
 646 829 l 258
 646 812 637 804 621 804 c 258
 586 804 l 258
 569 804 561 813 561 829 c 258
 561 875 l 258
 561 891 570 900 586 900 c 258
 621 900 l 258
 637 900 646 891 646 875 c 258
EndSplineSet
Refer: 155 98 N 1 0 0 1 0 0 2
PickledDataWithLists: "(dp0
Vcom.schriftgestaltung.Glyphs.lastChange\\u000d
p1
V2016-06-09 18:35:34 +0000\\u000d
p2
s."
EndChar

StartChar: backslash
Encoding: 92 92 157
GlifName: backslash
Width: 575
VWidth: 0
Flags: HMW
LayerCount: 2
Back
SplineSet
170 662 m 258
 166 676 172 688 186 695 c 258
 213 708 l 258
 227 715 238 711 242 697 c 258
 455 -25 l 258
 459 -39 453 -51 439 -58 c 258
 411 -71 l 258
 397 -78 387 -74 383 -60 c 258
 170 662 l 258
71 662 m 258
 64 676 69 688 83 695 c 258
 110 708 l 258
 124 715 136 711 143 697 c 258
 495 -25 l 258
 502 -39 497 -51 483 -58 c 258
 456 -71 l 258
 442 -78 430 -74 423 -60 c 258
 71 662 l 258
146 669 m 258
 141 684 146 695 161 700 c 258
 192 711 l 258
 207 716 218 710 223 695 c 258
 474 -33 l 258
 479 -48 474 -59 459 -64 c 258
 428 -75 l 258
 413 -80 402 -74 397 -59 c 258
 146 669 l 258
EndSplineSet
Fore
SplineSet
137 662 m 258
 132 676 139 688 154 695 c 258
 183 708 l 258
 198 715 209 711 214 697 c 258
 452 -25 l 258
 457 -39 450 -51 435 -58 c 258
 406 -71 l 258
 391 -78 379 -74 374 -60 c 258
 137 662 l 258
EndSplineSet
PickledDataWithLists: "(dp0
Vcom.schriftgestaltung.Glyphs.lastChange\\u000d
p1
V2015-12-22 16:32:37 +0000\\u000d
p2
s."
EndChar

StartChar: bar
Encoding: 124 124 158
GlifName: bar
Width: 575
VWidth: 0
Flags: HMW
LayerCount: 2
Fore
SplineSet
341 700 m 258
 376 700 l 258
 392 700 400 691 397 675 c 258
 284 -38 l 258
 281 -54 271 -63 255 -63 c 258
 220 -63 l 258
 204 -63 196 -54 199 -38 c 258
 312 675 l 258
 315 691 325 700 341 700 c 258
EndSplineSet
PickledDataWithLists: "(dp0
Vcom.schriftgestaltung.Glyphs.lastChange\\u000d
p1
V2015-12-22 16:32:56 +0000\\u000d
p2
s."
EndChar

StartChar: beta
Encoding: 946 946 159
GlifName: beta
Width: 575
VWidth: 0
Flags: HMW
AnchorPoint: "mark-top" 360 700 basechar 0
LayerCount: 2
Fore
SplineSet
141 494 m 258
 162 631 241 700 365 700 c 256
 468 700 522 656 522 575 c 256
 522 513 493 472 456 427 c 256
 440 407 421 385 421 365 c 256
 421 345 436 331 453 314 c 256
 477 291 506 264 506 216 c 256
 506 51 305 -61 150 16 c 257
 120 -175 l 258
 117 -191 108 -200 91 -200 c 258
 56 -200 l 258
 40 -200 32 -191 35 -175 c 258
 141 494 l 258
440 552 m 256
 440 599 410 624 353 624 c 256
 284 624 239 581 226 494 c 258
 161 86 l 257
 292 23 425 85 425 209 c 256
 425 242 402 260 380 279 c 257
 357 297 334 315 334 349 c 256
 334 394 369 434 397 468 c 256
 422 499 440 517 440 552 c 256
EndSplineSet
PickledDataWithLists: "(dp0
Vcom.schriftgestaltung.Glyphs.lastChange\\u000d
p1
V2015-12-22 12:27:37 +0000\\u000d
p2
s."
EndChar

StartChar: block
Encoding: 9608 9608 160
GlifName: block
Width: 575
VWidth: 0
Flags: HMW
LayerCount: 2
Fore
SplineSet
0 -250 m 257
 0 900 l 257
 575 900 l 257
 575 -250 l 257
 0 -250 l 257
EndSplineSet
PickledDataWithLists: "(dp0
Vcom.schriftgestaltung.Glyphs.lastChange\\u000d
p1
V2016-06-10 08:26:49 +0000\\u000d
p2
s."
EndChar

StartChar: braceleft
Encoding: 123 123 161
GlifName: braceleft
Width: 575
VWidth: 0
Flags: HMW
LayerCount: 2
Fore
SplineSet
383 585 m 258
 355 409 l 258
 347 355 332 314 270 286 c 257
 324 259 324 214 316 164 c 258
 288 -13 l 258
 278 -76 295 -102 354 -102 c 258
 435 -102 l 258
 452 -102 459 -111 456 -127 c 258
 452 -153 l 258
 449 -170 439 -178 423 -178 c 258
 342 -178 l 258
 224 -178 185 -131 203 -13 c 258
 231 164 l 258
 241 223 224 248 165 248 c 258
 85 248 l 258
 68 248 61 257 64 273 c 258
 68 299 l 258
 71 316 81 324 97 324 c 258
 177 324 l 258
 236 324 261 350 270 409 c 258
 298 585 l 258
 317 704 373 750 489 750 c 258
 570 750 l 258
 587 750 594 741 591 725 c 258
 587 699 l 258
 584 682 574 674 558 674 c 258
 477 674 l 258
 417 674 393 646 383 585 c 258
EndSplineSet
PickledDataWithLists: "(dp0
Vcom.schriftgestaltung.Glyphs.lastChange\\u000d
p1
V2016-04-11 09:42:36 +0000\\u000d
p2
s."
EndChar

StartChar: bracketleft
Encoding: 91 91 163
GlifName: bracketleft
Width: 575
VWidth: 0
Flags: HMW
LayerCount: 2
Fore
SplineSet
179 -102 m 257
 394 -102 l 258
 411 -102 418 -111 415 -127 c 258
 411 -153 l 258
 408 -170 398 -178 382 -178 c 258
 107 -178 l 258
 90 -178 83 -169 86 -153 c 258
 225 725 l 258
 228 742 238 750 254 750 c 258
 529 750 l 258
 546 750 553 741 550 725 c 258
 546 699 l 258
 543 682 533 674 517 674 c 258
 302 674 l 257
 179 -102 l 257
EndSplineSet
PickledDataWithLists: "(dp0
Vcom.schriftgestaltung.Glyphs.lastChange\\u000d
p1
V2015-12-22 13:51:23 +0000\\u000d
p2
s."
EndChar

StartChar: breve
Encoding: 728 728 165
GlifName: breve
Width: 575
VWidth: 0
GlyphClass: 2
Flags: HMW
LayerCount: 2
Fore
SplineSet
494 696 m 262
 521 691 l 262
 536 688 543 678 535 662 c 260
 501 583 430.004882812 538 334 538 c 263
 237.995117188 538 180 583 170 662 c 260
 169 678 178 688 195 691 c 262
 224 696 l 262
 239 699 247 692 249 676 c 260
 257 626 289 598 343 598 c 263
 396 598 438 626 461 676 c 260
 468 692 478 699 494 696 c 262
EndSplineSet
PickledDataWithLists: "(dp0
Vcom.schriftgestaltung.Glyphs.lastChange\\u000d
p1
V2015-12-22 16:32:39 +0000\\u000d
p2
s."
EndChar

StartChar: brokenbar
Encoding: 166 166 166
GlifName: brokenbar
Width: 575
VWidth: 0
Flags: HMW
LayerCount: 2
Fore
SplineSet
237 -178 m 258
 202 -178 l 258
 186 -178 178 -170 181 -153 c 258
 232 168 l 258
 235 185 245 193 261 193 c 258
 296 193 l 258
 312 193 320 185 317 168 c 258
 266 -153 l 258
 264 -169 254 -178 237 -178 c 258
325 379 m 258
 290 379 l 258
 274 379 267 388 269 404 c 258
 320 725 l 258
 323 741 333 750 349 750 c 258
 384 750 l 258
 401 750 408 742 405 725 c 258
 354 404 l 258
 352 388 341 379 325 379 c 258
EndSplineSet
PickledDataWithLists: "(dp0
Vcom.schriftgestaltung.Glyphs.lastChange\\u000d
p1
V2015-12-22 14:22:08 +0000\\u000d
p2
s."
EndChar

StartChar: bullet
Encoding: 8226 8226 167
GlifName: bullet
Width: 575
VWidth: 0
Flags: HMW
LayerCount: 2
Fore
SplineSet
469 311 m 256
 453 213 366 136 270 136 c 259
 173 136 108 213 124 311 c 256
 140 409 228 486 325 486 c 259
 421 486 485 409 469 311 c 256
EndSplineSet
PickledDataWithLists: "(dp0
Vcom.schriftgestaltung.Glyphs.lastChange\\u000d
p1
V2015-12-22 16:32:38 +0000\\u000d
p2
s."
EndChar

StartChar: c
Encoding: 99 99 168
GlifName: c
Width: 575
VWidth: 0
Flags: HMW
AnchorPoint: "mark-top" 327 500 basechar 0
AnchorPoint: "mark-bottom" 248 0 basechar 0
LayerCount: 2
Fore
SplineSet
522 447 m 258
 508 423 l 258
 500 408 488 403 474 409 c 256
 433 425 398 432 357 432 c 259
 226 432 166 325 166 211 c 259
 166 102 222 68 299 68 c 259
 340 68 376 75 424 91 c 256
 440 97 450 92 454 77 c 258
 460 53 l 258
 463 38 458 26 442 20 c 256
 391 0 338 -10 287 -10 c 259
 176 -10 80 45 80 202 c 259
 80 370 187 510 369 510 c 259
 420 510 471 500 514 480 c 256
 528 474 531 462 522 447 c 258
EndSplineSet
PickledDataWithLists: "(dp0
Vcom.schriftgestaltung.Glyphs.lastChange\\u000d
p1
V2016-06-09 18:35:33 +0000\\u000d
p2
s."
EndChar

StartChar: c.hex
Encoding: 65548 -1 169
GlifName: c.hex
Width: 575
VWidth: 0
Flags: HMW
LayerCount: 2
Fore
SplineSet
214 875 m 258
 214 829 l 258
 214 812 205 804 189 804 c 258
 154 804 l 258
 137 804 129 813 129 829 c 258
 129 875 l 258
 129 891 138 900 154 900 c 258
 189 900 l 258
 205 900 214 891 214 875 c 258
358 875 m 258
 358 829 l 258
 358 812 349 804 333 804 c 258
 298 804 l 258
 281 804 273 813 273 829 c 258
 273 875 l 258
 273 891 282 900 298 900 c 258
 333 900 l 258
 349 900 358 891 358 875 c 258
EndSplineSet
Refer: 168 99 N 1 0 0 1 0 0 2
PickledDataWithLists: "(dp0
Vcom.schriftgestaltung.Glyphs.lastChange\\u000d
p1
V2016-06-09 18:35:34 +0000\\u000d
p2
s."
EndChar

StartChar: caron
Encoding: 711 711 171
GlifName: caron
Width: 575
VWidth: 0
GlyphClass: 2
Flags: HMW
LayerCount: 2
Fore
SplineSet
179 665 m 258
 199 688 l 258
 211 701 224 703 235 694 c 258
 326 623 l 258
 333 617 336 614 346 614 c 259
 356 614 359 618 368 623 c 258
 481 694 l 258
 496 703 507 701 514 688 c 258
 528 665 l 258
 536 652 532 639 516 630 c 258
 402 565 l 258
 380 552 357 542 334 542 c 259
 311 542 293 551 274 564 c 258
 180 630 l 258
 168 639 167 652 179 665 c 258
EndSplineSet
PickledDataWithLists: "(dp0
Vcom.schriftgestaltung.Glyphs.lastChange\\u000d
p1
V2016-05-18 20:16:32 +0000\\u000d
p2
s."
EndChar

StartChar: cedilla
Encoding: 184 184 175
GlifName: cedilla
Width: 575
VWidth: 0
GlyphClass: 2
Flags: HMW
AnchorPoint: "bottom" 202 0 mark 0
LayerCount: 2
Fore
SplineSet
240 -68 m 257
 263 -63 284 -61 302 -61 c 256
 371 -61 403 -91 403 -129 c 256
 403 -199 294 -246 196 -246 c 256
 171 -246 147 -242 120 -235 c 257
 105 -230 101 -218 109 -203 c 258
 115 -192 l 257
 122 -177 134 -172 149 -175 c 256
 169 -179 191 -181 207 -181 c 256
 255 -181 304 -165 304 -140 c 256
 304 -128 291 -119 263 -119 c 256
 255 -119 245 -120 235 -121 c 257
 222 -123 212 -121 204 -111 c 258
 180 -82 l 258
 172 -72 172 -61 180 -48 c 258
 207 -5 l 258
 215 8 225 14 239 13 c 257
 257 13 l 257
 276 12 282 1 271 -17 c 258
 240 -68 l 257
EndSplineSet
PickledDataWithLists: "(dp0
Vcom.schriftgestaltung.Glyphs.lastChange\\u000d
p1
V2015-12-22 16:32:40 +0000\\u000d
p2
s."
EndChar

StartChar: cent
Encoding: 162 162 176
GlifName: cent
Width: 575
VWidth: 0
Flags: HMW
LayerCount: 2
Fore
SplineSet
225 44 m 257
 308 31 l 257
 279 -153 l 258
 276 -170 266 -178 250 -178 c 258
 215 -178 l 258
 199 -178 191 -170 194 -153 c 258
 225 44 l 257
379 480 m 257
 292 467 l 257
 322 653 l 258
 325 670 335 678 351 678 c 258
 386 678 l 258
 402 678 410 670 407 653 c 258
 379 480 l 257
EndSplineSet
Refer: 168 99 N 1 0 0 1 0 0 2
PickledDataWithLists: "(dp0
Vcom.schriftgestaltung.Glyphs.lastChange\\u000d
p1
V2015-12-22 14:01:47 +0000\\u000d
p2
s."
EndChar

StartChar: chi
Encoding: 967 967 177
GlifName: chi
Width: 575
VWidth: 0
Flags: HMW
AnchorPoint: "mark-top" 327 500 basechar 0
LayerCount: 2
Fore
SplineSet
358 110 m 258
 385 -8 414 -42 448 -42 c 256
 453 -42 458 -42 464 -41 c 256
 480 -39 489 -47 488 -63 c 258
 488 -87 l 258
 487 -104 479 -113 462 -115 c 256
 453 -115 445 -116 436 -116 c 256
 373 -116 314 -87 275 83 c 258
 268 112 l 257
 78 -121 l 258
 67 -134 54 -137 42 -128 c 258
 25 -116 l 258
 13 -107 13 -94 24 -81 c 258
 248 198 l 257
 230 276 l 258
 203 394 174 428 140 428 c 256
 135 428 130 428 124 427 c 256
 107 426 99 434 100 449 c 258
 100 473 l 258
 101 490 109 499 126 501 c 256
 135 501 143 502 152 502 c 256
 215 502 274 473 313 303 c 257
 318 285 l 257
 477 484 l 258
 486 495 497 500 510 500 c 258
 549 500 l 258
 569 500 574 487 560 470 c 258
 338 197 l 257
 358 110 l 258
EndSplineSet
PickledDataWithLists: "(dp0
Vcom.schriftgestaltung.Glyphs.lastChange\\u000d
p1
V2015-12-22 12:54:05 +0000\\u000d
p2
s."
EndChar

StartChar: circumflex
Encoding: 710 710 178
GlifName: circumflex
Width: 575
VWidth: 0
GlyphClass: 2
Flags: HMW
LayerCount: 2
Fore
SplineSet
177 552 m 257
 165 576 l 258
 157 590 162 602 177 611 c 258
 292 677 l 258
 315 691 336 700 359 700 c 259
 382 700 402 689 420 677 c 258
 513 611 l 258
 526 602 526 590 514 576 c 258
 493 553 l 258
 482 540 470 538 458 547 c 258
 367 619 l 258
 360 624 358 628 348 628 c 259
 338 628 334 624 325 619 c 258
 212 547 l 258
 198 538 186 540 177 552 c 257
EndSplineSet
PickledDataWithLists: "(dp0
Vcom.schriftgestaltung.Glyphs.lastChange\\u000d
p1
V2015-12-22 16:32:40 +0000\\u000d
p2
s."
EndChar

StartChar: colon
Encoding: 58 58 179
GlifName: colon
Width: 575
VWidth: 0
Flags: HMW
LayerCount: 2
Fore
SplineSet
287 550 m 258
 387 550 l 258
 404 550 411 541 408 525 c 258
 393 435 l 258
 390 418 380 410 364 410 c 258
 264 410 l 258
 247 410 240 419 243 435 c 258
 258 525 l 258
 261 542 271 550 287 550 c 258
220 140 m 258
 320 140 l 258
 337 140 344 131 341 115 c 258
 326 25 l 258
 323 8 313 0 297 0 c 258
 197 0 l 258
 180 0 173 9 176 25 c 258
 191 115 l 258
 194 132 204 140 220 140 c 258
EndSplineSet
PickledDataWithLists: "(dp0
Vcom.schriftgestaltung.Glyphs.lastChange\\u000d
p1
V2015-12-22 20:53:35 +0000\\u000d
p2
s."
EndChar

StartChar: comma
Encoding: 44 44 180
GlifName: comma
Width: 575
VWidth: 0
Flags: HMW
LayerCount: 2
Fore
SplineSet
322 -2 m 273
 294 -181 217 -247 38 -247 c 259
 21 -247 14 -238 17 -222 c 258
 21 -196 l 258
 24 -179 34 -171 50 -171 c 259
 167 -171 219 -125 237 0 c 265
 197 0 l 258
 180 0 173 9 176 25 c 258
 191 115 l 258
 194 132 204 140 220 140 c 258
 320 140 l 258
 337 140 344 131 341 115 c 258
 322 -2 l 273
EndSplineSet
PickledDataWithLists: "(dp0
Vcom.schriftgestaltung.Glyphs.lastChange\\u000d
p1
V2015-12-22 20:53:49 +0000\\u000d
p2
s."
EndChar

StartChar: copyright
Encoding: 169 169 181
GlifName: copyright
Width: 575
VWidth: 0
Flags: HMW
LayerCount: 2
Fore
SplineSet
411 468 m 258
 399 459 l 258
 386 448 377 450 364 458 c 256
 353 465 339 469 324 469 c 258
 323 469 l 258
 300 469 274 458 255 440 c 256
 237 423 225 399 221 375 c 256
 217 352 222 328 235 310 c 256
 248 293 270 282 293 281 c 258
 294 281 l 258
 309 281 325 286 338 293 c 256
 353 301 363 302 372 291 c 258
 381 282 l 258
 391 271 390 257 375 247 c 256
 348 229 315 219 285 219 c 258
 282 219 l 258
 242 220 206 237 184 267 c 256
 161 296 151 335 158 375 c 256
 164 415 186 455 218 484 c 256
 250 513 292 531 332 531 c 257
 335 532 l 257
 365 532 394 521 415 503 c 256
 427 493 424 479 411 468 c 258
92 190 m 256
 52 238 35 307 46 375 c 256
 57 444 95 512 151 561 c 256
 208 609 280 637 349 637 c 256
 417 637 482 609 522 561 c 256
 563 512 581 444 570 375 c 256
 559 307 520 238 463 190 c 256
 408 141 334 113 266 113 c 256
 197 113 134 141 92 190 c 256
426 234 m 256
 469 271 499 323 507 375 c 256
 515 427 502 479 471 516 c 256
 440 553 391 575 339 575 c 256
 287 575 232 553 189 516 c 256
 146 479 116 427 108 375 c 256
 100 323 113 271 144 234 c 256
 176 197 224 176 276 176 c 256
 328 176 384 197 426 234 c 256
EndSplineSet
PickledDataWithLists: "(dp0
Vcom.schriftgestaltung.Glyphs.lastChange\\u000d
p1
V2015-12-22 14:24:21 +0000\\u000d
p2
s."
EndChar

StartChar: currency
Encoding: 164 164 182
GlifName: currency
Width: 575
VWidth: 0
Flags: HMW
LayerCount: 2
Fore
SplineSet
566 442 m 258
 471 360 l 257
 487 327 493 289 487 250 c 256
 481 212 463 173 437 141 c 257
 506 59 l 258
 516 47 514 35 499 24 c 258
 473 3 l 258
 459 -8 447 -8 438 4 c 258
 371 84 l 257
 335 63 294 51 256 51 c 256
 217 51 181 63 152 84 c 257
 60 4 l 258
 46 -8 34 -8 24 3 c 258
 4 24 l 258
 -6 35 -4 47 9 59 c 258
 104 141 l 257
 88 173 83 212 89 250 c 256
 95 289 112 327 138 360 c 257
 69 442 l 258
 60 453 62 466 76 477 c 258
 102 497 l 258
 116 508 128 508 138 497 c 258
 204 417 l 257
 241 438 281 449 320 449 c 256
 358 449 395 438 423 417 c 257
 516 497 l 258
 529 508 541 508 551 498 c 258
 571 477 l 258
 582 466 580 453 566 442 c 258
165 250 m 256
 154 182 201 128 269 128 c 256
 337 128 399 182 410 250 c 256
 421 318 375 373 307 373 c 256
 239 373 176 318 165 250 c 256
EndSplineSet
PickledDataWithLists: "(dp0
Vcom.schriftgestaltung.Glyphs.lastChange\\u000d
p1
V2015-12-22 14:02:18 +0000\\u000d
p2
s."
EndChar

StartChar: d
Encoding: 100 100 183
GlifName: d
Width: 575
VWidth: 0
Flags: HMW
AnchorPoint: "mark-bottom" 248 0 basechar 0
AnchorPoint: "mark-topright" 560 700 basechar 0
LayerCount: 2
Fore
SplineSet
508 750 m 258
 543 750 l 258
 559 750 567 741 564 725 c 258
 454 30 l 258
 452 14 443 0 427 0 c 258
 390 0 l 258
 374 0 366 9 369 25 c 258
 375 63 l 257
 322 15 263 -10 212 -10 c 259
 136 -10 77 46 77 190 c 259
 77 380 157 510 357 510 c 259
 377 510 409 509 445 506 c 257
 479 725 l 258
 482 741 492 750 508 750 c 258
242 66 m 259
 283 66 336 95 388 151 c 257
 433 430 l 257
 395 433 363 434 345 434 c 259
 209 434 163 336 163 205 c 259
 163 104 195 66 242 66 c 259
EndSplineSet
EndChar

StartChar: d.hex
Encoding: 65549 -1 184
GlifName: d.hex
Width: 575
VWidth: 0
Flags: HMW
LayerCount: 2
Fore
SplineSet
214 875 m 258
 214 829 l 258
 214 812 205 804 189 804 c 258
 154 804 l 258
 137 804 129 813 129 829 c 258
 129 875 l 258
 129 891 138 900 154 900 c 258
 189 900 l 258
 205 900 214 891 214 875 c 258
358 875 m 258
 358 829 l 258
 358 812 349 804 333 804 c 258
 298 804 l 258
 281 804 273 813 273 829 c 258
 273 875 l 258
 273 891 282 900 298 900 c 258
 333 900 l 258
 349 900 358 891 358 875 c 258
646 875 m 258
 646 829 l 258
 646 812 637 804 621 804 c 258
 586 804 l 258
 569 804 561 813 561 829 c 258
 561 875 l 258
 561 891 570 900 586 900 c 258
 621 900 l 258
 637 900 646 891 646 875 c 258
EndSplineSet
Refer: 183 100 N 1 0 0 1 0 0 2
PickledDataWithLists: "(dp0
Vcom.schriftgestaltung.Glyphs.lastChange\\u000d
p1
V2016-06-09 18:35:34 +0000\\u000d
p2
s."
EndChar

StartChar: dagger
Encoding: 8224 8224 185
GlifName: dagger
Width: 575
VWidth: 0
Flags: HMW
LayerCount: 2
Fore
SplineSet
574 564 m 258
 569 537 l 258
 567 521 557 512 540 512 c 258
 371 512 l 257
 271 -124 l 258
 268 -140 259 -149 242 -149 c 258
 207 -149 l 258
 191 -149 183 -140 186 -124 c 258
 286 512 l 257
 117 512 l 258
 101 512 94 521 96 537 c 258
 101 563 l 258
 103 580 114 589 130 589 c 258
 299 589 l 257
 328 774 l 258
 331 790 341 799 357 799 c 258
 392 799 l 258
 409 799 416 791 413 774 c 258
 384 589 l 257
 553 589 l 258
 570 589 576 580 574 564 c 258
EndSplineSet
PickledDataWithLists: "(dp0
Vcom.schriftgestaltung.Glyphs.lastChange\\u000d
p1
V2015-12-22 14:26:24 +0000\\u000d
p2
s."
EndChar

StartChar: daggerdbl
Encoding: 8225 8225 186
GlifName: daggerdbl
Width: 575
VWidth: 0
Flags: HMW
LayerCount: 2
Fore
SplineSet
540 512 m 258
 371 512 l 257
 312 138 l 257
 481 138 l 258
 498 138 505 130 502 113 c 258
 498 87 l 258
 496 71 486 62 469 62 c 258
 300 62 l 257
 271 -124 l 258
 268 -141 259 -149 242 -149 c 258
 207 -149 l 258
 191 -149 183 -140 186 -124 c 258
 215 62 l 257
 46 62 l 258
 30 62 23 71 25 87 c 258
 29 113 l 258
 32 130 42 138 58 138 c 258
 227 138 l 257
 286 512 l 257
 117 512 l 258
 101 512 94 521 96 537 c 258
 101 563 l 258
 103 580 114 589 130 589 c 258
 299 589 l 257
 328 774 l 258
 331 790 341 799 357 799 c 258
 392 799 l 258
 409 799 416 791 413 774 c 258
 384 589 l 257
 553 589 l 258
 570 589 576 580 574 564 c 258
 569 537 l 258
 567 521 557 512 540 512 c 258
EndSplineSet
PickledDataWithLists: "(dp0
Vcom.schriftgestaltung.Glyphs.lastChange\\u000d
p1
V2015-12-22 14:32:11 +0000\\u000d
p2
s."
EndChar

StartChar: degree
Encoding: 176 176 189
GlifName: degree
Width: 575
VWidth: 0
Flags: HMW
LayerCount: 2
Fore
SplineSet
146 498 m 256
 146 615 246 710 363 710 c 259
 454 710 516 648 516 560 c 256
 516 446 421 346 305 346 c 259
 209 346 146 409 146 498 c 256
232 509 m 256
 232 459 264 423 314 423 c 259
 378 423 430 483 430 548 c 256
 430 598 397 633 348 633 c 259
 284 633 232 576 232 509 c 256
EndSplineSet
PickledDataWithLists: "(dp0
Vcom.schriftgestaltung.Glyphs.lastChange\\u000d
p1
V2016-05-30 08:37:06 +0000\\u000d
p2
s."
EndChar

StartChar: delta
Encoding: 948 948 190
GlifName: delta
Width: 575
VWidth: 0
Flags: HMW
AnchorPoint: "mark-top" 360 700 basechar 0
LayerCount: 2
Fore
SplineSet
144 192 m 256
 144 111 184 62 255 62 c 256
 372 62 427 168 427 288 c 256
 427 319 422 351 413 382 c 257
 378 389 343 393 308 393 c 256
 205 393 144 302 144 192 c 256
536 623 m 258
 323 623 l 257
 450 528 512 400 512 286 c 256
 512 114 413 -15 243 -15 c 256
 125 -15 58 57 58 178 c 256
 58 343 157 471 320 471 c 256
 340 471 357 470 373 467 c 257
 337 522 286 573 218 614 c 256
 207 620 202 629 204 643 c 258
 209 675 l 258
 212 691 222 700 238 700 c 258
 548 700 l 258
 564 700 572 691 569 675 c 258
 565 648 l 258
 563 632 552 623 536 623 c 258
EndSplineSet
PickledDataWithLists: "(dp0
Vcom.schriftgestaltung.Glyphs.lastChange\\u000d
p1
V2016-05-30 08:32:37 +0000\\u000d
p2
s."
EndChar

StartChar: dieresis
Encoding: 168 168 191
GlifName: dieresis
Width: 575
VWidth: 0
GlyphClass: 2
Flags: HMW
LayerCount: 2
Fore
SplineSet
294 675 m 258
 287 629 l 258
 284 612 275 604 258 604 c 258
 223 604 l 258
 207 604 199 613 202 629 c 258
 209 675 l 258
 212 691 222 700 238 700 c 258
 273 700 l 258
 290 700 297 691 294 675 c 258
501 675 m 258
 494 629 l 258
 491 612 481 604 465 604 c 258
 430 604 l 258
 413 604 406 613 409 629 c 258
 416 675 l 258
 419 691 429 700 445 700 c 258
 480 700 l 258
 496 700 504 691 501 675 c 258
EndSplineSet
PickledDataWithLists: "(dp0
Vcom.schriftgestaltung.Glyphs.lastChange\\u000d
p1
V2015-12-22 16:32:41 +0000\\u000d
p2
s."
EndChar

StartChar: divide
Encoding: 247 247 192
GlifName: divide
Width: 575
VWidth: 0
Flags: HMW
LayerCount: 2
Fore
SplineSet
376 545 m 258
 369 499 l 258
 366 482 357 474 340 474 c 258
 305 474 l 258
 289 474 281 483 284 499 c 258
 291 545 l 258
 294 561 304 570 320 570 c 258
 355 570 l 258
 372 570 379 561 376 545 c 258
  Spiro
    376 545 [
    369 499 ]
    363.933 484.974 o
    354.396 476.698 o
    340 474 [
    305 474 ]
    291.788 476.92 o
    284.552 485.419 o
    284 499 [
    291 545 ]
    296.289 558.581 o
    306.049 567.08 o
    320 570 [
    355 570 ]
    368.656 567.08 o
    375.67 558.581 o
    0 0 z
  EndSpiro
309 122 m 258
 302 75 l 258
 299 58 290 50 273 50 c 258
 238 50 l 258
 222 50 214 58 217 75 c 258
 224 122 l 258
 227 138 237 147 253 147 c 258
 288 147 l 258
 305 147 312 138 309 122 c 258
  Spiro
    309 122 [
    302 75 ]
    296.933 60.9741 o
    287.396 52.6983 o
    273 50 [
    238 50 ]
    224.788 52.6983 o
    217.552 60.9741 o
    217 75 [
    224 122 ]
    229.289 135.581 o
    239.049 144.08 o
    253 147 [
    288 147 ]
    301.656 144.08 o
    308.67 135.581 o
    0 0 z
  EndSpiro
92 297 m 258
 96 323 l 258
 99 340 109 349 125 349 c 258
 480 349 l 258
 497 349 504 340 501 324 c 258
 497 297 l 258
 494 281 485 272 468 272 c 258
 113 272 l 258
 97 272 89 281 92 297 c 258
  Spiro
    92 297 [
    96 323 ]
    101.289 337.285 o
    111.049 346.043 o
    125 349 [
    480 349 ]
    493.656 346.08 o
    500.67 337.581 o
    501 324 [
    497 297 ]
    491.933 283.419 o
    482.396 274.92 o
    468 272 [
    113 272 ]
    99.7881 274.92 o
    92.5516 283.419 o
    0 0 z
  EndSpiro
EndSplineSet
PickledDataWithLists: "(dp0
Vcom.schriftgestaltung.Glyphs.lastChange\\u000d
p1
V2015-12-22 14:06:58 +0000\\u000d
p2
s."
EndChar

StartChar: dkshade
Encoding: 9619 9619 193
GlifName: dkshade
Width: 575
VWidth: 0
Flags: HMW
LayerCount: 2
Fore
SplineSet
0 -250 m 257
 0 -194 l 257
 28 -250 l 257
 0 -250 l 257
71 -250 m 257
 0 -108 l 257
 0 -52 l 257
 99 -250 l 257
 71 -250 l 257
142 -250 m 257
 0 34 l 257
 0 90 l 257
 170 -250 l 257
 142 -250 l 257
213 -250 m 257
 0 176 l 257
 0 232 l 257
 241 -250 l 257
 213 -250 l 257
284 -250 m 257
 0 318 l 257
 0 374 l 257
 312 -250 l 257
 284 -250 l 257
355 -250 m 257
 0 460 l 257
 0 516 l 257
 383 -250 l 257
 355 -250 l 257
426 -250 m 257
 0 602 l 257
 0 658 l 257
 454 -250 l 257
 426 -250 l 257
497 -250 m 257
 0 744 l 257
 0 800 l 257
 525 -250 l 257
 497 -250 l 257
575 -250 m 257
 0 900 l 257
 28 900 l 257
 575 -194 l 257
 575 -250 l 257
575 -108 m 257
 71 900 l 257
 99 900 l 257
 575 -52 l 257
 575 -108 l 257
575 34 m 257
 142 900 l 257
 170 900 l 257
 575 90 l 257
 575 34 l 257
575 176 m 257
 213 900 l 257
 241 900 l 257
 575 232 l 257
 575 176 l 257
575 318 m 257
 284 900 l 257
 312 900 l 257
 575 374 l 257
 575 318 l 257
575 460 m 257
 355 900 l 257
 383 900 l 257
 575 516 l 257
 575 460 l 257
575 602 m 257
 426 900 l 257
 454 900 l 257
 575 658 l 257
 575 602 l 257
575 744 m 257
 497 900 l 257
 525 900 l 257
 575 800 l 257
 575 744 l 257
EndSplineSet
PickledDataWithLists: "(dp0
Vcom.schriftgestaltung.Glyphs.lastChange\\u000d
p1
V2016-06-10 08:26:49 +0000\\u000d
p2
s."
EndChar

StartChar: dnblock
Encoding: 9604 9604 194
GlifName: dnblock
Width: 575
VWidth: 0
Flags: HMW
LayerCount: 2
Fore
SplineSet
0 -250 m 257
 0 325 l 257
 575 325 l 257
 575 -250 l 257
 0 -250 l 257
EndSplineSet
PickledDataWithLists: "(dp0
Vcom.schriftgestaltung.Glyphs.lastChange\\u000d
p1
V2016-06-10 08:26:49 +0000\\u000d
p2
s."
EndChar

StartChar: dollar
Encoding: 36 36 195
GlifName: dollar
Width: 575
VWidth: 0
Flags: HMW
LayerCount: 2
Back
SplineSet
507 187 m 256
 507 78 416 10 289 -6 c 257
 263 -175 l 258
 260 -191 251 -200 234 -200 c 258
 199 -200 l 258
 183 -200 175 -192 178 -175 c 258
 204 -10 l 257
 165 -9 99 -7 43 3 c 256
 27 6 22 17 28 33 c 257
 38 59 l 258
 44 75 55 81 71 79 c 257
 130 68 201 67 230 67 c 256
 333 67 421 103 421 177 c 256
 421 229 375 257 291 266 c 256
 160 280 87 315 87 413 c 256
 87 526 172 594 302 607 c 257
 328 775 l 258
 331 792 341 800 357 800 c 258
 392 800 l 258
 408 800 416 792 413 775 c 258
 387 609 l 257
 422 608 468 605 509 598 c 257
 524 594 530 583 523 567 c 258
 512 541 l 258
 506 526 495 520 479 523 c 256
 430 532 366 534 342 534 c 256
 246 534 174 502 174 431 c 256
 174 372 223 352 303 343 c 256
 436 328 507 280 507 187 c 256
EndSplineSet
Fore
SplineSet
300 601 m 17
 327 775 l 258
 329.646444122 792.054862119 340 800 356 800 c 258
 391 800 l 258
 408 800 415 791 412 775 c 258
 385 601 l 257
 300 601 l 17
295 28 m 17
 268 -140 l 258
 265.260742188 -157.041992188 255 -165 239 -165 c 258
 204 -165 l 258
 187 -165 180 -156 183 -140 c 258
 210 28 l 257
 295 28 l 17
515 590 m 2
 501 563 l 2
 494 548 482 543 468 549 c 0
 435 562 399 572 361 572 c 3
 278 572 194 524 194 449 c 3
 194 315.807617188 507 396 507 220 c 3
 507 78 355 -10 201 -10 c 3
 153 -10 107 0 65 20 c 0
 51 26 48 38 57 53 c 2
 72 78 l 2
 80 93 92 98 106 92 c 0
 150.201684494 73.0564209313 192 69 226 69 c 3
 323 69 419 118 419 204 c 3
 419 322.003048752 106 238.919921875 106 431 c 3
 106 561 232 648 373 648 c 3
 416 648 470 639 509 621 c 0
 522 614 522 606 515 590 c 2
EndSplineSet
PickledDataWithLists: "(dp0
Vcom.schriftgestaltung.Glyphs.lastChange\\u000d
p1
V2015-12-22 14:03:19 +0000\\u000d
p2
s."
EndChar

StartChar: dotaccent
Encoding: 729 729 196
GlifName: dotaccent
Width: 575
VWidth: 0
GlyphClass: 2
Flags: HMW
LayerCount: 2
Fore
SplineSet
395 675 m 262
 388 629 l 262
 385 612 376 604 359 604 c 262
 324 604 l 262
 308 604 300 613 303 629 c 262
 310 675 l 262
 313 691 323 700 339 700 c 262
 374 700 l 262
 391 700 398 691 395 675 c 262
EndSplineSet
PickledDataWithLists: "(dp0
Vcom.schriftgestaltung.Glyphs.lastChange\\u000d
p1
V2015-12-22 16:32:41 +0000\\u000d
p2
s."
EndChar

StartChar: dotlessi
Encoding: 305 305 198
GlifName: dotlessi
Width: 575
VWidth: 0
Flags: HMW
AnchorPoint: "mark-top" 327 500 basechar 0
AnchorPoint: "mark-bottom" 248 0 basechar 0
AnchorPoint: "mark-ogonek" 423 25 basechar 0
LayerCount: 2
Back
SplineSet
455 57 m 257
 459 31 l 257
 463 16 455 4 437 0 c 256
 399 -9 368 -10 348 -10 c 256
 262 -10 218 25 218 98 c 256
 218 114 220 131 224 150 c 258
 266 350 l 258
 269 363 270 374 270 384 c 256
 270 417 254 432 215 433 c 256
 199 433 175 432 149 426 c 257
 132 423 123 428 120 443 c 257
 116 469 l 257
 112 484 120 496 138 500 c 256
 176 509 207 510 227 510 c 256
 313 510 357 475 357 402 c 256
 357 386 355 369 351 350 c 258
 309 150 l 258
 306 137 305 126 305 116 c 256
 305 83 321 68 360 67 c 256
 376 67 400 68 426 74 c 257
 443 77 452 72 455 57 c 257
EndSplineSet
Fore
SplineSet
224 150 m 258
 266 350 l 258
 269 363 270 374 270 384 c 259
 270 417 254 432 215 433 c 259
 199 433 180 431 150 426 c 256
 134 423 124 428 121 443 c 258
 117 470 l 258
 115 485 119.159400574 495.248279083 135 499 c 256
 173 508 207 510 227 510 c 259
 313 510 357 475 357 402 c 259
 357 386 355 369 351 350 c 258
 309 150 l 258
 306 137 305 126 305 116 c 259
 305 83 321 68 360 67 c 259
 376 67 395 69 425 74 c 256
 441 77 451 72 454 57 c 258
 458 30 l 258
 460 15 455.840820312 4.751953125 440 1 c 256
 402 -8 368 -10 348 -10 c 259
 262 -10 218 25 218 98 c 259
 218 114 220 131 224 150 c 258
EndSplineSet
PickledDataWithLists: "(dp0
Vcom.schriftgestaltung.Glyphs.lastChange\\u000d
p1
V2016-06-09 18:35:33 +0000\\u000d
p2
s."
EndChar

StartChar: e
Encoding: 101 101 199
GlifName: e
Width: 575
VWidth: 0
Flags: HMW
AnchorPoint: "mark-top" 327 500 basechar 0
AnchorPoint: "mark-bottom" 248 0 basechar 0
AnchorPoint: "mark-ogonek" 429 25 basechar 0
LayerCount: 2
Fore
SplineSet
458 77 m 258
 464 53 l 258
 467 38 462 26 446 20 c 256
 395 0 338 -10 287 -10 c 259
 176 -10 73 45 73 189 c 259
 73 354 183 510 333 510 c 259
 423 510 507 448 507 331 c 259
 507 310 504 292 499 262 c 256
 496 246 486 237 470 237 c 258
 162 237 l 257
 160 223 159 210 159 199 c 259
 159 102 222 68 299 68 c 259
 340 68 380 75 428 91 c 257
 444 97 454 92 458 77 c 258
422 314 m 257
 434 394 374 434 322 434 c 259
 269 434 200 392 181 314 c 257
 422 314 l 257
EndSplineSet
EndChar

StartChar: e.hex
Encoding: 65550 -1 200
GlifName: e.hex
Width: 575
VWidth: 0
Flags: HMW
LayerCount: 2
Fore
SplineSet
214 875 m 258
 214 829 l 258
 214 812 205 804 189 804 c 258
 154 804 l 258
 137 804 129 813 129 829 c 258
 129 875 l 258
 129 891 138 900 154 900 c 258
 189 900 l 258
 205 900 214 891 214 875 c 258
502 875 m 258
 502 829 l 258
 502 812 493 804 477 804 c 258
 442 804 l 258
 425 804 417 813 417 829 c 258
 417 875 l 258
 417 891 426 900 442 900 c 258
 477 900 l 258
 493 900 502 891 502 875 c 258
358 875 m 258
 358 829 l 258
 358 812 349 804 333 804 c 258
 298 804 l 258
 281 804 273 813 273 829 c 258
 273 875 l 258
 273 891 282 900 298 900 c 258
 333 900 l 258
 349 900 358 891 358 875 c 258
EndSplineSet
Refer: 199 101 N 1 0 0 1 0 0 2
PickledDataWithLists: "(dp0
Vcom.schriftgestaltung.Glyphs.lastChange\\u000d
p1
V2016-06-09 18:35:34 +0000\\u000d
p2
s."
EndChar

StartChar: eight
Encoding: 56 56 207
GlifName: eight
Width: 575
VWidth: 0
Flags: HMW
LayerCount: 2
Fore
SplineSet
545 570 m 259
 545 481 472 408 389 359 c 257
 453 321 508 276 508 192 c 259
 508 64 390 -10 247 -10 c 259
 133 -10 41 48 41 142 c 259
 41 235 133 307 229 357 c 257
 172 390 123 433 123 511 c 259
 123 632 233 710 361 710 c 259
 469 710 545 656 545 570 c 259
349 634 m 259
 278 634 210 592 210 528 c 259
 210 474 257 430 330 393 c 257
 393 431 457 498 457 553 c 259
 457 600 414 634 349 634 c 259
128 157 m 259
 128 99 182 67 259 67 c 259
 345 67 422 108 422 183 c 259
 422 251 359 293 290 326 c 257
 210 285 128 229 128 157 c 259
EndSplineSet
PickledDataWithLists: "(dp0
Vcom.schriftgestaltung.Glyphs.lastChange\\u000d
p1
V2015-12-22 20:52:45 +0000\\u000d
p2
s."
EndChar

StartChar: eight.dnom
Encoding: 65551 -1 208
GlifName: eight.dnom
Width: 250
VWidth: 0
Flags: HMW
LayerCount: 2
Fore
SplineSet
264 274 m 257
 258 239 233 207 195 181 c 257
 226 159 253 131 246 85 c 257
 236 22 184 -15 102 -15 c 259
 21 -15 -19 21 -9 84 c 257
 -3 123 26 151 74 179 c 257
 45 198 24 226 32 273 c 257
 41 331 88 365 162 365 c 259
 236 365 273 332 264 274 c 257
153 307 m 259
 120 307 102 295 99 273 c 257
 94 243 115 227 146 209 c 257
 173 230 193 251 197 273 c 257
 200 295 187 307 153 307 c 259
57 88 m 257
 53 59 70 44 111 44 c 259
 154 44 175 59 179 87 c 257
 185 121 158 135 124 151 c 257
 84 131 62 114 57 88 c 257
EndSplineSet
EndChar

StartChar: eight.hex
Encoding: 65552 -1 209
GlifName: eight.hex
Width: 575
VWidth: 0
Flags: HMW
LayerCount: 2
Fore
SplineSet
214 875 m 258
 214 829 l 258
 214 812 205 804 189 804 c 258
 154 804 l 258
 137 804 129 813 129 829 c 258
 129 875 l 258
 129 891 138 900 154 900 c 258
 189 900 l 258
 205 900 214 891 214 875 c 258
EndSplineSet
Refer: 207 56 N 1 0 0 1 0 0 2
PickledDataWithLists: "(dp0
Vcom.schriftgestaltung.Glyphs.lastChange\\u000d
p1
V2016-02-10 13:40:53 +0000\\u000d
p2
s."
EndChar

StartChar: ellipsis
Encoding: 8230 8230 211
GlifName: ellipsis
Width: 575
VWidth: 0
Flags: HMW
LayerCount: 2
Fore
SplineSet
407 99 m 258
 462 99 l 258
 479 99 486 90 483 74 c 258
 475 25 l 258
 472 8 462 0 446 0 c 258
 391 0 l 258
 374 0 367 9 370 25 c 258
 378 74 l 258
 381 91 391 99 407 99 c 258
236 99 m 258
 291 99 l 258
 308 99 315 90 312 74 c 258
 304 25 l 258
 301 8 291 0 275 0 c 258
 220 0 l 258
 203 0 196 9 199 25 c 258
 207 74 l 258
 210 91 220 99 236 99 c 258
65 99 m 258
 120 99 l 258
 137 99 144 90 141 74 c 258
 133 25 l 258
 130 8 120 0 104 0 c 258
 49 0 l 258
 32 0 25 9 28 25 c 258
 36 74 l 258
 39 91 49 99 65 99 c 258
EndSplineSet
PickledDataWithLists: "(dp0
Vcom.schriftgestaltung.Glyphs.lastChange\\u000d
p1
V2015-12-22 13:42:15 +0000\\u000d
p2
s."
EndChar

StartChar: emdash
Encoding: 8212 8212 213
GlifName: emdash
Width: 575
VWidth: 0
Flags: HMW
LayerCount: 2
Fore
SplineSet
8 297 m 258
 12 323 l 258
 15 340 25 349 41 349 c 258
 566 349 l 258
 582 349 590 340 587 324 c 258
 583 297 l 258
 580 281 570 272 554 272 c 258
 29 272 l 258
 13 272 5 281 8 297 c 258
EndSplineSet
PickledDataWithLists: "(dp0
Vcom.schriftgestaltung.Glyphs.lastChange\\u000d
p1
V2016-05-22 17:00:36 +0000\\u000d
p2
s."
EndChar

StartChar: emptyset
Encoding: 8709 8709 214
GlifName: emptyset
Width: 575
VWidth: 0
Flags: HMW
LayerCount: 2
Fore
SplineSet
602 518 m 258
 504 434 l 257
 521 399 527 357 520 312 c 256
 500 186 386 87 262 87 c 259
 216 87 176 100 145 124 c 257
 53 44 l 258
 40 32 28 32 18 44 c 258
 -6 72 l 258
 -15 84 -13 96 -1 107 c 258
 92 187 l 257
 74 222 68 265 75 312 c 256
 95 438 209 537 334 537 c 259
 381 537 421 523 452 498 c 257
 549 581 l 258
 562 593 574 593 584 581 c 258
 607 553 l 258
 617 542 615 530 602 518 c 258
164 249 m 257
 381 436 l 257
 363 446 343 452 320 452 c 259
 243 452 171 390 159 312 c 256
 155 289 157 268 164 249 c 257
432 372 m 257
 217 186 l 257
 234 177 254 173 276 173 c 259
 353 173 424 234 436 312 c 256
 439 334 438 354 432 372 c 257
EndSplineSet
PickledDataWithLists: "(dp0
Vcom.schriftgestaltung.Glyphs.lastChange\\u000d
p1
V2015-12-22 14:07:55 +0000\\u000d
p2
s."
EndChar

StartChar: endash
Encoding: 8211 8211 215
GlifName: endash
Width: 575
VWidth: 0
Flags: HMW
LayerCount: 2
Fore
SplineSet
158 297 m 258
 162 323 l 258
 165 340 175 349 191 349 c 258
 416 349 l 258
 432 349 439 340 437 324 c 258
 433 297 l 258
 431 281 420 272 404 272 c 258
 179 272 l 258
 163 272 156 281 158 297 c 258
EndSplineSet
PickledDataWithLists: "(dp0
Vcom.schriftgestaltung.Glyphs.lastChange\\u000d
p1
V2016-05-22 12:19:24 +0000\\u000d
p2
s."
EndChar

StartChar: epsilon
Encoding: 949 949 217
GlifName: epsilon
Width: 575
VWidth: 0
Flags: HMW
AnchorPoint: "mark-top" 327 500 basechar 0
LayerCount: 2
Fore
SplineSet
460 63 m 258
 463 36 l 257
 463 20 455 8 438 6 c 257
 400 0 350 -3 300 -3 c 256
 144 -3 64 37 64 116 c 256
 64 197 132 240 220 259 c 257
 147 275 112 309 112 360 c 256
 112 473 244 520 383 520 c 256
 433 520 482 517 518 511 c 257
 534 509 539 497 533 481 c 257
 522 454 l 258
 515 439 504 433 489 435 c 257
 465 440 423 443 371 444 c 256
 286 444 199 427 199 373 c 256
 199 335 248 297 348 297 c 256
 364 297 371 288 369 272 c 258
 365 245 l 258
 362 229 352 220 336 220 c 256
 250 220 150 185 150 130 c 256
 150 93 205 73 312 73 c 256
 365 74 407 77 433 82 c 257
 449 84 458 78 460 63 c 258
EndSplineSet
PickledDataWithLists: "(dp0
Vcom.schriftgestaltung.Glyphs.lastChange\\u000d
p1
V2016-05-30 08:32:45 +0000\\u000d
p2
s."
EndChar

StartChar: equal
Encoding: 61 61 218
GlifName: equal
Width: 575
VWidth: 0
Flags: HMW
LayerCount: 2
Fore
SplineSet
98 387 m 258
 81 387 74 396 77 412 c 258
 81 439 l 258
 84 456 94 464 110 464 c 258
 533 464 l 258
 550 464 557 455 554 439 c 258
 550 412 l 258
 547 395 537 387 521 387 c 258
 98 387 l 258
62 157 m 262
 45 157 38 166 41 182 c 258
 45 209 l 258
 48 226 58 234 74 234 c 258
 497 234 l 258
 514 234 521 225 518 209 c 258
 514 182 l 258
 511 165 501 157 485 157 c 258
 62 157 l 262
EndSplineSet
PickledDataWithLists: "(dp0
Vcom.schriftgestaltung.Glyphs.lastChange\\u000d
p1
V2015-12-22 14:08:13 +0000\\u000d
p2
s."
EndChar

StartChar: equivalence
Encoding: 8801 8801 219
GlifName: equivalence
Width: 575
Flags: HMW
LayerCount: 2
Fore
SplineSet
105 474 m 2
 110 501 l 2
 110.666992188 509 113.666992188 515.166992188 119 519.5 c 128
 124.333007812 523.833007812 131 526 139 526 c 2
 524 526 l 2
 540 526 547 517.666992188 545 501 c 2
 540 474 l 2
 538 457.333007812 528.333007812 449 511 449 c 2
 126 449 l 2
 110 449 103 457.333007812 105 474 c 2
80.5 278.5 m 128
 76.8330078125 282.833007812 75.6669921875 289 77 297 c 2
 81 324 l 2
 84.3330078125 340.666992188 94 349 110 349 c 2
 495 349 l 2
 512.333007812 349 519.333007812 340.666992188 516 324 c 2
 512 297 l 2
 508.666992188 280.333007812 499 272 483 272 c 2
 98 272 l 2
 90 272 84.1669921875 274.166992188 80.5 278.5 c 128
48 120 m 2
 53 147 l 2
 53.6669921875 155 56.6669921875 161.166992188 62 165.5 c 128
 67.3330078125 169.833007812 74 172 82 172 c 2
 467 172 l 2
 483 172 490 163.666992188 488 147 c 2
 483 120 l 2
 481 103.333007812 471.333007812 95 454 95 c 2
 69 95 l 2
 53 95 46 103.333007812 48 120 c 2
EndSplineSet
PickledDataWithLists: "(dp0
Vcom.schriftgestaltung.Glyphs.lastChange\\u000d
p1
V2015-12-22 14:08:32 +0000\\u000d
p2
s."
EndChar

StartChar: eta
Encoding: 951 951 220
GlifName: eta
Width: 575
VWidth: 0
Flags: HMW
AnchorPoint: "mark-top" 327 500 basechar 0
LayerCount: 2
Fore
SplineSet
49 25 m 258
 120 471 l 258
 122 486 132 495 147 498 c 256
 222 509 286 510 319 510 c 256
 445 510 504 469 504 366 c 256
 504 349 502 329 499 308 c 258
 415 -225 l 258
 412 -241 403 -250 386 -250 c 258
 351 -250 l 258
 335 -250 327 -241 330 -225 c 258
 414 308 l 258
 416 323 418 336 418 348 c 256
 418 411 384 434 307 434 c 256
 283 434 244 433 199 430 c 257
 134 25 l 258
 132 9 122 0 105 0 c 258
 70 0 l 258
 54 0 47 9 49 25 c 258
EndSplineSet
PickledDataWithLists: "(dp0
Vcom.schriftgestaltung.Glyphs.lastChange\\u000d
p1
V2016-05-30 08:32:52 +0000\\u000d
p2
s."
EndChar

StartChar: eth
Encoding: 240 240 221
GlifName: eth
Width: 575
VWidth: 0
Flags: HMW
LayerCount: 2
Fore
SplineSet
591 623 m 257
 596 598 l 258
 599 583 592 571 576 566 c 258
 521 547 l 257
 533 507 539 462 539 412 c 256
 539 198 456 -10 251 -10 c 256
 149 -10 69 52 69 166 c 256
 69 310 182 429 318 429 c 256
 360 429 404 419 452 382 c 257
 456 440 452 485 443 520 c 257
 334 483 l 257
 318 477 308 483 304 498 c 257
 300 522 l 257
 297 538 304 550 319 555 c 258
 411 586 l 257
 388 614 358 627 327 631 c 257
 312 632 305 640 307 656 c 258
 313 685 l 258
 316 702 327 710 343 709 c 257
 408 702 458 668 492 614 c 257
 561 638 l 258
 577 644 587 638 591 623 c 257
156 175 m 256
 156 99 204 68 260 68 c 256
 337 68 418 134 443 297 c 257
 390 349 338 351 310 351 c 256
 218 351 156 271 156 175 c 256
EndSplineSet
PickledDataWithLists: "(dp0
Vcom.schriftgestaltung.Glyphs.lastChange\\u000d
p1
V2016-06-09 18:35:33 +0000\\u000d
p2
s."
EndChar

StartChar: exclam
Encoding: 33 33 222
GlifName: exclam
Width: 575
VWidth: 0
Flags: HMW
LayerCount: 2
Fore
SplineSet
331 700 m 258
 386 700 l 258
 403 700 411 691 407 675 c 258
 322 230 l 258
 318 214 308 205 292 205 c 258
 269 205 l 258
 252 205 245 213 248 230 c 258
 302 675 l 258
 305 692 315 700 331 700 c 258
302 72 m 258
 295 25 l 258
 292 8 282 0 266 0 c 258
 231 0 l 258
 214 0 207 9 210 25 c 258
 217 72 l 258
 220 89 230 97 246 97 c 258
 281 97 l 258
 298 97 305 88 302 72 c 258
EndSplineSet
PickledDataWithLists: "(dp0
Vcom.schriftgestaltung.Glyphs.lastChange\\u000d
p1
V2016-02-14 11:57:10 +0000\\u000d
p2
s."
EndChar

StartChar: f
Encoding: 102 102 225
GlifName: f
Width: 575
VWidth: 0
Flags: HMW
LayerCount: 2
Fore
SplineSet
570 711 m 258
 555 685 l 258
 546 670 534 665 520 671 c 256
 494 681 472 685 447 685 c 259
 389 685 346 657 329 549 c 258
 322 500 l 257
 485 500 l 258
 501 500 508 491 506 475 c 258
 502 449 l 258
 499 433 489 424 473 424 c 258
 309 424 l 257
 241 0 l 257
 223 -119 192 -162 87 -218 c 256
 72 -226 59 -223 53 -209 c 258
 41 -179 l 258
 34 -164 40 -152 56 -144 c 256
 123 -108 144 -79 156 0 c 257
 224 424 l 257
 128 424 l 258
 112 424 104 432 107 449 c 258
 111 475 l 258
 113 491 124 500 140 500 c 258
 236 500 l 257
 243 549 l 258
 269 710 364 763 459 763 c 259
 494 763 530 755 561 743 c 256
 576 738 578 726 570 711 c 258
EndSplineSet
PickledDataWithLists: "(dp0
Vcom.schriftgestaltung.Glyphs.lastChange\\u000d
p1
V2016-06-09 18:35:33 +0000\\u000d
p2
s."
EndChar

StartChar: f.hex
Encoding: 65557 -1 226
GlifName: f.hex
Width: 575
VWidth: 0
Flags: HMW
LayerCount: 2
Fore
SplineSet
214 875 m 258
 214 829 l 258
 214 812 205 804 189 804 c 258
 154 804 l 258
 137 804 129 813 129 829 c 258
 129 875 l 258
 129 891 138 900 154 900 c 258
 189 900 l 258
 205 900 214 891 214 875 c 258
502 875 m 258
 502 829 l 258
 502 812 493 804 477 804 c 258
 442 804 l 258
 425 804 417 813 417 829 c 258
 417 875 l 258
 417 891 426 900 442 900 c 258
 477 900 l 258
 493 900 502 891 502 875 c 258
358 875 m 258
 358 829 l 258
 358 812 349 804 333 804 c 258
 298 804 l 258
 281 804 273 813 273 829 c 258
 273 875 l 258
 273 891 282 900 298 900 c 258
 333 900 l 258
 349 900 358 891 358 875 c 258
646 875 m 258
 646 829 l 258
 646 812 637 804 621 804 c 258
 586 804 l 258
 569 804 561 813 561 829 c 258
 561 875 l 258
 561 891 570 900 586 900 c 258
 621 900 l 258
 637 900 646 891 646 875 c 258
EndSplineSet
Refer: 225 102 N 1 0 0 1 0 0 2
PickledDataWithLists: "(dp0
Vcom.schriftgestaltung.Glyphs.lastChange\\u000d
p1
V2016-06-09 18:35:34 +0000\\u000d
p2
s."
EndChar

StartChar: five
Encoding: 53 53 227
GlifName: five
Width: 575
VWidth: 0
Flags: HMW
LayerCount: 2
Fore
SplineSet
239 431 m 257
 292 431 l 258
 424 431 491 375 491 254 c 259
 491 88 387 -10 205 -10 c 259
 163 -10 131 -8 86 4 c 272
 71 8 68 20 74 35 c 258
 86 63 l 258
 93 78 105 83 120 79 c 264
 157 69 181 68 217 68 c 259
 339 68 404 135 404 236 c 259
 404 318 361 354 279 354 c 258
 215 354 l 259
 195 354 167 361 167 361 c 258
 151 364 145 373 149 389 c 258
 217 677 l 258
 220 692 231 700 247 700 c 258
 502 700 l 258
 519 700 526 692 523 675 c 258
 519 649 l 258
 517 633 507 624 490 624 c 258
 284 624 l 257
 239 431 l 257
EndSplineSet
PickledDataWithLists: "(dp0
Vcom.schriftgestaltung.Glyphs.lastChange\\u000d
p1
V2015-12-22 20:52:19 +0000\\u000d
p2
s."
EndChar

StartChar: five.dnom
Encoding: 65558 -1 228
GlifName: five.dnom
Width: 250
VWidth: 0
Flags: HMW
LayerCount: 2
Fore
SplineSet
101 216 m 257
 122 216 l 258
 206 216 247 174 235 101 c 256
 224 27 168 -15 81 -15 c 256
 59 -15 37 -13 19 -8 c 256
 6 -4 1 9 6 21 c 258
 12 35 l 258
 17 45 33 53 45 50 c 256
 59 46 73 44 90 44 c 256
 137 44 162 63 168 101 c 256
 174 139 156 157 112 157 c 258
 80 157 l 258
 70 157 62 162 58 167 c 257
 40 191 l 257
 34 198 32 206 35 215 c 258
 72 340 l 258
 76 352 90 360 101 360 c 258
 238 360 l 258
 252 360 261 350 259 338 c 258
 257 325 l 258
 255 314 244 302 229 302 c 258
 128 302 l 257
 101 216 l 257
EndSplineSet
EndChar

StartChar: five.hex
Encoding: 65559 -1 229
GlifName: five.hex
Width: 575
VWidth: 0
Flags: HMW
LayerCount: 2
Fore
SplineSet
358 875 m 258
 358 829 l 258
 358 812 349 804 333 804 c 258
 298 804 l 258
 281 804 273 813 273 829 c 258
 273 875 l 258
 273 891 282 900 298 900 c 258
 333 900 l 258
 349 900 358 891 358 875 c 258
646 875 m 258
 646 829 l 258
 646 812 637 804 621 804 c 258
 586 804 l 258
 569 804 561 813 561 829 c 258
 561 875 l 258
 561 891 570 900 586 900 c 258
 621 900 l 258
 637 900 646 891 646 875 c 258
EndSplineSet
Refer: 227 53 N 1 0 0 1 0 0 2
PickledDataWithLists: "(dp0
Vcom.schriftgestaltung.Glyphs.lastChange\\u000d
p1
V2016-02-10 13:20:16 +0000\\u000d
p2
s."
EndChar

StartChar: florin
Encoding: 402 402 232
GlifName: florin
Width: 575
VWidth: 0
Flags: HMW
LayerCount: 2
Fore
SplineSet
536 719 m 258
 525 693 l 258
 519 678 507 672 492 674 c 256
 447 682 409 684 388 684 c 256
 328 684 304 665 292 599 c 258
 275 500 l 257
 439 500 l 258
 455 500 462 491 459 475 c 258
 455 449 l 258
 452 433 442 424 425 424 c 258
 261 424 l 257
 173 -75 l 258
 171 -92 160 -100 144 -100 c 258
 109 -100 l 258
 93 -100 86 -92 88 -75 c 258
 176 424 l 257
 81 424 l 258
 65 424 57 432 60 449 c 258
 65 475 l 258
 68 491 78 500 94 500 c 258
 190 500 l 257
 207 599 l 258
 227 716 285 760 401 760 c 256
 429 760 473 758 522 749 c 256
 538 746 543 736 536 719 c 258
EndSplineSet
PickledDataWithLists: "(dp0
Vcom.schriftgestaltung.Glyphs.lastChange\\u000d
p1
V2015-12-22 12:14:05 +0000\\u000d
p2
s."
EndChar

StartChar: four
Encoding: 52 52 233
GlifName: four
Width: 575
VWidth: 0
Flags: HMW
LayerCount: 2
Fore
SplineSet
426 221 m 257
 480 221 l 258
 497 221 504 212 501 196 c 258
 497 170 l 258
 494 153 484 145 468 145 c 258
 413 145 l 257
 394 25 l 258
 391 8 381 0 365 0 c 258
 330 0 l 258
 313 0 307 9 310 25 c 258
 329 145 l 257
 80 145 l 258
 63 145 57 153 60 169 c 258
 67 209 l 257
 68 221 72 230 78 240 c 258
 366 677 l 258
 376 694 386 700 406 700 c 258
 442 700 l 258
 462 700 468 688 457 670 c 258
 160 221 l 257
 341 221 l 257
 368 392 l 258
 371 409 381 417 397 417 c 258
 432 417 l 258
 449 417 456 408 453 392 c 258
 426 221 l 257
EndSplineSet
PickledDataWithLists: "(dp0
Vcom.schriftgestaltung.Glyphs.lastChange\\u000d
p1
V2015-12-22 20:52:10 +0000\\u000d
p2
s."
EndChar

StartChar: four.dnom
Encoding: 65561 -1 234
GlifName: four.dnom
Width: 250
VWidth: 0
Flags: HMW
LayerCount: 2
Fore
SplineSet
208 121 m 257
 223 121 l 257
 237 121 245 109 243 98 c 257
 241 85 l 257
 239 73 227 63 213 63 c 257
 197 63 l 257
 189 13 l 257
 188 2 176 -10 162 -10 c 257
 144 -10 l 257
 129 -10 122 2 123 13 c 257
 131 63 l 257
 19 63 l 257
 6 63 -3 73 -1 85 c 257
 2 105 l 257
 3 112 5 118 9 124 c 257
 9 124 l 257
 153 343 l 257
 160 353 172 360 185 360 c 257
 203 360 l 257
 220 360 228 344 218 331 c 257
 81 121 l 257
 141 121 l 257
 152 196 l 257
 154 208 168 219 181 219 c 257
 198 219 l 257
 212 219 221 208 219 196 c 257
 208 121 l 257
EndSplineSet
EndChar

StartChar: four.hex
Encoding: 65562 -1 235
GlifName: four.hex
Width: 575
VWidth: 0
Flags: HMW
LayerCount: 2
Fore
SplineSet
358 875 m 258
 358 829 l 258
 358 812 349 804 333 804 c 258
 298 804 l 258
 281 804 273 813 273 829 c 258
 273 875 l 258
 273 891 282 900 298 900 c 258
 333 900 l 258
 349 900 358 891 358 875 c 258
EndSplineSet
Refer: 233 52 N 1 0 0 1 0 0 2
PickledDataWithLists: "(dp0
Vcom.schriftgestaltung.Glyphs.lastChange\\u000d
p1
V2016-02-10 13:19:53 +0000\\u000d
p2
s."
EndChar

StartChar: g
Encoding: 103 103 238
GlifName: g
Width: 575
VWidth: 0
Flags: HMW
AnchorPoint: "mark-top" 327 500 basechar 0
LayerCount: 2
Fore
SplineSet
359 -39 m 257
 375 63 l 257
 322 15 263 -10 212 -10 c 259
 136 -10 77 46 77 190 c 259
 77 380 157 510 357 510 c 259
 386 510 440 508 501 500 c 257
 517 497 524 487 522 471 c 257
 443 -38 l 257
 415 -212 330 -250 221 -250 c 259
 173 -250 122 -242 68 -236 c 256
 51 -234 48 -225 52 -207 c 258
 57 -181 l 258
 60 -166 72 -158 88 -160 c 256
 140 -168 185 -175 222 -175 c 259
 296 -175 342 -147 359 -39 c 257
388 151 m 257
 433 430 l 257
 395 433 363 434 345 434 c 259
 209 434 163 336 163 205 c 259
 163 104 195 66 242 66 c 259
 283 66 336 95 388 151 c 257
EndSplineSet
EndChar

StartChar: gamma
Encoding: 947 947 239
GlifName: gamma
Width: 575
VWidth: 0
Flags: HMW
AnchorPoint: "mark-top" 327 500 basechar 0
LayerCount: 2
Fore
SplineSet
101 472 m 258
 99 489 110 500 127 500 c 258
 163 500 l 258
 178 500 185 493 187 479 c 258
 225 63 l 257
 256 63 l 258
 277 63 293 74 300 93 c 258
 458 479 l 258
 463 493 474 500 489 500 c 258
 525 500 l 258
 543 500 549 490 542 472 c 258
 382 80 l 258
 358 22 310 -10 245 -10 c 258
 232 -10 l 257
 239 -78 237 -158 230 -225 c 256
 227 -241 217 -250 201 -250 c 258
 173 -250 l 258
 157 -250 150 -242 152 -226 c 256
 155 -178 153 -103 146 -21 c 258
 101 472 l 258
EndSplineSet
PickledDataWithLists: "(dp0
Vcom.schriftgestaltung.Glyphs.lastChange\\u000d
p1
V2016-05-30 08:32:29 +0000\\u000d
p2
s."
EndChar

StartChar: germandbls
Encoding: 223 223 241
GlifName: germandbls
Width: 510
VWidth: 0
Flags: HW
LayerCount: 2
Back
SplineSet
234 545 m 258
 164 95 l 258
 162 82 161 71 161 61 c 259
 161 28 184 13 223 12 c 256
 239 12 264 14 294 19 c 256
 310 22 320 17 323 2 c 258
 327 -25 l 258
 329 -40 324.840820312 -50.248046875 309 -54 c 256
 271 -63 231 -65 211 -65 c 259
 125 -65 74 -30 74 43 c 259
 74 59 76 76 79 95 c 258
 149 545 l 258
 151 558 152 569 152 579 c 259
 152 612 129 627 90 628 c 256
 74 628 49 626 19 621 c 256
 3 618 -7 623 -10 638 c 258
 -14 665 l 258
 -16 680 -11.8408203125 690.248046875 4 694 c 256
 42 703 82 705 102 705 c 259
 188 705 239 670 239 597 c 259
 239 581 237 564 234 545 c 258
226 494 m 258
 151 25 l 258
 149 9 139 0 122 0 c 258
 87 0 l 258
 71 0 64 9 66 25 c 258
 141 494 l 258
 162 631 241 700 365 700 c 259
 468 700 522 656 522 575 c 259
 522 466.99537047 421 416.041992188 421 368 c 259
 421 324.895507812 506 274.005859375 506 188 c 263
 506 56 393 8 251 1 c 256
 233 0 226 9 229 26 c 258
 233 52 l 258
 235 68 245 76 262 78 c 256
 355 84 425 101 425 181 c 263
 425 239.077148438 334 285.166992188 334 352 c 259
 334 431.247070312 440 482.992754004 440 552 c 259
 440 599 410 624 353 624 c 259
 284 624 239 581 226 494 c 258
EndSplineSet
Fore
SplineSet
510 607 m 259xbc
 510 489.905273438 387 428.71875 387 364 c 259
 387 299.140625 506 316.047851562 506 180 c 259xba
 506 65.9296875 407 -10 302 -10 c 259
 274 -10 266 -8 232 1 c 256x7a
 219 5 214 15 220 31 c 258
 229 57 l 258
 234 73 245 81 258 77 c 256
 280 71 294 67 314 67 c 259xba
 367 67 421 114.446289062 421 173 c 259
 421 267.153320312 302 246.352539062 302 364 c 259
 302 465.98828125 430 516.388671875 430 593 c 259xbc
 430 645.611328125 406 684 350 684 c 259
 291 684 249 641 235 554 c 258
 152 25 l 258
 149 9 140 0 126 0 c 258
 78 0 l 258
 64 0 64 9 67 25 c 258
 150 554 l 258
 172 691 254 760 362 760 c 259
 465 760 510 695.202148438 510 607 c 259xbc
EndSplineSet
PickledDataWithLists: "(dp0
Vcom.schriftgestaltung.Glyphs.lastChange\\u000d
p1
V2016-06-09 18:35:34 +0000\\u000d
p2
s."
EndChar

StartChar: grave
Encoding: 96 96 242
GlifName: grave
Width: 575
VWidth: 0
GlyphClass: 2
Flags: HMW
LayerCount: 2
Fore
SplineSet
440 595 m 258
 454 588 456 577 448 562 c 257
 437 544 l 257
 426 530 415 526 402 531 c 258
 191 606 l 258
 176 611 173 623 182 638 c 258
 212 684 l 258
 220 699 233 703 247 696 c 258
 440 595 l 258
EndSplineSet
PickledDataWithLists: "(dp0
Vcom.schriftgestaltung.Glyphs.lastChange\\u000d
p1
V2015-12-22 16:32:42 +0000\\u000d
p2
s."
EndChar

StartChar: greater
Encoding: 62 62 243
GlifName: greater
Width: 575
VWidth: 0
Flags: HMW
LayerCount: 2
Fore
SplineSet
194 623 m 258
 481 379 l 258
 504 360 515 335 511 311 c 256
 507 287 488 262 459 243 c 258
 97 -1 l 258
 83 -10 69 -10 61 3 c 258
 46 26 l 258
 38 39 41 51 55 61 c 258
 427 311 l 257
 135 561 l 258
 123 571 124 583 136 596 c 258
 159 619 l 258
 171 632 184 632 194 623 c 258
EndSplineSet
PickledDataWithLists: "(dp0
Vcom.schriftgestaltung.Glyphs.lastChange\\u000d
p1
V2016-06-09 12:12:14 +0000\\u000d
p2
s."
EndChar

StartChar: greaterequal
Encoding: 8805 8805 244
GlifName: greaterequal
Width: 575
VWidth: 0
Flags: HMW
LayerCount: 2
Fore
SplineSet
15 25 m 258
 20 52 l 258
 22 68 33 77 49 77 c 258
 472 77 l 258
 489 77 495 68 493 52 c 258
 488 25 l 258
 486 9 476 0 459 0 c 258
 36 0 l 258
 20 0 13 9 15 25 c 258
176 645 m 258
 493 473 l 258
 533 451 548 425 544 400 c 256
 540 373 513 347 470 328 c 258
 98 155 l 258
 83 148 71 152 67 166 c 258
 56 190 l 258
 51 205 57 217 72 224 c 258
 452 400 l 257
 128 576 l 258
 115 584 113 596 123 610 c 258
 141 635 l 258
 150 649 163 652 176 645 c 258
EndSplineSet
PickledDataWithLists: "(dp0
Vcom.schriftgestaltung.Glyphs.lastChange\\u000d
p1
V2015-12-22 14:10:07 +0000\\u000d
p2
s."
EndChar

StartChar: guillemotleft
Encoding: 171 171 245
GlifName: guillemotleft
Width: 575
VWidth: 0
Flags: HMW
LayerCount: 2
Fore
SplineSet
114 311 m 257
 271 124 l 258
 281 113 279 100 265 89 c 258
 239 68 l 258
 225 58 213 58 203 69 c 258
 55 246 l 258
 39 265 26 284 30 311 c 256
 34 338 53 358 75 377 c 258
 279 553 l 258
 293 565 305 565 315 554 c 258
 335 534 l 258
 346 523 344 510 331 498 c 258
 114 311 l 257
350 311 m 257
 507 124 l 258
 518 113 516 100 501 89 c 258
 475 68 l 258
 461 58 449 58 440 69 c 258
 291 246 l 258
 275 265 262 284 266 311 c 256
 270 338 289 358 311 377 c 258
 516 553 l 258
 529 565 541 565 551 554 c 258
 571 534 l 258
 583 523 581 510 567 498 c 258
 350 311 l 257
EndSplineSet
PickledDataWithLists: "(dp0
Vcom.schriftgestaltung.Glyphs.lastChange\\u000d
p1
V2015-12-22 13:55:11 +0000\\u000d
p2
s."
EndChar

StartChar: guilsinglleft
Encoding: 8249 8249 247
GlifName: guilsinglleft
Width: 575
VWidth: 0
Flags: HMW
LayerCount: 2
Fore
SplineSet
243 311 m 257
 400 124 l 258
 411 113 409 100 394 89 c 258
 368 68 l 258
 354 58 342 58 333 69 c 258
 184 246 l 258
 167 267 158 285 158 303 c 256
 158 328 174 351 204 377 c 258
 409 553 l 258
 422 565 434 565 444 554 c 258
 464 534 l 258
 476 523 474 510 460 498 c 258
 243 311 l 257
EndSplineSet
PickledDataWithLists: "(dp0
Vcom.schriftgestaltung.Glyphs.lastChange\\u000d
p1
V2015-12-22 13:57:17 +0000\\u000d
p2
s."
EndChar

StartChar: h
Encoding: 104 104 249
GlifName: h
Width: 575
VWidth: 0
Flags: HMW
AnchorPoint: "mark-bottom" 248 0 basechar 0
LayerCount: 2
Fore
SplineSet
249 725 m 258
 204 437 l 257
 256 485 311 510 372 510 c 259
 439 510 497 481 497 359 c 259
 497 336 495 309 490 278 c 258
 450 25 l 258
 448 9 438 0 421 0 c 258
 386 0 l 258
 370 0 363 9 365 25 c 258
 405 278 l 258
 409 304 411 326 411 344 c 259
 411 421 381 434 343 434 c 259
 291 434 243 405 190 349 c 257
 138 25 l 258
 136 9 125 0 109 0 c 258
 74 0 l 258
 58 0 51 9 53 25 c 258
 163 720 l 258
 166 736 175 750 191 750 c 258
 228 750 l 258
 244 750 252 741 249 725 c 258
EndSplineSet
PickledDataWithLists: "(dp0
Vcom.schriftgestaltung.Glyphs.lastChange\\u000d
p1
V2016-06-09 18:35:33 +0000\\u000d
p2
s."
EndChar

StartChar: heart
Encoding: 9829 9829 251
GlifName: heart
Width: 575
VWidth: 0
Flags: HMW
LayerCount: 2
Fore
SplineSet
175 530 m 256
 226 530 268 499 288 460 c 257
 308 499 351 530 400 530 c 256
 481 530 540 457 540 373 c 256
 540 251 445 120 288 -20 c 257
 126 124 36 255 36 373 c 256
 36 462 96 530 175 530 c 256
EndSplineSet
PickledDataWithLists: "(dp0
Vcom.schriftgestaltung.Glyphs.lastChange\\u000d
p1
V2016-06-10 08:28:00 +0000\\u000d
p2
s."
Comment: "+AAoA    heart+AAoA  "
EndChar

StartChar: hungarumlaut
Encoding: 733 733 252
GlifName: hungarumlaut
Width: 575
VWidth: 0
GlyphClass: 2
Flags: HMW
LayerCount: 2
Fore
SplineSet
329 691 m 258
 356 659 l 258
 365 648 363 635 349 624 c 258
 232 532 l 258
 218 521 206 522 197 533 c 258
 180 553 l 258
 171 564 173 576 186 588 c 258
 294 690 l 258
 307 702 319 703 329 691 c 258
558 691 m 258
 584 659 l 258
 594 648 591 635 577 624 c 258
 461 532 l 258
 447 521 435 522 426 533 c 258
 409 553 l 258
 400 564 401 576 414 588 c 258
 523 690 l 258
 536 702 548 703 558 691 c 258
EndSplineSet
PickledDataWithLists: "(dp0
Vcom.schriftgestaltung.Glyphs.lastChange\\u000d
p1
V2015-12-22 16:32:42 +0000\\u000d
p2
s."
EndChar

StartChar: hyphen
Encoding: 45 45 253
GlifName: hyphen
Width: 575
VWidth: 0
Flags: HMW
LayerCount: 2
Fore
SplineSet
80 272 m 262
 63 272 56 281 59 297 c 262
 63 324 l 262
 66 341 76 349 92 349 c 262
 515 349 l 262
 532 349 539 340 536 324 c 262
 532 297 l 262
 529 280 519 272 503 272 c 262
 80 272 l 262
EndSplineSet
PickledDataWithLists: "(dp0
Vcom.schriftgestaltung.Glyphs.lastChange\\u000d
p1
V2015-12-22 16:32:53 +0000\\u000d
p2
s."
EndChar

StartChar: ij
Encoding: 307 307 259
GlifName: ij
Width: 575
VWidth: 0
Flags: HMW
LayerCount: 2
Fore
SplineSet
319 654 m 258
 284 654 l 258
 268 654 260 663 263 679 c 258
 270 725 l 258
 273 741 283 750 299 750 c 258
 334 750 l 258
 351 750 358 741 355 725 c 258
 348 679 l 258
 345 662 336 654 319 654 c 258
509 750 m 258
 544 750 l 258
 560 750 568 742 565 725 c 258
 558 679 l 258
 555 663 546 654 529 654 c 258
 494 654 l 258
 478 654 470 663 473 679 c 258
 480 725 l 258
 483 741 493 750 509 750 c 258
155 500 m 258
 510 500 l 258
 523 500 528 491 526 475 c 258
 454 24 l 258
 425 -163 324 -248 140 -248 c 256
 112 -248 71 -246 24 -237 c 256
 8 -234 3 -223 10 -207 c 258
 21 -181 l 258
 27 -165 38 -159 54 -162 c 256
 95 -170 130 -171 152 -171 c 256
 286 -171 348 -107 369 24 c 258
 433 424 l 257
 308 424 l 257
 244 25 l 258
 242 9 232 0 215 0 c 258
 180 0 l 258
 164 0 157 9 159 25 c 258
 223 424 l 257
 143 424 l 258
 127 424 119 433 122 449 c 258
 126 475 l 258
 128 492 139 500 155 500 c 258
EndSplineSet
PickledDataWithLists: "(dp0
Vcom.schriftgestaltung.Glyphs.lastChange\\u000d
p1
V2016-06-09 18:35:33 +0000\\u000d
p2
s."
EndChar

StartChar: infinity
Encoding: 8734 8734 261
GlifName: infinity
Width: 575
VWidth: 0
Flags: HMW
LayerCount: 2
Fore
SplineSet
190 470 m 259
 239 470 276 440 302 382 c 257
 338 431 381 475 444 475 c 259
 509 475 546 430 546 356 c 259
 546 255 483 157 398 157 c 259
 350 157 312 190 284 254 c 257
 243 190 201 162 146 162 c 259
 86 162 50 206 50 277 c 259
 50 376 106 470 190 470 c 259
121 280 m 259
 121 246 133 229 157 229 c 259
 192 229 228 262 265 329 c 257
 247 374 214 402 182 402 c 259
 136 402 121 329 121 280 c 259
402 224 m 259
 455 224 475 295 475 351 c 259
 475 384 464 408 431 408 c 259
 394 408 360 377 319 309 c 257
 344 251 369 224 402 224 c 259
EndSplineSet
PickledDataWithLists: "(dp0
Vcom.schriftgestaltung.Glyphs.lastChange\\u000d
p1
V2015-12-22 14:13:58 +0000\\u000d
p2
s."
EndChar

StartChar: integral
Encoding: 8747 8747 262
GlifName: integral
Width: 575
VWidth: 0
Flags: HMW
LayerCount: 2
Fore
SplineSet
15 -150 m 256
 -1 -147 -5 -135 3 -119 c 258
 16 -93 l 257
 23 -78 35 -73 49 -77 c 256
 73 -82 97 -84 114 -84 c 256
 173 -83 196 -60 205 -1 c 258
 285 501 l 258
 302 613 363 660 474 660 c 256
 494 660 525 659 560 650 c 256
 577 647 581 635 572 619 c 258
 560 593 l 257
 552 578 541 573 526 577 c 256
 502 582 478 584 462 584 c 256
 402 583 379 560 370 501 c 258
 290 -1 l 258
 273 -113 213 -160 102 -160 c 256
 82 -160 50 -159 15 -150 c 256
EndSplineSet
PickledDataWithLists: "(dp0
Vcom.schriftgestaltung.Glyphs.lastChange\\u000d
p1
V2015-12-22 14:14:22 +0000\\u000d
p2
s."
EndChar

StartChar: iota
Encoding: 953 953 264
GlifName: iota
Width: 575
VWidth: 0
Flags: HMW
AnchorPoint: "mark-top" 258 500 basechar 0
LayerCount: 2
Fore
SplineSet
405 57 m 257
 409 31 l 258
 413 16 405 4 387 0 c 256
 349 -9 318 -10 298 -10 c 256
 184 -10 142 40 159 150 c 257
 211 475 l 258
 214 492 224 500 240 500 c 258
 275 500 l 258
 292 500 299 491 296 475 c 258
 244 150 l 258
 235 91 250 68 310 67 c 256
 326 67 350 68 376 74 c 256
 393 77 402 72 405 57 c 257
EndSplineSet
PickledDataWithLists: "(dp0
Vcom.schriftgestaltung.Glyphs.lastChange\\u000d
p1
V2015-12-22 12:32:48 +0000\\u000d
p2
s."
EndChar

StartChar: k
Encoding: 107 107 267
GlifName: k
Width: 575
VWidth: 0
Flags: HMW
AnchorPoint: "mark-bottom" 248 0 basechar 0
LayerCount: 2
Back
SplineSet
360 510 m 259
 452 510 487 465 478 407 c 256
 468 346 414 271 322 220 c 257
 467 31 l 257
 481 15 472 0 449 0 c 258
 391 0 l 258
 378 0 370 4 362 13 c 257
 219 203 l 257
 208 215 213 228 229 238 c 256
 324 295 379 355 384 392 c 257
 389 421 366 433 331 433 c 259
 290 433 238 417 197 396 c 257
 138 25 l 258
 136 9 125 0 109 0 c 258
 74 0 l 258
 58 0 51 9 53 25 c 258
 164 725 l 258
 167 741 177 750 193 750 c 258
 228 750 l 258
 244 750 252 741 249 725 c 258
 208 466 l 257
 256 494 310 510 360 510 c 259
EndSplineSet
Fore
SplineSet
360 510 m 259
 452 510 487 465 478 407 c 256
 468 346 414 271 322 220 c 257
 467 31 l 258
 480 15 472 0 449 0 c 258
 391 0 l 258
 378 0 370 4 362 13 c 258
 219 203 l 257
 208 215 213 228 229 238 c 256
 324 295 377.021410534 351.598276162 384 392 c 256
 389.00926556 421.000554452 366 433 331 433 c 259
 290 433 238 417 197 396 c 257
 138 25 l 258
 136 9 125 0 109 0 c 258
 74 0 l 258
 58 0 51 9 53 25 c 258
 164 725 l 258
 167 741 177 750 193 750 c 258
 228 750 l 258
 244 750 252 741 249 725 c 258
 208 466 l 257
 256 494 310 510 360 510 c 259
EndSplineSet
EndChar

StartChar: kappa
Encoding: 954 954 268
GlifName: kappa
Width: 575
VWidth: 0
Flags: HMW
AnchorPoint: "mark-top" 327 500 basechar 0
LayerCount: 2
Fore
SplineSet
297 233 m 258
 467 31 l 258
 481 15 472 0 449 0 c 258
 391 0 l 258
 378 0 370 4 362 13 c 258
 194 214 l 258
 183 228 173 236 168 236 c 257
 134 25 l 258
 132 9 121 0 105 0 c 258
 70 0 l 258
 54 0 47 9 49 25 c 258
 121 476 l 258
 123 492 134 501 150 501 c 258
 185 501 l 258
 201 501 208 492 206 476 c 258
 176 285 l 257
 181 285 193 293 209 307 c 258
 418 487 l 258
 428 496 438 500 451 500 c 258
 509 500 l 258
 532 500 535 485 517 469 c 258
 306 287 l 258
 295 278 285 269 255 260 c 257
 282 251 290 242 297 233 c 258
EndSplineSet
PickledDataWithLists: "(dp0
Vcom.schriftgestaltung.Glyphs.lastChange\\u000d
p1
V2015-12-22 12:33:21 +0000\\u000d
p2
s."
EndChar

StartChar: l
Encoding: 108 108 269
GlifName: l
Width: 575
VWidth: 0
Flags: HMW
AnchorPoint: "mark-top" 360 700 basechar 0
AnchorPoint: "mark-bottom" 248 0 basechar 0
AnchorPoint: "mark-topright" 461 700 basechar 0
AnchorPoint: "mark-centerright" 469 400 basechar 0
LayerCount: 2
Back
SplineSet
455 57 m 257
 459 31 l 257
 463 16 455 4 437 0 c 256
 399 -9 368 -10 348 -10 c 259
 250 -10 205 27 205 107 c 259
 205 120 207 134 209 150 c 258
 280 600 l 258
 282 611 283 620 283 629 c 259
 283 667 263 682 215 683 c 259
 199 683 174 682 148 676 c 257
 132 673 123 678 119 693 c 257
 115 719 l 257
 112 734 120 746 137 750 c 256
 176 759 207 760 227 760 c 259
 324 760 369 724 369 645 c 259
 369 631 368 616 365 600 c 258
 294 150 l 258
 292 140 292 131 292 122 c 259
 292 84 310 68 360 67 c 259
 376 67 400 68 426 74 c 257
 443 77 452 72 455 57 c 257
EndSplineSet
Fore
SplineSet
365 600 m 258
 295 150 l 258
 293 137 292 126 292 116 c 259
 292 83 315 68 354 67 c 259
 370 67 395 69 425 74 c 256
 441 77 451 72 454 57 c 258
 458 30 l 258
 460 15 455.840820312 4.751953125 440 1 c 256
 402 -8 362 -10 342 -10 c 259
 256 -10 205 25 205 98 c 259
 205 114 207 131 210 150 c 258
 280 600 l 258
 282 613 283 624 283 634 c 259
 283 667 260 682 221 683 c 259
 205 683 180 681 150 676 c 256
 134 673 124 678 121 693 c 258
 117 720 l 258
 115 735 119.159179688 745.248046875 135 749 c 256
 173 758 213 760 233 760 c 259
 319 760 370 725 370 652 c 259
 370 636 368 619 365 600 c 258
EndSplineSet
PickledDataWithLists: "(dp0
Vcom.schriftgestaltung.Glyphs.lastChange\\u000d
p1
V2016-06-09 18:35:33 +0000\\u000d
p2
s."
EndChar

StartChar: lambda
Encoding: 955 955 271
GlifName: lambda
Width: 575
VWidth: 0
Flags: HMW
AnchorPoint: "mark-top" 360 700 basechar 0
LayerCount: 2
Fore
SplineSet
158 662 m 258
 161 678 171 687 187 687 c 256
 289 687 337 607 365 500 c 258
 488 29 l 258
 492 11 481 0 463 0 c 258
 426 0 l 258
 412 0 403 6 400 19 c 258
 308 392 l 257
 101 19 l 258
 94 6 83 0 69 0 c 258
 32 0 l 258
 14 0 7 11 17 29 c 258
 279 482 l 257
 253 577 220 613 175 613 c 256
 159 613 152 622 154 638 c 258
 158 662 l 258
EndSplineSet
PickledDataWithLists: "(dp0
Vcom.schriftgestaltung.Glyphs.lastChange\\u000d
p1
V2016-05-30 08:32:58 +0000\\u000d
p2
s."
EndChar

StartChar: lfblock
Encoding: 9612 9612 276
GlifName: lfblock
Width: 575
VWidth: 0
Flags: HMW
LayerCount: 2
Fore
SplineSet
0 -250 m 257
 0 900 l 257
 287 900 l 257
 287 -250 l 257
 0 -250 l 257
EndSplineSet
PickledDataWithLists: "(dp0
Vcom.schriftgestaltung.Glyphs.lastChange\\u000d
p1
V2016-06-10 08:26:49 +0000\\u000d
p2
s."
EndChar

StartChar: logicalnot
Encoding: 172 172 277
GlifName: logicalnot
Width: 575
VWidth: 0
Flags: HMW
LayerCount: 2
Fore
SplineSet
136 414 m 258
 491 414 l 258
 507 414 515 405 512 389 c 258
 474 150 l 258
 472 134 462 125 445 125 c 258
 410 125 l 258
 394 125 387 134 389 150 c 258
 419 337 l 257
 124 337 l 258
 108 337 100 346 103 362 c 258
 107 389 l 258
 110 405 120 414 136 414 c 258
EndSplineSet
PickledDataWithLists: "(dp0
Vcom.schriftgestaltung.Glyphs.lastChange\\u000d
p1
V2015-12-22 14:15:53 +0000\\u000d
p2
s."
EndChar

StartChar: lslash
Encoding: 322 322 278
GlifName: lslash
Width: 575
VWidth: 0
Flags: HMW
LayerCount: 2
Fore
SplineSet
141 332 m 258
 409 512 l 258
 421 520 436 517 442 507 c 258
 457 484 l 258
 465 471 461 455 447 446 c 258
 180 267 l 258
 168 259 154 262 147 271 c 258
 130 294 l 258
 121 306 128 323 141 332 c 258
EndSplineSet
Refer: 269 108 N 1 0 0 1 0 0 2
PickledDataWithLists: "(dp0
Vcom.schriftgestaltung.Glyphs.lastChange\\u000d
p1
V2016-06-09 18:35:33 +0000\\u000d
p2
s."
EndChar

StartChar: ltshade
Encoding: 9617 9617 279
GlifName: ltshade
Width: 575
VWidth: 0
Flags: HMW
LayerCount: 2
Fore
SplineSet
0 -250 m 257
 0 -194 l 257
 28 -250 l 257
 0 -250 l 257
287 -250 m 257
 0 324 l 257
 0 380 l 257
 315 -250 l 257
 287 -250 l 257
575 -250 m 257
 0 900 l 257
 28 900 l 257
 575 -194 l 257
 575 -250 l 257
575 324 m 257
 287 900 l 257
 315 900 l 257
 575 380 l 257
 575 324 l 257
EndSplineSet
PickledDataWithLists: "(dp0
Vcom.schriftgestaltung.Glyphs.lastChange\\u000d
p1
V2016-06-10 08:26:49 +0000\\u000d
p2
s."
EndChar

StartChar: m
Encoding: 109 109 280
GlifName: m
Width: 575
VWidth: 0
Flags: HMW
AnchorPoint: "mark-top" 327 500 basechar 0
AnchorPoint: "mark-bottom" 248 0 basechar 0
LayerCount: 2
Fore
SplineSet
172 475 m 257
 166 437 l 257
 222 481 269 507 301 507 c 259
 332 507 350 483 351 430 c 257
 412 478 462 507 496 507 c 259
 540 507 557 460 540 348 c 258
 488 25 l 258
 486 9 476 0 459 0 c 258
 424 0 l 258
 408 0 401 9 403 25 c 258
 456 358 l 258
 462 398 462 418 447 418 c 259
 431 418 400 398 346 357 c 257
 324 210 l 258
 322 194 312 185 295 185 c 258
 260 185 l 258
 244 185 237 194 239 210 c 258
 261 358 l 258
 267 398 267 418 252 418 c 259
 236 418 207 399 153 359 c 257
 100 25 l 258
 98 9 87 0 71 0 c 258
 36 0 l 258
 20 0 13 9 15 25 c 258
 86 470 l 258
 88 486 98 500 114 500 c 258
 151 500 l 258
 167 500 174 491 172 475 c 257
EndSplineSet
EndChar

StartChar: macron
Encoding: 175 175 281
GlifName: macron
Width: 575
VWidth: 0
GlyphClass: 2
Flags: HMW
LayerCount: 2
Fore
SplineSet
207 649 m 262
 211 675 l 262
 214 691 224 700 240 700 c 262
 478 700 l 262
 494 700 502 691 499 675 c 262
 495 648 l 262
 493 632 482 624 466 624 c 262
 228 624 l 262
 212 624 205 632 207 649 c 262
EndSplineSet
PickledDataWithLists: "(dp0
Vcom.schriftgestaltung.Glyphs.lastChange\\u000d
p1
V2015-12-22 16:32:42 +0000\\u000d
p2
s."
EndChar

StartChar: multiply
Encoding: 215 215 283
GlifName: multiply
Width: 531
VWidth: 0
Flags: HMW
LayerCount: 2
Back
SplineSet
340 262 m 257
 475 44 l 258
 483 31 479 18 465 9 c 258
 436 -10 l 258
 420 -19 409 -17 402 -4 c 258
 279 196 l 257
 94 -4 l 258
 82 -17 69 -19 58 -10 c 258
 35 9 l 258
 22 18 22 31 34 44 c 258
 238 263 l 257
 120 457 l 258
 112 470 116 482 131 492 c 258
 160 510 l 258
 175 519 187 517 194 504 c 258
 300 329 l 257
 461 504 l 258
 473 517 486 519 497 510 c 258
 521 492 l 258
 533 482 533 470 521 457 c 258
 340 262 l 257
EndSplineSet
Fore
SplineSet
516 511 m 258
 530 492 l 258
 538 481 536 467 524 456 c 258
 369 313 l 257
 479 170 l 258
 487 159 486 146 474 135 c 258
 446 110 l 258
 434 99 422 99 414 110 c 258
 304 253 l 257
 148 110 l 258
 136 99 122 99 114 110 c 258
 100 129 l 258
 92 140 93 154 105 165 c 258
 261 308 l 257
 151 451 l 258
 143 462 144 475 156 486 c 258
 184 511 l 258
 196 522 208 522 216 511 c 258
 326 368 l 257
 482 511 l 258
 494 522 508 522 516 511 c 258
EndSplineSet
PickledDataWithLists: "(dp0
Vcom.schriftgestaltung.Glyphs.lastChange\\u000d
p1
V2015-12-22 14:16:31 +0000\\u000d
p2
s."
EndChar

StartChar: n
Encoding: 110 110 284
GlifName: n
Width: 575
VWidth: 0
Flags: HMW
AnchorPoint: "mark-top" 327 500 basechar 0
AnchorPoint: "mark-bottom" 248 0 basechar 0
LayerCount: 2
Fore
SplineSet
125 475 m 274
 128 492 138 500 154 500 c 258
 189 500 l 258
 206 500 213 491 210 475 c 266
 204 437 l 257
 256 485 311 510 362 510 c 259
 452 510 521 469 490 278 c 258
 450 25 l 258
 447.304638083 7.95183587618 437 -1.95937016612e-15 421 0 c 258
 386 0 l 258
 369 0 362.458885214 8.92744897804 365 25 c 258
 405 278 l 258
 427 414 390 434 332 434 c 259
 291 434 243 405 190 349 c 257
 138 25 l 258
 135.421248143 8.9323922734 125 0 109 0 c 258
 74 0 l 258
 57 0 50 9 53 25 c 258
 125 475 l 274
EndSplineSet
EndChar

StartChar: nine.dnom
Encoding: 65570 -1 288
GlifName: nine.dnom
Width: 250
VWidth: 0
Flags: HMW
LayerCount: 2
Fore
SplineSet
11 18 m 258
 16 32 l 258
 21 44 35 52 48 50 c 257
 60 47 70 46 82 46 c 256
 121 46 155 67 176 152 c 257
 153 146 129 143 108 143 c 256
 42 143 6 186 16 250 c 256
 28 325 77 367 154 367 c 256
 236 367 271 308 254 202 c 256
 228 38 154 -13 72 -13 c 256
 57 -13 41 -12 25 -9 c 257
 13 -6 6 6 11 18 c 258
188 215 m 257
 197 284 181 308 144 308 c 256
 106 308 90 294 83 250 c 256
 78 220 92 202 117 202 c 256
 139 202 161 206 188 215 c 257
EndSplineSet
EndChar

StartChar: nine.hex
Encoding: 65571 -1 289
GlifName: nine.hex
Width: 575
VWidth: 0
Flags: HMW
LayerCount: 2
Fore
SplineSet
214 875 m 258
 214 829 l 258
 214 812 205 804 189 804 c 258
 154 804 l 258
 137 804 129 813 129 829 c 258
 129 875 l 258
 129 891 138 900 154 900 c 258
 189 900 l 258
 205 900 214 891 214 875 c 258
646 875 m 258
 646 829 l 258
 646 812 637 804 621 804 c 258
 586 804 l 258
 569 804 561 813 561 829 c 258
 561 875 l 258
 561 891 570 900 586 900 c 258
 621 900 l 258
 637 900 646 891 646 875 c 258
EndSplineSet
Refer: 287 57 N 1 0 0 1 0 0 2
PickledDataWithLists: "(dp0
Vcom.schriftgestaltung.Glyphs.lastChange\\u000d
p1
V2016-02-10 13:40:56 +0000\\u000d
p2
s."
EndChar

StartChar: notequal
Encoding: 8800 8800 291
GlifName: notequal
Width: 575
VWidth: 0
Flags: HMW
LayerCount: 2
Back
SplineSet
571 662 m 262
 580 676 577 688 565 695 c 262
 542 708 l 262
 530 715 519 711 510 697 c 262
 68 -25 l 262
 59 -39 62 -51 74 -58 c 262
 97 -71 l 262
 109 -78 120 -74 129 -60 c 262
 571 662 l 262
424 404 m 257
 523 404 l 258
 540 404 547 395 544 379 c 257
 540 352 l 258
 538 336 528 327 511 327 c 258
 374 327 l 257
 273 174 l 257
 487 174 l 258
 504 174 511 165 508 149 c 257
 504 122 l 257
 501 106 492 97 475 97 c 258
 223 97 l 257
 118 -62 l 258
 110 -74 100 -80 86 -80 c 258
 44 -80 l 258
 25 -80 20 -68 30 -51 c 257
 127 97 l 257
 52 97 l 258
 36 97 28 106 31 122 c 258
 35 148 l 258
 38 165 48 174 64 174 c 258
 178 174 l 257
 279 327 l 257
 88 327 l 258
 72 327 65 336 67 352 c 258
 71 378 l 258
 74 395 84 404 100 404 c 258
 329 404 l 257
 433 562 l 258
 441 574 452 580 466 580 c 258
 507 580 l 258
 527 580 532 568 521 551 c 258
 424 404 l 257
EndSplineSet
Fore
Refer: 944 -1 N 1 0 0 1 0 0 2
Refer: 218 61 N 1 0 0 1 0 0 2
PickledDataWithLists: "(dp0
Vcom.schriftgestaltung.Glyphs.lastChange\\u000d
p1
V2015-12-22 14:16:56 +0000\\u000d
p2
s."
EndChar

StartChar: numbersign
Encoding: 35 35 294
GlifName: numbersign
Width: 575
VWidth: 0
Flags: HMW
LayerCount: 2
Fore
SplineSet
435 270 m 257
 502 270 l 258
 519 270 526 261 523 245 c 258
 519 218 l 258
 516 201 506 193 490 193 c 258
 423 193 l 257
 396 25 l 258
 393 8 383 0 367 0 c 258
 332 0 l 258
 315 0 308 9 311 25 c 258
 338 193 l 257
 219 193 l 257
 192 25 l 258
 189 8 179 0 163 0 c 258
 128 0 l 258
 111 0 104 9 107 25 c 258
 134 193 l 257
 67 193 l 258
 50 193 43 202 46 218 c 258
 50 245 l 258
 53 262 63 270 79 270 c 258
 146 270 l 257
 171 424 l 257
 104 424 l 258
 87 424 80 433 83 449 c 258
 87 476 l 258
 90 493 100 501 116 501 c 258
 183 501 l 257
 210 675 l 258
 213 692 223 700 239 700 c 258
 274 700 l 258
 291 700 298 691 295 675 c 258
 268 501 l 257
 387 501 l 257
 414 675 l 258
 417 692 427 700 443 700 c 258
 478 700 l 258
 495 700 502 691 499 675 c 258
 472 501 l 257
 539 501 l 258
 556 501 563 492 560 476 c 258
 556 449 l 258
 553 432 543 424 527 424 c 258
 460 424 l 257
 435 270 l 257
256 424 m 257
 231 270 l 257
 350 270 l 257
 375 424 l 257
 256 424 l 257
EndSplineSet
PickledDataWithLists: "(dp0
Vcom.schriftgestaltung.Glyphs.lastChange\\u000d
p1
V2015-12-23 09:14:39 +0000\\u000d
p2
s."
EndChar

StartChar: o
Encoding: 111 111 295
GlifName: o
Width: 575
VWidth: 0
Flags: HMW
AnchorPoint: "mark-top" 327 500 basechar 0
AnchorPoint: "mark-bottom" 248 0 basechar 0
LayerCount: 2
Fore
SplineSet
72 189 m 259
 72 347 171 510 332 510 c 259
 426 510 503 452 503 315 c 259
 503 155 410 -10 250 -10 c 259
 155 -10 72 49 72 189 c 259
158 200 m 259
 158 111 201 66 259 66 c 259
 359 66 417 200 417 300 c 259
 417 390 375 434 317 434 c 259
 216 434 158 300 158 200 c 259
EndSplineSet
PickledDataWithLists: "(dp0
Vcom.schriftgestaltung.Glyphs.lastChange\\u000d
p1
V2016-06-09 18:35:33 +0000\\u000d
p2
s."
EndChar

StartChar: oe
Encoding: 339 339 299
GlifName: oe
Width: 575
VWidth: 0
Flags: HMW
LayerCount: 2
Fore
SplineSet
456 57 m 258
 458 31 l 258
 460 15 451 4 434 1 c 256
 391 -6 362 -10 350 -10 c 256
 311 -10 283 8 270 67 c 257
 239 7 206 -12 169 -12 c 256
 107 -12 75 42 75 141 c 256
 75 297 132 512 257 512 c 256
 291 512 317 494 329 442 c 257
 357 493 389 510 424 510 c 256
 488 510 521 459 521 363 c 256
 521 330 518 297 510 247 c 256
 507 231 497 222 481 222 c 258
 336 222 l 257
 321 122 330 67 362 67 c 256
 367 67 391 70 429 76 c 256
 446 79 455 73 456 57 c 258
159 133 m 256
 159 89 167 65 183 65 c 256
 233 65 266 286 266 368 c 256
 266 412 258 435 242 435 c 256
 192 435 159 214 159 133 c 256
349 299 m 257
 433 299 l 257
 443 386 435 434 412 434 c 256
 389 434 368 386 349 299 c 257
EndSplineSet
PickledDataWithLists: "(dp0
Vcom.schriftgestaltung.Glyphs.lastChange\\u000d
p1
V2016-06-09 18:35:34 +0000\\u000d
p2
s."
EndChar

StartChar: ogonek
Encoding: 731 731 300
GlifName: ogonek
Width: 575
VWidth: 0
GlyphClass: 2
Flags: HMW
LayerCount: 2
Fore
SplineSet
251 28 m 256
 264 36 273 37 283 34 c 256
 291 30 293 21 286 6 c 256
 279 -14 271 -37 268 -53 c 256
 260 -105 267 -131 281 -152 c 256
 289 -165 289 -176 276 -188 c 258
 251 -211 l 258
 239 -223 226 -224 216 -212 c 256
 187 -177 171 -131 178 -83 c 256
 183 -53 191 -13 251 28 c 256
EndSplineSet
PickledDataWithLists: "(dp0
Vcom.schriftgestaltung.Glyphs.lastChange\\u000d
p1
V2015-12-22 16:32:43 +0000\\u000d
p2
s."
EndChar

StartChar: omega
Encoding: 969 969 304
GlifName: omega
Width: 575
VWidth: 0
Flags: HMW
AnchorPoint: "mark-top" 327 500 basechar 0
LayerCount: 2
Fore
SplineSet
456 453 m 257
 473 484 l 258
 480 498 492 505 507 500 c 257
 545 484 563 449 563 391 c 256
 563 373 562 353 558 330 c 258
 532 170 l 258
 512 43 460 -10 354 -10 c 256
 302 -10 269 7 257 55 c 257
 229 7 191 -10 139 -10 c 256
 52 -10 12 26 12 110 c 256
 12 128 14 148 17 170 c 258
 43 330 l 258
 58 425 90 479 148 500 c 257
 163 505 173 498 176 484 c 258
 183 453 l 257
 186 438 179 431 166 421 c 256
 147 406 135 377 128 330 c 258
 102 170 l 258
 100 154 98 141 98 129 c 256
 98 86 115 67 151 67 c 256
 197 67 221 97 232 170 c 258
 254 305 l 258
 256 321 267 330 283 330 c 258
 318 330 l 258
 334 330 341 321 339 305 c 258
 317 170 l 258
 306 97 320 67 366 67 c 256
 412 67 436 97 447 170 c 258
 473 330 l 258
 480 377 478 406 463 421 c 256
 454 431 449 438 456 453 c 257
EndSplineSet
PickledDataWithLists: "(dp0
Vcom.schriftgestaltung.Glyphs.lastChange\\u000d
p1
V2015-12-22 12:55:46 +0000\\u000d
p2
s."
EndChar

StartChar: one
Encoding: 49 49 306
GlifName: one
Width: 575
VWidth: 0
Flags: HMW
LayerCount: 2
Fore
SplineSet
335 77 m 257
 438 77 l 258
 455 77 462 68 459 52 c 258
 454 25 l 258
 451 8 441 0 425 0 c 258
 70 0 l 258
 53 0 46 9 49 25 c 258
 54 52 l 258
 57 69 67 77 83 77 c 258
 250 77 l 257
 320 520 l 257
 153 520 l 258
 136 520 129 529 132 545 c 258
 136 572 l 258
 139 589 149 597 165 597 c 256
 263 597 320 618 357 680 c 256
 365 694 375 700 389 700 c 258
 408 700 l 258
 425 700 432 691 429 675 c 258
 335 77 l 257
EndSplineSet
PickledDataWithLists: "(dp0
Vcom.schriftgestaltung.Glyphs.lastChange\\u000d
p1
V2015-12-22 20:51:40 +0000\\u000d
p2
s."
EndChar

StartChar: one.dnom
Encoding: 65573 -1 307
GlifName: one.dnom
Width: 250
VWidth: 0
Flags: HMW
LayerCount: 2
Fore
SplineSet
161 49 m 257
 201 49 l 257
 216 49 223 37 222 26 c 257
 219 13 l 257
 218 2 206 -10 192 -10 c 257
 14 -10 l 257
 -1 -10 -8 2 -7 13 c 257
 -4 26 l 257
 -3 37 9 49 23 49 c 257
 95 49 l 257
 127 250 l 257
 55 250 l 257
 41 250 33 262 35 273 c 257
 37 286 l 257
 38 297 50 309 64 309 c 257
 111 309 132 316 149 344 c 257
 154 353 165 360 176 360 c 257
 186 360 l 257
 200 360 209 350 207 338 c 257
 161 49 l 257
EndSplineSet
EndChar

StartChar: one.hex
Encoding: 65574 -1 308
GlifName: one.hex
Width: 575
VWidth: 0
Flags: HMW
LayerCount: 2
Fore
SplineSet
646 875 m 258
 646 829 l 258
 646 812 637 804 621 804 c 258
 586 804 l 258
 569 804 561 813 561 829 c 258
 561 875 l 258
 561 891 570 900 586 900 c 258
 621 900 l 258
 637 900 646 891 646 875 c 258
EndSplineSet
Refer: 306 49 N 1 0 0 1 0 0 2
PickledDataWithLists: "(dp0
Vcom.schriftgestaltung.Glyphs.lastChange\\u000d
p1
V2016-02-10 13:18:28 +0000\\u000d
p2
s."
EndChar

StartChar: ordfeminine
Encoding: 170 170 314
GlifName: ordfeminine
Width: 575
VWidth: 0
Flags: HMW
LayerCount: 2
Fore
SplineSet
488 695 m 258
 443 401 l 257
 439 384 428 373 415 373 c 258
 390 373 l 258
 373 373 363 385 366 402 c 257
 366 401 l 257
 336 379 302 367 271 367 c 256
 205 367 171 416 171 509 c 256
 171 651 243 733 368 733 c 256
 387 733 424 732 465 727 c 257
 466 727 l 258
 482 724 491 712 488 695 c 258
380 489 m 257
 407 661 l 257
 387 662 370 663 360 663 c 256
 288 663 249 613 249 519 c 256
 249 460 262 437 291 437 c 256
 316 437 348 455 380 489 c 257
EndSplineSet
PickledDataWithLists: "(dp0
Vcom.schriftgestaltung.Glyphs.lastChange\\u000d
p1
V2016-06-09 18:35:34 +0000\\u000d
p2
s."
EndChar

StartChar: ordmasculine
Encoding: 186 186 315
GlifName: ordmasculine
Width: 575
VWidth: 0
Flags: HMW
LayerCount: 2
Back
SplineSet
186 489 m 259
 186 616 262 715 364 715 c 259
 440 715 484 662 484 573 c 259
 484 444 410 345 310 345 c 259
 232 345 186 399 186 489 c 259
263 497 m 259
 263 444 282 417 316 417 c 259
 365 417 406 484 406 563 c 259
 406 617 388 643 354 643 c 259
 304 643 263 576 263 497 c 259
EndSplineSet
Fore
Refer: 711 -1 N 1 0 0 1 125 0 2
PickledDataWithLists: "(dp0
Vcom.schriftgestaltung.Glyphs.lastChange\\u000d
p1
V2016-06-09 18:35:34 +0000\\u000d
p2
s."
EndChar

StartChar: oslash
Encoding: 248 248 316
GlifName: oslash
Width: 575
VWidth: 0
Flags: HMW
AnchorPoint: "mark-top" 327 500 basechar 0
LayerCount: 2
Fore
SplineSet
388 559 m 258
 396 574 406 579 421 573 c 258
 453 560 l 258
 469 554 475 542 467 527 c 258
 177 -72 l 258
 170 -87 160 -92 145 -86 c 258
 112 -73 l 258
 97 -67 91 -55 98 -40 c 258
 388 559 l 258
EndSplineSet
Refer: 295 111 N 1 0 0 1 0 0 2
PickledDataWithLists: "(dp0
Vcom.schriftgestaltung.Glyphs.lastChange\\u000d
p1
V2016-06-09 18:35:33 +0000\\u000d
p2
s."
EndChar

StartChar: p
Encoding: 112 112 318
GlifName: p
Width: 575
VWidth: 0
Flags: HMW
AnchorPoint: "mark-top" 327 500 basechar 0
LayerCount: 2
Fore
SplineSet
67 -250 m 258
 32 -250 l 258
 16 -250 8 -241 11 -225 c 258
 120 470 l 258
 123 486 131 500 147 500 c 258
 184 500 l 258
 200 500 208 491 205 475 c 258
 199 437 l 257
 252 485 311 510 362 510 c 259
 438 510 497 454 497 311 c 259
 497 120 417 -10 217 -10 c 259
 197 -10 165 -9 129 -6 c 257
 96 -225 l 258
 94 -241 83 -250 67 -250 c 258
186 349 m 257
 141 70 l 257
 179 67 211 66 229 66 c 259
 365 66 411 164 411 296 c 259
 411 396 379 434 332 434 c 259
 291 434 238 405 186 349 c 257
EndSplineSet
EndChar

StartChar: paragraph
Encoding: 182 182 319
GlifName: paragraph
Width: 575
VWidth: 0
Flags: HMW
LayerCount: 2
Fore
SplineSet
321 700 m 258
 381 700 l 258
 398 700 405 692 402 675 c 258
 284 -75 l 258
 281 -91 272 -100 255 -100 c 258
 220 -100 l 258
 204 -100 196 -91 199 -75 c 258
 261 322 l 257
 138 322 96 384 96 466 c 256
 96 480 98 495 100 511 c 256
 117 615 177 700 321 700 c 258
531 700 m 258
 566 700 l 258
 583 700 590 692 587 675 c 258
 469 -75 l 258
 466 -91 457 -100 440 -100 c 258
 405 -100 l 258
 389 -100 381 -91 384 -75 c 258
 502 675 l 258
 505 691 515 700 531 700 c 258
EndSplineSet
PickledDataWithLists: "(dp0
Vcom.schriftgestaltung.Glyphs.lastChange\\u000d
p1
V2016-05-30 08:36:51 +0000\\u000d
p2
s."
EndChar

StartChar: parenleft
Encoding: 40 40 320
GlifName: parenleft
Width: 575
VWidth: 0
Flags: HMW
LayerCount: 2
Fore
SplineSet
536 725 m 258
 532 699 l 258
 529 682 520 674 503 674 c 259
 324 674 198 396 198 184 c 259
 198 18 270 -102 380 -102 c 259
 397 -102 404 -110 401 -127 c 258
 397 -153 l 258
 394 -170 384 -178 368 -178 c 259
 214 -178 112 -28 112 178 c 259
 112 442 285 750 515 750 c 259
 531 750 539 742 536 725 c 258
EndSplineSet
PickledDataWithLists: "(dp0
Vcom.schriftgestaltung.Glyphs.lastChange\\u000d
p1
V2016-05-19 19:23:15 +0000\\u000d
p2
s."
EndChar

StartChar: parenright
Encoding: 41 41 321
GlifName: parenright
Width: 575
VWidth: 0
Flags: HMW
LayerCount: 2
Fore
SplineSet
40 -153 m 258
 44 -127 l 258
 47 -110 56 -102 73 -102 c 259
 252 -102 378 176 378 388 c 259
 378 554 306 674 196 674 c 259
 179 674 172 682 175 699 c 258
 179 725 l 258
 182 742 192 750 208 750 c 259
 362 750 464 600 464 394 c 259
 464 130 291 -178 61 -178 c 263
 45 -178 37 -170 40 -153 c 258
EndSplineSet
PickledDataWithLists: "(dp0
Vcom.schriftgestaltung.Glyphs.lastChange\\u000d
p1
V2016-05-19 19:22:51 +0000\\u000d
p2
s."
EndChar

StartChar: partialdiff
Encoding: 8706 8706 322
GlifName: partialdiff
Width: 575
VWidth: 0
Flags: HMW
LayerCount: 2
Fore
SplineSet
500 366 m 256
 500 166 423 -11 247 -11 c 256
 136 -11 76 51 76 173 c 256
 76 353 177 509 358 510 c 256
 370 511 387 510 406 508 c 257
 392 579 369 650 340 708 c 256
 332 722 337 735 353 743 c 258
 382 758 l 258
 398 766 409 763 415 749 c 256
 471 618 500 486 500 366 c 256
346 434 m 256
 225 433 163 307 163 189 c 256
 163 110 193 70 252 67 c 256
 373 58 416 224 416 378 c 256
 416 395 416 412 414 428 c 257
 390 432 366 434 346 434 c 256
EndSplineSet
PickledDataWithLists: "(dp0
Vcom.schriftgestaltung.Glyphs.lastChange\\u000d
p1
V2015-12-22 14:17:42 +0000\\u000d
p2
s."
EndChar

StartChar: percent
Encoding: 37 37 323
GlifName: percent
Width: 575
VWidth: 0
Flags: HMW
LayerCount: 2
Fore
SplineSet
491 115 m 258
 476 25 l 258
 473 8 463 0 447 0 c 258
 347 0 l 258
 330 0 323 9 326 25 c 258
 341 115 l 258
 344 132 354 140 370 140 c 258
 470 140 l 258
 487 140 494 131 491 115 c 258
265 575 m 258
 250 485 l 258
 247 468 237 460 221 460 c 258
 121 460 l 258
 104 460 97 469 100 485 c 258
 115 575 l 258
 118 592 128 600 144 600 c 258
 244 600 l 258
 261 600 268 591 265 575 c 258
528 534 m 258
 547 509 l 258
 555 498 554 485 542 474 c 258
 96 65 l 258
 84 54 72 54 64 65 c 258
 45 90 l 258
 37 101 38 114 50 125 c 258
 495 534 l 258
 507 545 520 545 528 534 c 258
EndSplineSet
PickledDataWithLists: "(dp0
Vcom.schriftgestaltung.Glyphs.lastChange\\u000d
p1
V2015-12-22 14:18:08 +0000\\u000d
p2
s."
EndChar

StartChar: period
Encoding: 46 46 324
GlifName: period
Width: 575
VWidth: 0
Flags: HMW
LayerCount: 2
Fore
SplineSet
220 140 m 258
 320 140 l 258
 337 140 344 131 341 115 c 258
 326 25 l 258
 323 8 313 0 297 0 c 258
 197 0 l 258
 180 0 173 9 176 25 c 258
 191 115 l 258
 194 132 204 140 220 140 c 258
EndSplineSet
PickledDataWithLists: "(dp0
Vcom.schriftgestaltung.Glyphs.lastChange\\u000d
p1
V2015-12-23 09:15:27 +0000\\u000d
p2
s."
EndChar

StartChar: perthousand
Encoding: 8240 8240 326
GlifName: perthousand
Width: 575
VWidth: 0
Flags: HMW
LayerCount: 2
Back
SplineSet
236 140 m 262
 311 140 l 262
 327 140 334 132 332 115 c 262
 317 25 l 262
 315 9 304 0 288 0 c 262
 213 0 l 262
 197 0 190 9 192 25 c 262
 207 115 l 262
 209 132 219 140 236 140 c 262
441 140 m 262
 516 140 l 262
 532 140 539 132 537 115 c 262
 522 25 l 262
 520 9 509 0 493 0 c 262
 418 0 l 262
 402 0 395 9 397 25 c 262
 412 115 l 262
 414 132 424 140 441 140 c 262
12 66 m 262
 -8 87 l 262
 -18 98 -17 110 -3 122 c 262
 474 534 l 262
 487 545 499 546 509 535 c 262
 530 514 l 262
 540 503 538 490 525 479 c 262
 47 66 l 262
 34 55 22 55 12 66 c 262
EndSplineSet
Fore
SplineSet
332 115 m 258
 317 25 l 258
 314 8 304 0 288 0 c 258
 213 0 l 258
 196 0 189 9 192 25 c 258
 207 115 l 258
 210 132 220 140 236 140 c 258
 311 140 l 258
 328 140 335 131 332 115 c 258
537 115 m 258
 522 25 l 258
 519 8 509 0 493 0 c 258
 418 0 l 258
 401 0 394 9 397 25 c 258
 412 115 l 258
 415 132 425 140 441 140 c 258
 516 140 l 258
 533 140 540 131 537 115 c 258
265 575 m 258
 250 485 l 258
 247 468 237 460 221 460 c 258
 121 460 l 258
 104 460 97 469 100 485 c 258
 115 575 l 258
 118 592 128 600 144 600 c 258
 244 600 l 258
 261 600 268 591 265 575 c 258
511 549 m 258
 530 524 l 258
 538 513 537 500 525 489 c 258
 79 80 l 258
 67 69 55 69 47 80 c 258
 28 105 l 258
 20 116 21 129 33 140 c 258
 478 549 l 258
 490 560 503 560 511 549 c 258
EndSplineSet
PickledDataWithLists: "(dp0
Vcom.schriftgestaltung.Glyphs.lastChange\\u000d
p1
V2015-12-22 14:18:32 +0000\\u000d
p2
s."
EndChar

StartChar: phi
Encoding: 966 966 327
GlifName: phi
Width: 575
VWidth: 0
Flags: HMW
AnchorPoint: "mark-top" 327 500 basechar 0
LayerCount: 2
Fore
SplineSet
259 330 m 258
 279 457 331 510 436 510 c 256
 520 510 558 474 558 392 c 256
 558 373 557 353 553 330 c 258
 534 210 l 258
 510 61 439 0 290 0 c 257
 275 -96 l 258
 273 -113 263 -121 246 -121 c 258
 211 -121 l 258
 195 -121 188 -113 190 -96 c 258
 205 0 l 257
 79 0 23 43 23 146 c 256
 23 166 25 187 29 210 c 258
 58 395 l 258
 61 412 71 420 87 420 c 258
 122 420 l 258
 139 420 146 412 143 395 c 258
 114 210 l 258
 112 195 110 181 110 168 c 256
 110 104 143 77 218 77 c 257
 259 330 l 258
449 210 m 258
 468 330 l 258
 470 346 472 361 472 373 c 256
 472 415 457 433 424 433 c 256
 378 433 354 404 343 333 c 258
 303 77 l 257
 392 77 434 116 449 210 c 258
EndSplineSet
PickledDataWithLists: "(dp0
Vcom.schriftgestaltung.Glyphs.lastChange\\u000d
p1
V2015-12-22 12:48:44 +0000\\u000d
p2
s."
EndChar

StartChar: pi
Encoding: 960 960 328
GlifName: pi
Width: 575
VWidth: 0
Flags: HMW
AnchorPoint: "mark-top" 327 500 basechar 0
LayerCount: 2
Fore
SplineSet
168 424 m 257
 123 424 l 258
 107 424 99 432 102 449 c 258
 106 475 l 258
 108 492 119 500 135 500 c 258
 520 500 l 258
 537 500 543 492 541 475 c 258
 537 449 l 258
 534 432 525 424 507 423 c 257
 462 423 l 257
 430 220 l 257
 417 135 408 80 423 23 c 256
 427 9 417 0 400 0 c 258
 365 0 l 258
 349 0 342 9 338 23 c 256
 323 80 332 135 345 220 c 257
 377 423 l 257
 252 423 l 257
 189 25 l 258
 187 9 177 0 160 0 c 258
 125 0 l 258
 109 0 102 9 104 25 c 258
 168 424 l 257
EndSplineSet
PickledDataWithLists: "(dp0
Vcom.schriftgestaltung.Glyphs.lastChange\\u000d
p1
V2015-12-22 16:32:58 +0000\\u000d
p2
s."
EndChar

StartChar: plus
Encoding: 43 43 329
GlifName: plus
Width: 575
VWidth: 0
Flags: HMW
LayerCount: 2
Fore
SplineSet
334 272 m 257
 307 96 l 258
 304 79 294 71 278 71 c 258
 243 71 l 258
 226 71 219 80 222 96 c 258
 249 272 l 257
 80 272 l 258
 63 272 56 281 59 297 c 258
 63 324 l 258
 66 341 76 349 92 349 c 258
 261 349 l 257
 288 525 l 258
 291 542 301 550 317 550 c 258
 352 550 l 258
 369 550 376 541 373 525 c 258
 346 349 l 257
 515 349 l 258
 532 349 539 340 536 324 c 258
 532 297 l 258
 529 280 519 272 503 272 c 258
 334 272 l 257
EndSplineSet
PickledDataWithLists: "(dp0
Vcom.schriftgestaltung.Glyphs.lastChange\\u000d
p1
V2015-12-22 14:19:00 +0000\\u000d
p2
s."
EndChar

StartChar: plusminus
Encoding: 177 177 330
GlifName: plusminus
Width: 575
VWidth: 0
Flags: HMW
LayerCount: 2
Fore
SplineSet
362 452 m 257
 531 452 l 258
 548 452 555 443 552 427 c 258
 548 400 l 258
 545 384 536 375 519 375 c 258
 350 375 l 257
 322 202 l 258
 320 185 310 177 293 177 c 258
 258 177 l 258
 242 177 235 186 237 202 c 258
 265 375 l 257
 96 375 l 258
 80 375 72 384 75 400 c 258
 79 426 l 258
 82 443 92 452 108 452 c 258
 277 452 l 257
 304 625 l 258
 307 641 317 650 333 650 c 258
 368 650 l 258
 385 650 392 641 389 625 c 258
 362 452 l 257
15 25 m 258
 20 52 l 258
 22 68 33 77 49 77 c 258
 472 77 l 258
 489 77 495 68 493 52 c 258
 488 25 l 258
 486 9 476 0 459 0 c 258
 36 0 l 258
 20 0 13 9 15 25 c 258
EndSplineSet
PickledDataWithLists: "(dp0
Vcom.schriftgestaltung.Glyphs.lastChange\\u000d
p1
V2015-12-22 14:19:26 +0000\\u000d
p2
s."
EndChar

StartChar: product
Encoding: 8719 8719 331
GlifName: product
Width: 575
VWidth: 0
Flags: HMW
LayerCount: 2
Fore
SplineSet
148 699 m 258
 571 699 l 258
 587 699 595 690 592 674 c 258
 588 647 l 258
 585 631 575 622 559 622 c 258
 514 622 l 257
 406 -58 l 258
 404 -74 394 -83 377 -83 c 258
 342 -83 l 258
 326 -83 319 -74 321 -58 c 258
 429 622 l 257
 264 622 l 257
 156 -58 l 258
 154 -74 144 -83 127 -83 c 258
 92 -83 l 258
 76 -83 69 -74 71 -58 c 258
 179 622 l 257
 136 622 l 258
 120 622 112 631 115 647 c 258
 119 673 l 258
 122 690 132 699 148 699 c 258
EndSplineSet
PickledDataWithLists: "(dp0
Vcom.schriftgestaltung.Glyphs.lastChange\\u000d
p1
V2015-12-22 14:19:57 +0000\\u000d
p2
s."
EndChar

StartChar: psi
Encoding: 968 968 332
GlifName: psi
Width: 575
VWidth: 0
Flags: HMW
AnchorPoint: "mark-top" 327 500 basechar 0
LayerCount: 2
Fore
SplineSet
520 500 m 258
 555 500 l 258
 572 500 578 492 576 475 c 258
 534 210 l 258
 510 61 439 0 290 0 c 257
 275 -96 l 258
 273 -113 263 -121 246 -121 c 258
 211 -121 l 258
 195 -121 188 -113 190 -96 c 258
 205 0 l 257
 79 0 23 43 23 146 c 256
 23 166 25 187 29 210 c 258
 71 475 l 258
 73 492 84 500 100 500 c 258
 135 500 l 258
 152 500 158 492 156 475 c 258
 114 210 l 258
 112 195 110 181 110 168 c 256
 110 104 143 77 218 77 c 257
 281 475 l 258
 283 492 294 500 310 500 c 258
 345 500 l 258
 362 500 368 492 366 475 c 258
 303 77 l 257
 392 77 434 116 449 210 c 258
 491 475 l 258
 493 492 504 500 520 500 c 258
EndSplineSet
PickledDataWithLists: "(dp0
Vcom.schriftgestaltung.Glyphs.lastChange\\u000d
p1
V2015-12-22 12:55:00 +0000\\u000d
p2
s."
EndChar

StartChar: question
Encoding: 63 63 334
GlifName: question
Width: 575
VWidth: 0
Flags: HMW
LayerCount: 2
Fore
SplineSet
216 72 m 258
 209 25 l 258
 206 8 196 0 180 0 c 258
 145 0 l 258
 128 0 121 9 124 25 c 258
 131 72 l 258
 134 89 144 97 160 97 c 258
 195 97 l 258
 212 97 219 88 216 72 c 258
129 651 m 258
 132 675 l 258
 135 691 145 700 161 700 c 256
 430 698 540 605 540 510 c 256
 540 390 401 327 256 327 c 258
 255 327 l 257
 240 230 l 258
 237 214 227 205 211 205 c 258
 176 205 l 258
 160 205 152 214 155 230 c 258
 178 376 l 262
 180 392 191 401 207 401 c 262
 268 401 l 262
 363 401 454 434 454 503 c 256
 454 579 339 625 150 626 c 256
 134 626 126 635 129 651 c 258
EndSplineSet
PickledDataWithLists: "(dp0
Vcom.schriftgestaltung.Glyphs.lastChange\\u000d
p1
V2015-12-23 09:17:54 +0000\\u000d
p2
s."
EndChar

StartChar: quotedbl
Encoding: 34 34 336
GlifName: quotedbl
Width: 575
VWidth: 0
Flags: HMW
LayerCount: 2
Fore
SplineSet
224 750 m 258
 278 750 l 258
 294 750 303 741 299 725 c 258
 243 437 l 258
 240 421 230 413 214 413 c 258
 185 413 l 258
 169 413 161 421 163 437 c 258
 195 725 l 258
 197 741 207 750 224 750 c 258
455 750 m 258
 509 750 l 258
 525 750 534 741 530 725 c 258
 474 437 l 258
 471 421 461 413 445 413 c 258
 416 413 l 258
 400 413 392 421 394 437 c 258
 426 725 l 258
 428 741 438 750 455 750 c 258
EndSplineSet
PickledDataWithLists: "(dp0
Vcom.schriftgestaltung.Glyphs.lastChange\\u000d
p1
V2015-12-23 09:18:16 +0000\\u000d
p2
s."
EndChar

StartChar: quotereversed
Encoding: 8219 8219 341
GlifName: quotereversed
Width: 575
VWidth: 0
Flags: HMW
LayerCount: 2
Fore
SplineSet
292 724 m 258
 296 741 305 749 321 749 c 258
 401 749 l 258
 418 749 426 741 422 724 c 258
 413 659 l 258
 409 643 400 634 384 634 c 258
 359 634 l 257
 345 559 344 503 383 503 c 256
 399 503 407 494 403 478 c 258
 400 451 l 258
 396 435 386 427 370 427 c 256
 297 427 272 482 272 556 c 256
 272 580 274 605 279 632 c 258
 292 724 l 258
EndSplineSet
PickledDataWithLists: "(dp0
Vcom.schriftgestaltung.Glyphs.lastChange\\u000d
p1
V2015-12-22 14:00:15 +0000\\u000d
p2
s."
EndChar

StartChar: quotesinglbase
Encoding: 8218 8218 343
GlifName: quotesinglbase
Width: 575
VWidth: 0
Flags: HMW
LayerCount: 2
Fore
SplineSet
227 115 m 258
 307 115 l 258
 323 115 330 107 328 90 c 258
 313 -2 l 258
 296 -111 252 -207 156 -207 c 256
 140 -207 132 -199 134 -183 c 258
 139 -156 l 258
 141 -140 151 -131 167 -131 c 256
 206 -131 223 -75 233 0 c 257
 208 0 l 258
 192 0 185 9 187 25 c 258
 198 90 l 258
 200 107 210 115 227 115 c 258
EndSplineSet
PickledDataWithLists: "(dp0
Vcom.schriftgestaltung.Glyphs.lastChange\\u000d
p1
V2015-12-22 14:00:50 +0000\\u000d
p2
s."
EndChar

StartChar: quotesingle
Encoding: 39 39 344
GlifName: quotesingle
Width: 575
VWidth: 0
Flags: HMW
LayerCount: 2
Fore
SplineSet
340 750 m 258
 394 750 l 258
 410 750 419 741 415 725 c 258
 359 437 l 258
 356 421 346 413 330 413 c 258
 301 413 l 258
 285 413 277 421 279 437 c 258
 311 725 l 258
 313 741 323 750 340 750 c 258
EndSplineSet
PickledDataWithLists: "(dp0
Vcom.schriftgestaltung.Glyphs.lastChange\\u000d
p1
V2015-12-22 13:46:53 +0000\\u000d
p2
s."
EndChar

StartChar: r
Encoding: 114 114 345
GlifName: r
Width: 575
VWidth: 0
Flags: HMW
AnchorPoint: "mark-top" 327 500 basechar 0
AnchorPoint: "mark-bottom" 248 0 basechar 0
LayerCount: 2
Fore
SplineSet
210 475 m 258
 204 437 l 257
 256 485 311 510 362 510 c 259
 440 510 501 479 497 348 c 259
 497 332 487 323 471 323 c 258
 436 323 l 258
 419 323 411 332 411 349 c 259
 411 422 378 434 332 434 c 259
 291 434 243 405 190 349 c 257
 138 25 l 258
 136 9 125 0 109 0 c 258
 74 0 l 258
 58 0 51 9 53 25 c 258
 124 470 l 258
 126 486 136 500 152 500 c 258
 189 500 l 258
 205 500 212 491 210 475 c 258
EndSplineSet
PickledDataWithLists: "(dp0
Vcom.schriftgestaltung.Glyphs.lastChange\\u000d
p1
V2016-06-09 18:35:34 +0000\\u000d
p2
s."
EndChar

StartChar: radical
Encoding: 8730 8730 347
GlifName: radical
Width: 575
VWidth: 0
Flags: HMW
LayerCount: 2
Fore
SplineSet
453 701 m 258
 583 701 l 258
 600 701 607 692 604 676 c 258
 600 649 l 258
 598 632 588 624 571 624 c 258
 477 624 l 257
 266 23 l 258
 261 8 250 0 235 0 c 258
 215 0 l 258
 201 0 193 6 189 19 c 258
 112 273 l 257
 60 273 l 258
 43 273 36 282 39 298 c 258
 43 325 l 258
 46 342 56 350 72 350 c 258
 145 350 l 258
 159 350 167 344 171 331 c 258
 236 107 l 257
 423 678 l 258
 428 693 438 701 453 701 c 258
EndSplineSet
PickledDataWithLists: "(dp0
Vcom.schriftgestaltung.Glyphs.lastChange\\u000d
p1
V2015-12-22 14:20:21 +0000\\u000d
p2
s."
EndChar

StartChar: registered
Encoding: 174 174 349
GlifName: registered
Width: 575
VWidth: 0
Flags: HMW
LayerCount: 2
Fore
SplineSet
349 637 m 256
 417 637 482 609 522 561 c 256
 563 512 581 444 570 375 c 256
 559 307 520 238 463 190 c 256
 408 141 334 113 266 113 c 256
 197 113 134 141 92 190 c 256
 52 238 35 307 46 375 c 256
 57 444 95 512 151 561 c 256
 208 609 280 637 349 637 c 256
276 176 m 256
 328 176 384 197 426 234 c 256
 469 271 499 323 507 375 c 256
 515 427 502 479 471 516 c 256
 440 553 391 575 339 575 c 256
 287 575 232 553 189 516 c 256
 146 479 116 427 108 375 c 256
 100 323 113 271 144 234 c 256
 176 197 224 176 276 176 c 256
246 500 m 257
 347 500 l 257
 360 500 372 500 384 498 c 256
 396 496 407 492 416 485 c 256
 426 478 433 469 437 458 c 256
 441 447 443 435 441 422 c 256
 439 410 433 397 426 386 c 256
 418 376 408 366 396 359 c 256
 386 353 375 349 363 347 c 257
 403 281 l 258
 413 264 404 250 383 250 c 258
 362 250 l 258
 349 250 341 255 334 265 c 258
 287 344 l 257
 258 344 l 257
 247 275 l 258
 244 259 235 250 218 250 c 258
 206 250 l 258
 190 250 182 259 185 275 c 258
 217 475 l 258
 219 492 230 500 246 500 c 257
268 407 m 257
 342 407 l 258
 354 407 377 407 378 422 c 256
 380 435 358 438 347 438 c 258
 273 438 l 257
 268 407 l 257
EndSplineSet
PickledDataWithLists: "(dp0
Vcom.schriftgestaltung.Glyphs.lastChange\\u000d
p1
V2015-12-22 14:24:37 +0000\\u000d
p2
s."
EndChar

StartChar: rho
Encoding: 961 961 350
GlifName: rho
Width: 575
VWidth: 0
Flags: HMW
AnchorPoint: "mark-top" 327 500 basechar 0
LayerCount: 2
Fore
SplineSet
10 -225 m 258
 83 240 l 258
 116 445 186 512 330 512 c 256
 446 512 498 462 498 324 c 256
 498 122 417 -9 218 -9 c 256
 198 -9 167 -8 130 -4 c 257
 95 -225 l 258
 92 -241 82 -250 66 -250 c 258
 31 -250 l 258
 15 -250 7 -241 10 -225 c 258
168 240 m 258
 142 72 l 257
 178 69 210 68 230 68 c 256
 367 68 412 169 412 307 c 256
 412 403 382 435 318 435 c 256
 234 435 192 391 168 240 c 258
EndSplineSet
PickledDataWithLists: "(dp0
Vcom.schriftgestaltung.Glyphs.lastChange\\u000d
p1
V2015-12-22 12:46:09 +0000\\u000d
p2
s."
EndChar

StartChar: ring
Encoding: 730 730 351
GlifName: ring
Width: 575
VWidth: 0
GlyphClass: 2
Flags: HMW
LayerCount: 2
Fore
SplineSet
329 508 m 259
 262 508 226 545 235 604 c 256
 244 663 292 700 359 700 c 259
 426 700 462 663 453 604 c 256
 444 545 396 508 329 508 c 259
339 569 m 259
 359 569 373 583 376 604 c 256
 380 626 370 639 350 639 c 259
 330 639 315 626 311 604 c 256
 308 583 319 569 339 569 c 259
EndSplineSet
PickledDataWithLists: "(dp0
Vcom.schriftgestaltung.Glyphs.lastChange\\u000d
p1
V2015-12-22 16:32:43 +0000\\u000d
p2
s."
EndChar

StartChar: rtblock
Encoding: 9616 9616 352
GlifName: rtblock
Width: 575
VWidth: 0
Flags: HMW
LayerCount: 2
Fore
SplineSet
287 -250 m 257
 287 900 l 257
 575 900 l 257
 575 -250 l 257
 287 -250 l 257
EndSplineSet
PickledDataWithLists: "(dp0
Vcom.schriftgestaltung.Glyphs.lastChange\\u000d
p1
V2016-06-10 08:26:49 +0000\\u000d
p2
s."
EndChar

StartChar: s
Encoding: 115 115 353
GlifName: s
Width: 575
VWidth: 0
Flags: HMW
AnchorPoint: "mark-top" 327 500 basechar 0
AnchorPoint: "mark-bottom" 248 0 basechar 0
LayerCount: 2
Back
SplineSet
471 469 m 258
 460 443 l 258
 453 428 442 422 427 425 c 256
 385 432 355 435 328 434 c 256
 269 432 209 409 209 366 c 256
 209 333 241 306 301 299 c 256
 410 286 455 233 455 165 c 256
 455 56 346 -10 218 -10 c 256
 186 -10 139 -8 85 1 c 256
 68 4 63 15 69 31 c 258
 79 57 l 258
 85 73 96 79 112 77 c 256
 162 68 207 67 230 67 c 256
 305 67 368 99 368 153 c 256
 368 187 344 216 279 222 c 256
 176 232 123 285 123 352 c 256
 123 450 224 510 340 510 c 256
 366 510 410 508 456 499 c 256
 472 496 477 485 471 469 c 258
EndSplineSet
Fore
SplineSet
471 469 m 258
 460 443 l 258
 453 428 442 422 427 425 c 256
 385 432 355.018512172 434 328 434 c 259
 268.966111427 434 209 409 209 366 c 263
 209 261.995192419 455 340.025712397 455 165 c 259
 455 56 346 -10 218 -10 c 259
 186 -10 139 -8 85 1 c 256
 68 4 63 15 69 31 c 258
 79 57 l 258
 85 73 96 79 112 77 c 256
 162 68 207 67 230 67 c 259
 305 67 368 99 368 153 c 259
 368 264.004504413 123 183.925611707 123 352 c 259
 123 450 224 510 340 510 c 259
 366 510 410 508 456 499 c 256
 472 496 477 485 471 469 c 258
EndSplineSet
PickledDataWithLists: "(dp0
Vcom.schriftgestaltung.Glyphs.lastChange\\u000d
p1
V2016-06-09 18:35:34 +0000\\u000d
p2
s."
EndChar

StartChar: section
Encoding: 167 167 358
GlifName: section
Width: 575
VWidth: 0
Flags: HMW
LayerCount: 2
Fore
SplineSet
372 710 m 256
 398 710 442 708 488 699 c 256
 504 696 509 685 502 669 c 258
 491 643 l 258
 485 628 474 622 458 625 c 256
 417 632 379 634 360 634 c 256
 290 632 248 609 241 568 c 256
 234 524 267 489 333 469 c 256
 452 430 491 391 480 321 c 256
 472 269 436 232 376 212 c 257
 427 178 450 132 441 76 c 256
 426 -19 347 -70 216 -70 c 256
 190 -70 132 -68 85 -59 c 256
 69 -56 64 -45 71 -29 c 257
 81 -3 l 258
 87 13 99 19 115 16 c 256
 156 8 209 7 229 7 c 256
 305 8 349 32 356 73 c 256
 363 116 331 151 266 172 c 256
 146 210 106 250 117 320 c 256
 125 372 161 408 222 428 c 257
 170 462 147 509 156 564 c 256
 171 659 247 710 372 710 c 256
316 242 m 257
 362 256 388 278 393 306 c 256
 400 346 375 369 300 392 c 257
 292 394 285 397 278 400 c 257
 235 386 209 364 204 335 c 256
 198 294 222 271 298 248 c 258
 316 242 l 257
EndSplineSet
PickledDataWithLists: "(dp0
Vcom.schriftgestaltung.Glyphs.lastChange\\u000d
p1
V2015-12-22 14:24:59 +0000\\u000d
p2
s."
EndChar

StartChar: semicolon
Encoding: 59 59 359
GlifName: semicolon
Width: 575
VWidth: 0
Flags: HMW
LayerCount: 2
Fore
SplineSet
287 550 m 258
 387 550 l 258
 404 550 411 541 408 525 c 258
 393 435 l 258
 390 418 380 410 364 410 c 258
 264 410 l 258
 247 410 240 419 243 435 c 258
 258 525 l 258
 261 542 271 550 287 550 c 258
322 -2 m 273
 294 -181 217 -247 38 -247 c 259
 21 -247 14 -238 17 -222 c 258
 21 -196 l 258
 24 -179 34 -171 50 -171 c 259
 167 -171 219 -125 237 0 c 265
 197 0 l 258
 180 0 173 9 176 25 c 258
 191 115 l 258
 194 132 204 140 220 140 c 258
 320 140 l 258
 337 140 344 131 341 115 c 258
 322 -2 l 273
EndSplineSet
PickledDataWithLists: "(dp0
Vcom.schriftgestaltung.Glyphs.lastChange\\u000d
p1
V2015-12-23 09:18:29 +0000\\u000d
p2
s."
EndChar

StartChar: seven
Encoding: 55 55 360
GlifName: seven
Width: 575
VWidth: 0
Flags: HMW
LayerCount: 2
Fore
SplineSet
181 700 m 258
 561 700 l 258
 578 700 585 692 582 676 c 258
 575 626 l 258
 566 572 547 528 504 465 c 258
 377 280 l 258
 317 191 280 105 266 25 c 256
 263 8 253 0 237 0 c 258
 202 0 l 258
 185 0 179 9 181 25 c 256
 194 106 237 202 309 312 c 258
 427 492 l 258
 467 552 483 587 489 624 c 257
 229 624 l 257
 212 518 l 258
 209 501 199 493 183 493 c 258
 148 493 l 258
 131 493 124 502 127 518 c 258
 152 675 l 258
 155 692 165 700 181 700 c 258
EndSplineSet
PickledDataWithLists: "(dp0
Vcom.schriftgestaltung.Glyphs.lastChange\\u000d
p1
V2015-12-22 20:52:37 +0000\\u000d
p2
s."
EndChar

StartChar: seven.dnom
Encoding: 65576 -1 361
GlifName: seven.dnom
Width: 250
VWidth: 0
Flags: HMW
LayerCount: 2
Fore
SplineSet
72 360 m 257
 263 360 l 257
 277 360 286 350 284 338 c 257
 280 313 l 257
 276 285 265 261 242 228 c 257
 178 135 l 257
 150 93 131 51 125 12 c 257
 123 0 111 -10 97 -10 c 257
 80 -10 l 257
 66 -10 57 0 59 12 c 257
 66 54 88 104 125 160 c 257
 184 250 l 257
 199 273 207 288 211 302 c 257
 105 302 l 257
 98 259 l 257
 97 247 84 237 71 237 c 257
 53 237 l 257
 39 237 31 247 32 259 c 257
 45 338 l 257
 47 350 59 360 72 360 c 257
EndSplineSet
EndChar

StartChar: seven.hex
Encoding: 65577 -1 362
GlifName: seven.hex
Width: 575
VWidth: 0
Flags: HMW
LayerCount: 2
Fore
SplineSet
358 875 m 258
 358 829 l 258
 358 812 349 804 333 804 c 258
 298 804 l 258
 281 804 273 813 273 829 c 258
 273 875 l 258
 273 891 282 900 298 900 c 258
 333 900 l 258
 349 900 358 891 358 875 c 258
502 875 m 258
 502 829 l 258
 502 812 493 804 477 804 c 258
 442 804 l 258
 425 804 417 813 417 829 c 258
 417 875 l 258
 417 891 426 900 442 900 c 258
 477 900 l 258
 493 900 502 891 502 875 c 258
646 875 m 258
 646 829 l 258
 646 812 637 804 621 804 c 258
 586 804 l 258
 569 804 561 813 561 829 c 258
 561 875 l 258
 561 891 570 900 586 900 c 258
 621 900 l 258
 637 900 646 891 646 875 c 258
EndSplineSet
Refer: 360 55 N 1 0 0 1 0 0 2
PickledDataWithLists: "(dp0
Vcom.schriftgestaltung.Glyphs.lastChange\\u000d
p1
V2016-02-10 13:21:27 +0000\\u000d
p2
s."
EndChar

StartChar: shade
Encoding: 9618 9618 365
GlifName: shade
Width: 575
VWidth: 0
Flags: HMW
LayerCount: 2
Fore
SplineSet
0 -250 m 257
 0 -194 l 257
 28 -250 l 257
 0 -250 l 257
143 -250 m 257
 0 36 l 257
 0 92 l 257
 171 -250 l 257
 143 -250 l 257
286 -250 m 257
 0 322 l 257
 0 378 l 257
 314 -250 l 257
 286 -250 l 257
429 -250 m 257
 0 608 l 257
 0 664 l 257
 457 -250 l 257
 429 -250 l 257
575 -250 m 257
 0 900 l 257
 28 900 l 257
 575 -194 l 257
 575 -250 l 257
575 36 m 257
 143 900 l 257
 171 900 l 257
 575 92 l 257
 575 36 l 257
575 322 m 257
 286 900 l 257
 314 900 l 257
 575 378 l 257
 575 322 l 257
575 608 m 257
 429 900 l 257
 457 900 l 257
 575 664 l 257
 575 608 l 257
EndSplineSet
PickledDataWithLists: "(dp0
Vcom.schriftgestaltung.Glyphs.lastChange\\u000d
p1
V2016-06-10 08:26:49 +0000\\u000d
p2
s."
EndChar

StartChar: sigma
Encoding: 963 963 366
GlifName: sigma
Width: 575
VWidth: 0
Flags: HMW
AnchorPoint: "mark-top" 327 500 basechar 0
LayerCount: 2
Fore
SplineSet
532 423 m 258
 484 423 l 257
 503 377 513 331 513 287 c 256
 513 115 413 -15 243 -15 c 256
 126 -15 60 61 60 187 c 256
 60 376 168 500 355 500 c 258
 545 500 l 258
 561 500 568 491 566 475 c 258
 561 448 l 258
 559 432 548 423 532 423 c 258
396 423 m 257
 342 423 l 258
 210 423 146 332 146 200 c 256
 146 114 185 62 255 62 c 256
 372 62 427 168 427 287 c 256
 427 332 417 378 396 423 c 257
EndSplineSet
PickledDataWithLists: "(dp0
Vcom.schriftgestaltung.Glyphs.lastChange\\u000d
p1
V2015-12-22 12:47:01 +0000\\u000d
p2
s."
EndChar

StartChar: six
Encoding: 54 54 367
GlifName: six
Width: 575
VWidth: 0
Flags: HMW
LayerCount: 2
Fore
SplineSet
502 672 m 257
 491 644 l 258
 485 629 474 622 458 625 c 256
 432 630 410 632 393 632 c 259
 313 632 215 586 168 402 c 257
 225 419 271 429 313 429 c 259
 418 429 494 365 494 251 c 259
 494 112 390 -10 242 -10 c 259
 125 -10 55 61 55 223 c 259
 55 461 178 710 403 710 c 259
 427 710 456 707 487 702 c 256
 502 699 507 688 502 672 c 257
142 237 m 259
 142 112 193 68 257 68 c 259
 350 68 407 158 407 240 c 259
 407 312 366 351 297 351 c 259
 269 351 217 349 150 317 c 257
 145 284 142 262 142 237 c 259
EndSplineSet
PickledDataWithLists: "(dp0
Vcom.schriftgestaltung.Glyphs.lastChange\\u000d
p1
V2015-12-22 20:52:27 +0000\\u000d
p2
s."
EndChar

StartChar: six.dnom
Encoding: 65579 -1 368
GlifName: six.dnom
Width: 250
VWidth: 0
Flags: HMW
LayerCount: 2
Fore
SplineSet
244 334 m 257
 239 319 l 257
 234 310 220 300 207 303 c 257
 194 305 184 306 173 306 c 256
 132 306 99 286 77 200 c 257
 100 206 124 210 146 210 c 256
 211 210 248 167 238 103 c 256
 226 29 177 -15 101 -15 c 256
 18 -15 -16 45 0 150 c 256
 26 315 101 365 182 365 c 256
 197 365 213 364 228 361 c 257
 243 359 247 345 244 334 c 257
65 137 m 257
 56 68 73 44 110 44 c 256
 148 44 164 58 171 103 c 256
 175 133 162 151 136 151 c 256
 115 151 93 146 65 137 c 257
EndSplineSet
EndChar

StartChar: six.hex
Encoding: 65580 -1 369
GlifName: six.hex
Width: 575
VWidth: 0
Flags: HMW
LayerCount: 2
Fore
SplineSet
358 875 m 258
 358 829 l 258
 358 812 349 804 333 804 c 258
 298 804 l 258
 281 804 273 813 273 829 c 258
 273 875 l 258
 273 891 282 900 298 900 c 258
 333 900 l 258
 349 900 358 891 358 875 c 258
502 875 m 258
 502 829 l 258
 502 812 493 804 477 804 c 258
 442 804 l 258
 425 804 417 813 417 829 c 258
 417 875 l 258
 417 891 426 900 442 900 c 258
 477 900 l 258
 493 900 502 891 502 875 c 258
EndSplineSet
Refer: 367 54 N 1 0 0 1 0 0 2
PickledDataWithLists: "(dp0
Vcom.schriftgestaltung.Glyphs.lastChange\\u000d
p1
V2016-02-10 13:21:08 +0000\\u000d
p2
s."
EndChar

StartChar: slash
Encoding: 47 47 371
GlifName: slash
Width: 575
VWidth: 0
Flags: HMW
LayerCount: 2
Back
SplineSet
589 662 m 258
 122 -60 l 258
 113 -74 101 -78 88 -71 c 258
 63 -58 l 258
 50 -51 47 -39 56 -25 c 258
 522 697 l 258
 531 711 544 715 557 708 c 258
 582 695 l 258
 595 688 598 676 589 662 c 258
562 657 m 258
 570 670 566 683 553 691 c 258
 527 706 l 258
 514 714 501 710 493 697 c 258
 84 -12 l 258
 76 -25 80 -38 93 -46 c 258
 119 -61 l 258
 132 -69 145 -65 153 -52 c 258
 562 657 l 258
EndSplineSet
Fore
SplineSet
579 662 m 262
 112 -60 l 262
 103 -74 91 -78 78 -71 c 262
 53 -58 l 262
 40 -51 37 -39 46 -25 c 262
 512 697 l 262
 521 711 534 715 547 708 c 262
 572 695 l 262
 585 688 588 676 579 662 c 262
EndSplineSet
PickledDataWithLists: "(dp0
Vcom.schriftgestaltung.Glyphs.lastChange\\u000d
p1
V2016-06-09 18:35:33 +0000\\u000d
p2
s."
EndChar

StartChar: sterling
Encoding: 163 163 373
GlifName: sterling
Width: 575
VWidth: 0
Flags: HMW
LayerCount: 2
Fore
SplineSet
522 518 m 258
 487 518 l 258
 471 518 462 527 462 544 c 256
 462 588 445 634 388 634 c 256
 343 634 304 600 295 538 c 258
 271 389 l 257
 447 389 l 258
 463 389 471 380 468 364 c 258
 464 337 l 258
 461 321 451 312 435 312 c 258
 259 312 l 257
 222 77 l 257
 438 77 l 258
 455 77 461 68 459 52 c 258
 454 25 l 258
 452 9 442 0 425 0 c 258
 70 0 l 258
 54 0 47 9 49 25 c 258
 54 52 l 258
 56 68 67 77 83 77 c 258
 137 77 l 257
 174 312 l 257
 120 312 l 258
 104 312 96 321 99 337 c 258
 103 363 l 258
 106 380 116 389 132 389 c 258
 186 389 l 257
 210 538 l 258
 230 664 308 710 400 710 c 256
 520 710 549 631 549 544 c 256
 549 527 538 518 522 518 c 258
EndSplineSet
PickledDataWithLists: "(dp0
Vcom.schriftgestaltung.Glyphs.lastChange\\u000d
p1
V2015-12-22 14:04:47 +0000\\u000d
p2
s."
EndChar

StartChar: summation
Encoding: 8721 8721 374
GlifName: summation
Width: 575
VWidth: 0
Flags: HMW
LayerCount: 2
Fore
SplineSet
592 674 m 257
 588 647 l 257
 585 631 575 622 559 622 c 258
 232 622 l 257
 448 367 l 258
 458 356 456 344 442 332 c 258
 146 77 l 257
 473 77 l 258
 489 77 496 68 494 52 c 258
 489 25 l 258
 487 9 476 0 460 0 c 258
 37 0 l 258
 21 0 14 9 17 26 c 258
 19 43 l 258
 21 57 25 65 33 73 c 257
 353 349 l 257
 121 626 l 257
 115 634 114 642 116 656 c 258
 119 673 l 258
 122 690 132 699 148 699 c 258
 571 699 l 258
 587 699 595 690 592 674 c 257
EndSplineSet
PickledDataWithLists: "(dp0
Vcom.schriftgestaltung.Glyphs.lastChange\\u000d
p1
V2015-12-22 12:21:09 +0000\\u000d
p2
s."
EndChar

StartChar: t
Encoding: 116 116 375
GlifName: t
Width: 575
VWidth: 0
Flags: HMW
AnchorPoint: "mark-bottom" 248 0 basechar 0
AnchorPoint: "mark-topright" 511 700 basechar 0
LayerCount: 2
Fore
SplineSet
456 57 m 258
 458 31 l 258
 460 15 451 4 435 1 c 256
 380 -9 337 -10 310 -10 c 256
 211 -10 166 23 166 105 c 256
 166 119 167 135 170 152 c 258
 214 424 l 257
 138 424 l 258
 122 424 114 433 117 449 c 258
 121 475 l 258
 123 492 134 500 150 500 c 258
 225 500 l 257
 246 635 l 258
 249 651 259 660 275 660 c 258
 311 660 l 258
 327 660 335 651 332 635 c 258
 311 500 l 257
 475 500 l 258
 491 500 498 492 496 475 c 258
 492 449 l 258
 489 433 479 424 463 424 c 258
 299 424 l 257
 255 152 l 258
 253 141 253 131 253 123 c 256
 253 82 272 67 322 67 c 256
 345 67 385 69 429 76 c 256
 446 79 455 73 456 57 c 258
EndSplineSet
PickledDataWithLists: "(dp0
Vcom.schriftgestaltung.Glyphs.lastChange\\u000d
p1
V2016-06-09 18:35:34 +0000\\u000d
p2
s."
EndChar

StartChar: tau
Encoding: 964 964 376
GlifName: tau
Width: 575
VWidth: 0
Flags: HMW
AnchorPoint: "mark-top" 327 500 basechar 0
LayerCount: 2
Fore
SplineSet
475 57 m 257
 479 31 l 257
 483 16 475 4 457 0 c 256
 419 -9 388 -10 368 -10 c 256
 254 -10 212 40 229 150 c 258
 273 424 l 257
 123 424 l 258
 107 424 99 432 102 449 c 258
 106 475 l 258
 108 492 119 500 135 500 c 257
 520 500 l 257
 537 500 543 492 541 475 c 258
 537 449 l 258
 534 432 525 424 507 423 c 257
 357 423 l 257
 314 150 l 258
 305 91 320 68 380 67 c 256
 396 67 420 68 446 74 c 257
 463 77 472 72 475 57 c 257
EndSplineSet
PickledDataWithLists: "(dp0
Vcom.schriftgestaltung.Glyphs.lastChange\\u000d
p1
V2016-05-30 08:33:06 +0000\\u000d
p2
s."
EndChar

StartChar: tbar
Encoding: 359 359 377
GlifName: tbar
Width: 575
VWidth: 0
Flags: HMW
LayerCount: 2
Fore
SplineSet
447 68 m 257
 454 42 l 258
 458 27 452 15 435 10 c 257
 400 -2 362 -10 327 -10 c 256
 220 -10 174 54 174 148 c 256
 174 168 176 187 182 224 c 257
 106 224 l 258
 90 224 82 233 85 249 c 258
 89 275 l 258
 92 292 102 300 118 300 c 258
 194 300 l 257
 214 424 l 257
 138 424 l 258
 122 424 114 433 117 449 c 258
 121 475 l 258
 123 492 134 500 150 500 c 258
 226 500 l 257
 247 635 l 258
 250 651 260 660 276 660 c 258
 311 660 l 258
 327 660 335 651 332 635 c 258
 311 500 l 257
 475 500 l 258
 491 500 498 492 496 475 c 258
 492 449 l 258
 489 433 479 424 463 424 c 258
 299 424 l 257
 279 300 l 257
 443 300 l 258
 459 300 467 292 464 275 c 258
 460 249 l 258
 457 233 447 224 431 224 c 258
 267 224 l 257
 262 191 260 172 260 154 c 256
 260 87 291 68 339 68 c 256
 364 68 388 72 416 82 c 256
 432 88 443 83 447 68 c 257
EndSplineSet
PickledDataWithLists: "(dp0
Vcom.schriftgestaltung.Glyphs.lastChange\\u000d
p1
V2016-06-09 18:35:34 +0000\\u000d
p2
s."
EndChar

StartChar: therefore
Encoding: 8756 8756 379
GlifName: therefore
Width: 575
VWidth: 0
Flags: HMW
LayerCount: 2
Fore
SplineSet
275 500 m 258
 380 500 l 258
 397 500 404 491 401 475 c 258
 387 388 l 258
 384 371 374 363 358 363 c 258
 253 363 l 258
 236 363 229 372 232 388 c 258
 246 475 l 258
 249 492 259 500 275 500 c 258
367 198 m 258
 472 198 l 258
 489 198 496 189 493 173 c 258
 479 86 l 258
 476 69 466 61 450 61 c 258
 345 61 l 258
 328 61 321 70 324 86 c 258
 338 173 l 258
 341 190 351 198 367 198 c 258
87 198 m 258
 192 198 l 258
 209 198 216 189 213 173 c 258
 199 86 l 258
 196 69 186 61 170 61 c 258
 65 61 l 258
 48 61 41 70 44 86 c 258
 58 173 l 258
 61 190 71 198 87 198 c 258
EndSplineSet
PickledDataWithLists: "(dp0
Vcom.schriftgestaltung.Glyphs.lastChange\\u000d
p1
V2015-12-22 14:20:54 +0000\\u000d
p2
s."
EndChar

StartChar: theta
Encoding: 952 952 380
GlifName: theta
Width: 575
VWidth: 0
Flags: HMW
AnchorPoint: "mark-top" 360 700 basechar 0
LayerCount: 2
Fore
SplineSet
99 350 m 256
 137 588 225 710 359 710 c 256
 464 710 516 636 516 490 c 256
 516 449 512 402 504 350 c 256
 467 112 379 -10 245 -10 c 256
 140 -10 87 65 87 212 c 256
 87 253 91 299 99 350 c 256
191 389 m 257
 424 389 l 257
 429 425 431 457 431 485 c 256
 431 584 402 634 347 634 c 256
 275 634 222 551 191 389 c 257
412 311 m 257
 179 311 l 257
 175 276 172 245 172 217 c 256
 172 118 201 67 257 67 c 256
 328 67 382 150 412 311 c 257
EndSplineSet
PickledDataWithLists: "(dp0
Vcom.schriftgestaltung.Glyphs.lastChange\\u000d
p1
V2015-12-22 16:32:52 +0000\\u000d
p2
s."
EndChar

StartChar: thorn
Encoding: 254 254 381
GlifName: thorn
Width: 575
VWidth: 0
Flags: HMW
AnchorPoint: "top" 340 500 basechar 0
AnchorPoint: "bottom" 260 0 basechar 0
LayerCount: 2
Fore
SplineSet
237 676 m 257
 211 507 l 257
 247 511 278 512 300 512 c 256
 437 512 498 461 498 319 c 256
 498 122 416 -8 218 -8 c 256
 198 -8 167 -7 130 -4 c 257
 103 -174 l 258
 100 -190 91 -200 75 -200 c 258
 40 -200 l 258
 24 -200 15 -193 18 -176 c 258
 152 674 l 258
 155 689 164 700 180 700 c 258
 215 700 l 258
 232 700 240 693 237 676 c 257
199 432 m 257
 142 72 l 257
 178 69 210 68 230 68 c 256
 366 68 412 168 412 305 c 256
 412 403 378 435 288 435 c 256
 270 435 238 435 199 432 c 257
EndSplineSet
PickledDataWithLists: "(dp0
Vcom.schriftgestaltung.Glyphs.lastChange\\u000d
p1
V2016-06-09 18:35:34 +0000\\u000d
p2
s."
EndChar

StartChar: three
Encoding: 51 51 382
GlifName: three
Width: 575
VWidth: 0
Flags: HMW
LayerCount: 2
Fore
SplineSet
184 637 m 258
 181 665 l 258
 179 680 186 692 203 696 c 256
 240 705 281 710 321 710 c 259
 428 710 527 670 527 553 c 259
 527 466 469 407 384 364 c 257
 435 338 481 287 481 202 c 259
 481 66 353 -10 202 -10 c 259
 160 -10 119 -5 83 4 c 256
 68 8 65 20 71 35 c 258
 83 63 l 258
 90 78 102 83 117 79 c 256
 146 72 178 68 214 68 c 259
 325 68 396 115 396 204 c 259
 396 279 343 324 262 324 c 258
 211 324 l 258
 194 324 187 333 190 349 c 258
 194 376 l 258
 197 393 207 401 223 401 c 258
 274 401 l 258
 375 401 440 459 440 539 c 259
 440 610 390 632 309 632 c 259
 276 632 244 628 213 621 c 256
 196 617 186 622 184 637 c 258
EndSplineSet
PickledDataWithLists: "(dp0
Vcom.schriftgestaltung.Glyphs.lastChange\\u000d
p1
V2015-12-22 20:51:58 +0000\\u000d
p2
s."
EndChar

StartChar: three.dnom
Encoding: 65582 -1 383
GlifName: three.dnom
Width: 250
VWidth: 0
Flags: HMW
LayerCount: 2
Fore
SplineSet
60 316 m 258
 59 330 l 257
 58 340 64 354 80 358 c 256
 99 363 121 365 142 365 c 256
 204 365 266 338 254 263 c 256
 248 222 230 193 196 175 c 257
 225 158 238 129 232 92 c 256
 219 13 144 -15 80 -15 c 256
 58 -15 36 -13 17 -8 c 256
 3 -4 1 10 5 21 c 257
 11 35 l 258
 16 45 31 53 43 50 c 256
 58 46 72 44 89 44 c 256
 133 44 159 56 165 92 c 256
 170 126 147 147 109 147 c 258
 84 147 l 258
 70 147 60 158 62 170 c 258
 64 183 l 258
 66 195 79 206 93 206 c 258
 118 206 l 258
 155 206 182 228 187 263 c 256
 192 294 173 306 133 306 c 256
 118 306 103 304 87 301 c 257
 88 301 l 257
 76 298 62 304 60 316 c 258
EndSplineSet
EndChar

StartChar: three.hex
Encoding: 65583 -1 384
GlifName: three.hex
Width: 575
VWidth: 0
Flags: HMW
LayerCount: 2
Fore
SplineSet
502 875 m 258
 502 829 l 258
 502 812 494 804 477 804 c 258
 442 804 l 258
 426 804 417 813 417 829 c 258
 417 875 l 258
 417 891 426 900 442 900 c 258
 477 900 l 258
 494 900 502 891 502 875 c 258
646 875 m 258
 646 829 l 258
 646 812 637 804 621 804 c 258
 586 804 l 258
 569 804 561 813 561 829 c 258
 561 875 l 258
 561 891 570 900 586 900 c 258
 621 900 l 258
 637 900 646 891 646 875 c 258
EndSplineSet
Refer: 382 51 N 1 0 0 1 0 0 2
PickledDataWithLists: "(dp0
Vcom.schriftgestaltung.Glyphs.lastChange\\u000d
p1
V2016-02-10 13:19:26 +0000\\u000d
p2
s."
EndChar

StartChar: tilde
Encoding: 732 732 388
GlifName: tilde
Width: 575
VWidth: 0
GlyphClass: 2
Flags: HMW
LayerCount: 2
Fore
SplineSet
164 585 m 258
 152 594 l 258
 140 603 140 615 152 629 c 256
 193 673 236 698 275 698 c 259
 299 698 330 685 362 661 c 256
 383 646 402 638 419 638 c 259
 438 638 458 647 476 664 c 257
 487 676 500 678 512 670 c 258
 523 661 l 258
 536 651 536 639 523 626 c 256
 481 581 438 557 400 557 c 259
 377 557 346 570 313 593 c 256
 292 608 269 616 251 616 c 259
 235 616 218 607 200 591 c 256
 188 579 175 577 164 585 c 258
EndSplineSet
PickledDataWithLists: "(dp0
Vcom.schriftgestaltung.Glyphs.lastChange\\u000d
p1
V2015-12-22 16:32:44 +0000\\u000d
p2
s."
EndChar

StartChar: trademark
Encoding: 8482 8482 389
GlifName: trademark
Width: 575
VWidth: 0
Flags: HMW
LayerCount: 2
Fore
SplineSet
296 684 m 258
 293 667 l 258
 291 657 285 651 275 651 c 258
 220 651 l 257
 175 371 l 258
 174 361 168 355 157 355 c 258
 136 355 l 258
 125 355 121 361 122 371 c 258
 167 651 l 257
 112 651 l 258
 102 651 97 657 99 667 c 258
 102 684 l 258
 103 693 109 699 119 699 c 258
 282 699 l 258
 292 699 297 694 296 684 c 258
597 686 m 258
 547 371 l 258
 546 361 540 355 530 355 c 258
 509 355 l 258
 499 355 493 360 495 367 c 256
 503 419 519 517 532 590 c 257
 486 512 l 258
 474 490 456 478 436 478 c 256
 414 478 399 490 393 512 c 258
 375 590 l 257
 368 531 353 434 343 367 c 256
 341 360 336 355 325 355 c 258
 304 355 l 258
 294 355 289 361 290 371 c 258
 340 686 l 258
 342 696 349 702 360 702 c 256
 371 702 375 701 382 699 c 256
 390 694 394 688 396 679 c 258
 429 531 l 258
 430 524 434 518 442 518 c 256
 450 518 456 524 461 531 c 258
 539 680 l 258
 545 689 550 695 561 699 c 256
 566 701 573 702 584 702 c 256
 595 702 599 696 597 686 c 258
EndSplineSet
PickledDataWithLists: "(dp0
Vcom.schriftgestaltung.Glyphs.lastChange\\u000d
p1
V2015-12-22 14:25:18 +0000\\u000d
p2
s."
EndChar

StartChar: two
Encoding: 50 50 390
GlifName: two
Width: 575
VWidth: 0
Flags: HMW
LayerCount: 2
Fore
SplineSet
143 77 m 257
 462 77 l 258
 479 77 486 68 483 52 c 258
 478 24 l 258
 475 7 465 -1 449 -1 c 258
 69 -1 l 258
 53 -1 46 8 48 24 c 258
 52 48 l 258
 73 183 190 256 268 309 c 256
 363 375 454 438 454 535 c 259
 454 605 406 632 326 632 c 259
 285 632 244 624 197 608 c 256
 180 603 170 608 166 623 c 258
 161 649 l 258
 158 664 164 675 180 681 c 256
 231 699 287 710 338 710 c 259
 449 710 541 663 541 547 c 259
 541 410 425 327 312 248 c 256
 233 194 160 144 143 77 c 257
EndSplineSet
PickledDataWithLists: "(dp0
Vcom.schriftgestaltung.Glyphs.lastChange\\u000d
p1
V2015-12-22 20:51:50 +0000\\u000d
p2
s."
EndChar

StartChar: two.dnom
Encoding: 65585 -1 391
GlifName: two.dnom
Width: 250
VWidth: 0
Flags: HMW
LayerCount: 2
Fore
SplineSet
68 49 m 257
 213 49 l 258
 228 49 235 37 234 26 c 258
 231 12 l 258
 230 1 218 -11 204 -11 c 258
 14 -11 l 258
 0 -11 -10 0 -8 12 c 258
 -6 24 l 258
 6 97 69 136 109 163 c 256
 155 195 188 219 194 257 c 256
 200 292 180 306 142 306 c 256
 122 306 105 302 81 295 c 257
 68 291 55 297 52 308 c 258
 49 321 l 257
 46 332 55 345 68 350 c 257
 94 360 124 365 151 365 c 256
 216 365 273 333 261 257 c 256
 251 192 193 152 142 116 c 256
 108 93 80 73 68 49 c 257
EndSplineSet
EndChar

StartChar: two.hex
Encoding: 65586 -1 392
GlifName: two.hex
Width: 575
VWidth: 0
Flags: HMW
LayerCount: 2
Fore
SplineSet
502 875 m 258
 502 829 l 258
 502 812 494 804 477 804 c 258
 442 804 l 258
 426 804 417 813 417 829 c 258
 417 875 l 258
 417 891 426 900 442 900 c 258
 477 900 l 258
 494 900 502 891 502 875 c 258
EndSplineSet
Refer: 390 50 N 1 0 0 1 0 0 2
PickledDataWithLists: "(dp0
Vcom.schriftgestaltung.Glyphs.lastChange\\u000d
p1
V2016-05-30 08:38:37 +0000\\u000d
p2
s."
EndChar

StartChar: twodotenleader
Encoding: 8229 8229 394
GlifName: twodotenleader
Width: 575
VWidth: 0
Flags: HMW
LayerCount: 2
Fore
SplineSet
338 99 m 258
 393 99 l 258
 410 99 417 90 414 74 c 258
 406 25 l 258
 403 8 393 0 377 0 c 258
 322 0 l 258
 305 0 298 9 301 25 c 258
 309 74 l 258
 312 91 322 99 338 99 c 258
134 99 m 258
 189 99 l 258
 206 99 213 90 210 74 c 258
 202 25 l 258
 199 8 189 0 173 0 c 258
 118 0 l 258
 101 0 94 9 97 25 c 258
 105 74 l 258
 108 91 118 99 134 99 c 258
EndSplineSet
PickledDataWithLists: "(dp0
Vcom.schriftgestaltung.Glyphs.lastChange\\u000d
p1
V2015-12-22 13:48:56 +0000\\u000d
p2
s."
EndChar

StartChar: u
Encoding: 117 117 395
GlifName: u
Width: 575
VWidth: 0
Flags: HMW
AnchorPoint: "mark-top" 327 500 basechar 0
AnchorPoint: "mark-bottom" 248 0 basechar 0
AnchorPoint: "mark-ogonek" 412 0 basechar 0
LayerCount: 2
Fore
SplineSet
364 25 m 258
 370 63 l 257
 318 15 263 -10 212 -10 c 259
 122 -10 53 31 84 222 c 258
 124 475 l 258
 126 491 136 500 153 500 c 258
 188 500 l 258
 204 500 211 491 209 475 c 258
 169 222 l 258
 147 86 184 66 242 66 c 259
 283 66 331 95 384 151 c 257
 436 475 l 258
 438 491 449 500 465 500 c 258
 500 500 l 258
 516 500 523 491 521 475 c 258
 450 30 l 258
 448 14 438 0 422 0 c 258
 385 0 l 258
 369 0 362 9 364 25 c 258
EndSplineSet
EndChar

StartChar: underscore
Encoding: 95 95 403
GlifName: underscore
Width: 575
VWidth: 0
Flags: HMW
LayerCount: 2
Fore
SplineSet
24 -77 m 258
 7 -77 0 -68 3 -52 c 258
 7 -25 l 258
 10 -8 20 0 36 0 c 258
 459 0 l 258
 476 0 483 -9 480 -25 c 258
 476 -52 l 258
 473 -69 463 -77 447 -77 c 258
 24 -77 l 258
EndSplineSet
PickledDataWithLists: "(dp0
Vcom.schriftgestaltung.Glyphs.lastChange\\u000d
p1
V2015-12-23 09:18:36 +0000\\u000d
p2
s."
EndChar

StartChar: mu
Encoding: 181 181 405
GlifName: uni00B_5
Width: 575
VWidth: 0
Flags: HMW
LayerCount: 2
Fore
SplineSet
470 500 m 258
 505 500 l 258
 522 500 528 492 526 475 c 258
 455 30 l 258
 453 14 444 5 428 3 c 256
 353 -9 290 -10 257 -10 c 256
 200 -10 159 0 134 23 c 257
 97 -213 l 258
 94 -229 84 -238 68 -238 c 258
 33 -238 l 258
 17 -238 9 -229 12 -213 c 258
 121 475 l 258
 123 492 134 500 150 500 c 258
 185 500 l 258
 202 500 208 491 206 475 c 258
 161 193 l 258
 146 99 177 67 269 67 c 256
 293 67 331 68 377 71 c 257
 441 475 l 258
 443 491 454 500 470 500 c 258
EndSplineSet
PickledDataWithLists: "(dp0
Vcom.schriftgestaltung.Glyphs.lastChange\\u000d
p1
V2015-12-22 16:32:55 +0000\\u000d
p2
s."
EndChar

StartChar: uni0237
Encoding: 567 567 408
GlifName: uni0237
Width: 575
VWidth: 0
Flags: HMW
AnchorPoint: "mark-top" 459 500 basechar 0
LayerCount: 2
Fore
SplineSet
504 365 m 256
 504 345 502 324 498 300 c 258
 469 120 l 258
 436 -90 308 -160 182 -160 c 256
 131 -160 81 -150 37 -130 c 256
 23 -124 21 -112 29 -97 c 258
 43 -73 l 258
 51 -58 63 -53 77 -59 c 256
 119 -75 153 -82 194 -82 c 256
 283 -82 359 -36 383 120 c 258
 412 300 l 258
 415 319 417 336 417 351 c 256
 417 413 389 435 333 435 c 256
 309 435 281 431 248 425 c 256
 231 422 221 429 222 445 c 258
 221 473 l 258
 221 488 229 499 246 502 c 256
 283 508 317 512 348 512 c 256
 440 512 504 478 504 365 c 256
EndSplineSet
PickledDataWithLists: "(dp0
Vcom.schriftgestaltung.Glyphs.lastChange\\u000d
p1
V2016-06-09 18:35:33 +0000\\u000d
p2
s."
EndChar

StartChar: uni0394
Encoding: 916 916 409
GlifName: uni0394
Width: 575
VWidth: 0
Flags: HMW
AnchorPoint: "mark-top" 360 700 basechar 0
LayerCount: 2
Fore
SplineSet
439 621 m 258
 523 28 l 257
 525 11 514 0 497 0 c 257
 -1 0 l 257
 -19 0 -26 11 -18 28 c 258
 254 621 l 258
 281 682 323 712 360 712 c 256
 397 712 430 681 439 621 c 258
336 607 m 258
 88 75 l 257
 432 75 l 257
 354 607 l 258
 350 625 344 625 336 607 c 258
EndSplineSet
PickledDataWithLists: "(dp0
Vcom.schriftgestaltung.Glyphs.lastChange\\u000d
p1
V2015-12-22 12:15:12 +0000\\u000d
p2
s."
EndChar

StartChar: uni03A9
Encoding: 937 937 410
GlifName: uni03A_9
Width: 575
VWidth: 0
Flags: HMW
AnchorPoint: "mark-top" 360 700 basechar 0
LayerCount: 2
Fore
SplineSet
361 76 m 257
 460 76 l 258
 476 76 484 67 481 51 c 258
 477 25 l 258
 475 8 464 0 448 0 c 258
 299 0 l 258
 282 0 276 9 278 25 c 258
 298 147 l 258
 300 162 308 170 323 176 c 256
 381 200 408 269 420 343 c 258
 438 457 l 258
 441 478 443 498 443 517 c 256
 443 583 420 634 349 634 c 256
 257 634 218 549 204 457 c 258
 186 343 l 258
 174 269 179 200 229 176 c 256
 242 170 248 162 246 147 c 258
 226 25 l 258
 224 9 214 0 197 0 c 258
 48 0 l 258
 32 0 25 8 27 25 c 258
 31 51 l 258
 34 67 44 76 60 76 c 258
 159 76 l 257
 166 120 l 257
 100 162 85 244 101 343 c 258
 119 457 l 258
 142 602 218 710 361 710 c 256
 480 710 529 635 529 527 c 256
 529 505 527 482 523 457 c 258
 505 343 l 258
 489 244 448 162 368 120 c 257
 361 76 l 257
EndSplineSet
PickledDataWithLists: "(dp0
Vcom.schriftgestaltung.Glyphs.lastChange\\u000d
p1
V2015-12-22 12:25:35 +0000\\u000d
p2
s."
EndChar

StartChar: uni03BC
Encoding: 956 956 411
GlifName: uni03B_C_
Width: 575
VWidth: 0
Flags: HMW
AnchorPoint: "mark-top" 327 500 basechar 0
LayerCount: 2
Fore
SplineSet
470 500 m 258
 505 500 l 258
 521 500 528 491 526 475 c 258
 455 29 l 258
 453 14 443 5 428 2 c 257
 353 -9 289 -10 256 -10 c 256
 203 -10 162 -3 136 33 c 257
 95 -225 l 258
 92 -242 83 -250 66 -250 c 258
 31 -250 l 258
 15 -250 7 -241 10 -225 c 258
 121 475 l 258
 123 491 133 500 150 500 c 258
 185 500 l 258
 201 500 208 491 206 475 c 258
 161 192 l 258
 146 98 177 66 268 66 c 256
 292 66 331 67 376 70 c 257
 441 475 l 258
 443 491 453 500 470 500 c 258
EndSplineSet
PickledDataWithLists: "(dp0
Vcom.schriftgestaltung.Glyphs.lastChange\\u000d
p1
V2015-12-22 12:42:40 +0000\\u000d
p2
s."
EndChar

StartChar: afii10018
Encoding: 1041 1041 420
GlifName: uni0411
Width: 575
VWidth: 0
Flags: HMW
AnchorPoint: "mark-top" 360 700 basechar 0
LayerCount: 2
Fore
SplineSet
197 420 m 257
 272 420 l 258
 434 420 514 346 514 240 c 256
 514 92 375 0 205 0 c 258
 70 0 l 258
 54 0 47 9 49 25 c 258
 152 675 l 258
 155 691 165 700 181 700 c 257
 501 700 l 257
 517 700 525 691 522 675 c 258
 518 648 l 258
 516 632 505 623 489 623 c 258
 229 623 l 257
 197 420 l 257
142 76 m 257
 217 76 l 258
 336 76 428 133 428 227 c 256
 428 297 376 344 260 344 c 258
 185 344 l 257
 142 76 l 257
EndSplineSet
PickledDataWithLists: "(dp0
Vcom.schriftgestaltung.Glyphs.lastChange\\u000d
p1
V2016-06-09 18:35:34 +0000\\u000d
p2
s."
EndChar

StartChar: afii10020
Encoding: 1043 1043 422
GlifName: uni0413
Width: 575
VWidth: 0
Flags: HMW
AnchorPoint: "mark-top" 360 700 basechar 0
LayerCount: 2
Fore
SplineSet
617 648 m 258
 615 632 604 623 588 623 c 258
 229 623 l 257
 134 25 l 258
 132 8 122 0 105 0 c 258
 70 0 l 258
 54 0 47 9 49 25 c 258
 152 675 l 258
 155 691 165 700 181 700 c 258
 600 700 l 258
 616 700 624 691 621 675 c 258
 617 648 l 258
EndSplineSet
PickledDataWithLists: "(dp0
Vcom.schriftgestaltung.Glyphs.lastChange\\u000d
p1
V2016-06-09 18:35:34 +0000\\u000d
p2
s."
EndChar

StartChar: afii10021
Encoding: 1044 1044 423
GlifName: uni0414
Width: 575
VWidth: 0
Flags: HMW
AnchorPoint: "mark-top" 360 700 basechar 0
LayerCount: 2
Fore
SplineSet
526 675 m 258
 420 3 l 257
 461 3 l 258
 477 3 484 -6 482 -22 c 258
 458 -175 l 258
 455 -191 445 -200 429 -200 c 258
 394 -200 l 258
 378 -200 370 -191 373 -175 c 258
 389 -75 l 257
 84 -75 l 257
 68 -175 l 258
 65 -191 55 -200 39 -200 c 258
 4 -200 l 258
 -12 -200 -20 -191 -17 -175 c 258
 7 -22 l 258
 9 -6 20 3 36 3 c 258
 54 3 l 257
 119 123 147 300 163 400 c 258
 206 675 l 258
 209 691 219 700 235 700 c 258
 505 700 l 258
 521 700 529 691 526 675 c 258
283 622 m 257
 248 400 l 258
 218 210 186 84 120 3 c 257
 335 3 l 257
 433 622 l 257
 283 622 l 257
EndSplineSet
PickledDataWithLists: "(dp0
Vcom.schriftgestaltung.Glyphs.lastChange\\u000d
p1
V2016-06-09 18:35:34 +0000\\u000d
p2
s."
EndChar

StartChar: afii10024
Encoding: 1046 1046 425
GlifName: uni0416
Width: 575
VWidth: 0
Flags: HMW
AnchorPoint: "mark-top" 360 700 basechar 0
LayerCount: 2
Fore
SplineSet
608 671 m 258
 447 390 l 258
 439 376 422 364 405 357 c 257
 420 351 434 338 437 325 c 258
 503 30 l 258
 507 12 498 0 479 0 c 258
 448 0 l 258
 434 0 425 6 422 18 c 258
 357 295 l 258
 353 309 348 318 341 322 c 257
 294 25 l 258
 292 9 282 0 265 0 c 258
 230 0 l 258
 214 0 207 9 209 25 c 258
 256 322 l 257
 249 318 240 309 232 295 c 258
 79 18 l 258
 72 6 61 0 47 0 c 258
 16 0 l 258
 -3 0 -8 12 2 30 c 258
 162 325 l 258
 169 338 187 351 204 357 c 257
 189 364 176 376 172 390 c 258
 101 671 l 258
 96 688 104 700 124 700 c 258
 155 700 l 258
 169 700 177 695 181 682 c 258
 252 419 l 258
 256 406 261 397 268 393 c 257
 312 675 l 258
 315 691 325 700 341 700 c 258
 376 700 l 258
 393 700 400 692 397 675 c 258
 353 393 l 257
 360 397 369 406 377 419 c 258
 530 682 l 258
 538 695 548 700 562 700 c 258
 593 700 l 258
 613 700 617 688 608 671 c 258
EndSplineSet
PickledDataWithLists: "(dp0
Vcom.schriftgestaltung.Glyphs.lastChange\\u000d
p1
V2016-05-23 13:11:20 +0000\\u000d
p2
s."
EndChar

StartChar: afii10026
Encoding: 1048 1048 427
GlifName: uni0418
Width: 575
VWidth: 0
Flags: HMW
AnchorPoint: "mark-top" 360 700 basechar 0
LayerCount: 2
Fore
SplineSet
136 674 m 258
 139 689 151 700 166 700 c 258
 200 700 l 258
 215 700 224 689 221 674 c 258
 141 169 l 257
 470 669 l 258
 486 694 506 700 534 700 c 258
 550 700 l 258
 568 700 576 691 573 675 c 258
 471 26 l 258
 468 11 455 0 440 0 c 258
 406 0 l 258
 391 0 383 11 386 26 c 258
 465 527 l 257
 137 36 l 258
 120 11 100 0 72 0 c 258
 56 0 l 258
 38 0 31 9 33 25 c 258
 136 674 l 258
EndSplineSet
PickledDataWithLists: "(dp0
Vcom.schriftgestaltung.Glyphs.lastChange\\u000d
p1
V2016-05-23 13:11:39 +0000\\u000d
p2
s."
EndChar

StartChar: afii10029
Encoding: 1051 1051 430
GlifName: uni041B_
Width: 575
VWidth: 0
Flags: HMW
AnchorPoint: "mark-top" 360 700 basechar 0
LayerCount: 2
Fore
SplineSet
577 675 m 258
 474 25 l 258
 472 9 461 0 445 0 c 258
 410 0 l 258
 394 0 387 9 389 25 c 258
 484 622 l 257
 265 622 l 257
 246 500 l 258
 195 182 131 14 5 -16 c 256
 -12 -20 -20 -10 -17 7 c 258
 -11 46 l 258
 -9 60 0 66 14 73 c 256
 92 112 137 354 161 500 c 258
 188 675 l 258
 191 691 201 700 217 700 c 258
 556 700 l 258
 572 700 580 691 577 675 c 258
EndSplineSet
PickledDataWithLists: "(dp0
Vcom.schriftgestaltung.Glyphs.lastChange\\u000d
p1
V2016-05-23 11:38:55 +0000\\u000d
p2
s."
EndChar

StartChar: afii10033
Encoding: 1055 1055 434
GlifName: uni041F_
Width: 575
VWidth: 0
Flags: HMW
AnchorPoint: "mark-top" 360 700 basechar 0
LayerCount: 2
Fore
SplineSet
174 700 m 258
 544 700 l 258
 560 700 568 691 565 675 c 258
 462 25 l 258
 460 9 449 0 433 0 c 258
 398 0 l 258
 382 0 375 9 377 25 c 258
 472 622 l 257
 222 622 l 257
 127 25 l 258
 125 9 114 0 98 0 c 258
 63 0 l 258
 47 0 40 9 42 25 c 258
 145 675 l 258
 148 691 158 700 174 700 c 258
EndSplineSet
PickledDataWithLists: "(dp0
Vcom.schriftgestaltung.Glyphs.lastChange\\u000d
p1
V2016-05-23 13:13:45 +0000\\u000d
p2
s."
EndChar

StartChar: afii10037
Encoding: 1059 1059 438
GlifName: uni0423
Width: 575
VWidth: 0
Flags: HMW
AnchorPoint: "mark-top" 360 700 basechar 0
LayerCount: 2
Fore
SplineSet
522 700 m 258
 558 700 l 258
 575 700 582 689 575 672 c 258
 373 180 l 258
 305 15 229 0 99 0 c 258
 47 0 l 258
 31 0 24 9 26 25 c 258
 31 53 l 258
 33 69 44 78 60 78 c 258
 112 78 l 258
 226 78 248 90 290 190 c 257
 278 190 l 258
 213 190 176 222 170 280 c 258
 134 672 l 258
 133 690 142 700 160 700 c 258
 196 700 l 258
 211 700 219 693 220 679 c 257
 256 293 l 257
 257 274 269 263 290 263 c 258
 321 263 l 257
 491 679 l 258
 497 693 507 700 522 700 c 258
EndSplineSet
PickledDataWithLists: "(dp0
Vcom.schriftgestaltung.Glyphs.lastChange\\u000d
p1
V2016-05-23 13:14:21 +0000\\u000d
p2
s."
EndChar

StartChar: afii10038
Encoding: 1060 1060 439
GlifName: uni0424
Width: 575
VWidth: 0
Flags: HMW
AnchorPoint: "mark-top" 360 700 basechar 0
LayerCount: 2
Fore
SplineSet
542 420 m 256
 542 399 540 375 536 350 c 256
 510 187 424 105 305 90 c 257
 293 15 l 258
 290 -1 281 -10 264 -10 c 258
 229 -10 l 258
 213 -10 205 -1 208 15 c 258
 220 91 l 257
 125 105 65 167 65 283 c 256
 65 303 67 326 71 350 c 256
 96 510 184 592 302 609 c 257
 314 685 l 258
 316 701 327 710 343 710 c 258
 378 710 l 258
 395 710 402 702 399 685 c 258
 387 610 l 257
 484 597 542 537 542 420 c 256
374 530 m 257
 317 170 l 257
 391 187 435 250 451 350 c 256
 454 370 456 388 456 405 c 256
 456 473 429 516 374 530 c 257
289 530 m 257
 216 513 172 450 156 350 c 256
 153 330 151 312 151 295 c 256
 151 227 177 184 232 170 c 257
 289 530 l 257
EndSplineSet
PickledDataWithLists: "(dp0
Vcom.schriftgestaltung.Glyphs.lastChange\\u000d
p1
V2016-05-30 10:12:00 +0000\\u000d
p2
s."
EndChar

StartChar: afii10040
Encoding: 1062 1062 441
GlifName: uni0426
Width: 575
VWidth: 0
Flags: HMW
AnchorPoint: "mark-top" 360 700 basechar 0
LayerCount: 2
Fore
SplineSet
525 675 m 258
 431 78 l 257
 488 78 l 258
 504 78 511 69 509 53 c 258
 489 -75 l 258
 486 -91 476 -100 460 -100 c 258
 425 -100 l 258
 409 -100 401 -91 404 -75 c 258
 415 0 l 257
 63 0 l 258
 47 0 40 9 42 25 c 258
 145 675 l 258
 148 691 158 700 174 700 c 258
 209 700 l 258
 225 700 233 691 230 675 c 258
 136 78 l 257
 346 78 l 257
 440 675 l 258
 443 691 453 700 469 700 c 258
 504 700 l 258
 520 700 528 691 525 675 c 258
EndSplineSet
PickledDataWithLists: "(dp0
Vcom.schriftgestaltung.Glyphs.lastChange\\u000d
p1
V2016-05-23 12:25:17 +0000\\u000d
p2
s."
EndChar

StartChar: afii10041
Encoding: 1063 1063 442
GlifName: uni0427
Width: 575
VWidth: 0
Flags: HMW
AnchorPoint: "mark-top" 360 700 basechar 0
LayerCount: 2
Fore
SplineSet
501 700 m 258
 536 700 l 258
 552 700 560 691 557 675 c 258
 454 25 l 258
 452 9 441 0 425 0 c 258
 390 0 l 258
 374 0 367 9 369 25 c 258
 404 245 l 257
 358 241 318 240 295 240 c 256
 169 240 110 281 110 384 c 256
 110 401 112 421 115 442 c 258
 152 675 l 258
 155 691 164 700 181 700 c 258
 216 700 l 258
 232 700 240 691 237 675 c 258
 200 442 l 258
 186 348 216 316 307 316 c 256
 331 316 371 317 416 320 c 257
 472 675 l 258
 475 691 484 700 501 700 c 258
EndSplineSet
PickledDataWithLists: "(dp0
Vcom.schriftgestaltung.Glyphs.lastChange\\u000d
p1
V2016-05-30 10:12:16 +0000\\u000d
p2
s."
EndChar

StartChar: afii10042
Encoding: 1064 1064 443
GlifName: uni0428
Width: 575
VWidth: 0
Flags: HMW
AnchorPoint: "mark-top" 360 700 basechar 0
LayerCount: 2
Fore
SplineSet
533 700 m 258
 568 700 l 258
 584 700 592 691 589 675 c 258
 486 25 l 258
 484 9 473 0 457 0 c 258
 38 0 l 258
 22 0 15 9 17 25 c 258
 120 675 l 258
 123 691 133 700 149 700 c 258
 184 700 l 258
 200 700 208 691 205 675 c 258
 111 78 l 257
 218 78 l 257
 312 675 l 258
 315 691 325 700 341 700 c 258
 376 700 l 258
 392 700 400 691 397 675 c 258
 303 78 l 257
 410 78 l 257
 504 675 l 258
 507 691 517 700 533 700 c 258
EndSplineSet
PickledDataWithLists: "(dp0
Vcom.schriftgestaltung.Glyphs.lastChange\\u000d
p1
V2016-05-30 09:51:07 +0000\\u000d
p2
s."
EndChar

StartChar: afii10043
Encoding: 1065 1065 444
GlifName: uni0429
Width: 575
VWidth: 0
Flags: HMW
AnchorPoint: "mark-top" 360 700 basechar 0
LayerCount: 2
Fore
SplineSet
589 675 m 258
 495 77 l 257
 506 75 511 66 509 53 c 258
 481 -125 l 258
 478 -141 468 -150 452 -150 c 258
 417 -150 l 258
 401 -150 393 -141 396 -125 c 258
 415 0 l 257
 38 0 l 258
 22 0 15 9 17 25 c 258
 120 675 l 258
 123 691 133 700 149 700 c 258
 184 700 l 258
 200 700 208 691 205 675 c 258
 111 78 l 257
 218 78 l 257
 312 675 l 258
 315 691 325 700 341 700 c 258
 376 700 l 258
 392 700 400 691 397 675 c 258
 303 78 l 257
 410 78 l 257
 504 675 l 258
 507 691 517 700 533 700 c 258
 568 700 l 258
 584 700 592 691 589 675 c 258
EndSplineSet
PickledDataWithLists: "(dp0
Vcom.schriftgestaltung.Glyphs.lastChange\\u000d
p1
V2016-05-29 16:25:37 +0000\\u000d
p2
s."
EndChar

StartChar: afii10044
Encoding: 1066 1066 445
GlifName: uni042A_
Width: 575
VWidth: 0
Flags: HMW
AnchorPoint: "mark-top" 360 700 basechar 0
LayerCount: 2
Fore
SplineSet
182 76 m 257
 237 76 l 258
 364 76 424 134 436 210 c 256
 437 218 438 227 438 235 c 256
 438 298 394 344 280 344 c 258
 225 344 l 257
 182 76 l 257
237 420 m 257
 292 420 l 258
 453 420 524 348 524 247 c 256
 524 235 523 223 521 210 c 256
 502 94 407 0 225 0 c 258
 110 0 l 258
 94 0 87 9 89 25 c 258
 184 623 l 257
 104 623 l 258
 88 623 81 632 83 648 c 258
 87 675 l 258
 90 691 100 700 116 700 c 258
 256 700 l 258
 271 700 281 689 278 674 c 258
 237 420 l 257
EndSplineSet
PickledDataWithLists: "(dp0
Vcom.schriftgestaltung.Glyphs.lastChange\\u000d
p1
V2016-05-30 10:12:28 +0000\\u000d
p2
s."
EndChar

StartChar: afii10045
Encoding: 1067 1067 446
GlifName: uni042B_
Width: 575
VWidth: 0
Flags: HMW
AnchorPoint: "mark-top" 360 700 basechar 0
LayerCount: 2
Fore
SplineSet
207 675 m 258
 167 420 l 257
 308 420 369 350 369 252 c 256
 369 238 368 224 366 210 c 256
 347 94 262 0 100 0 c 258
 40 0 l 258
 24 0 17 9 19 25 c 258
 122 675 l 258
 125 691 135 700 151 700 c 258
 186 700 l 258
 202 700 210 691 207 675 c 258
587 675 m 258
 484 25 l 258
 482 11 469 0 455 0 c 258
 420 0 l 258
 404 0 397 9 399 25 c 258
 502 675 l 258
 505 691 515 700 531 700 c 258
 566 700 l 258
 582 700 590 691 587 675 c 258
155 344 m 257
 112 76 l 257
 219 76 269 134 281 210 c 256
 283 220 283 230 283 240 c 256
 283 301 248 344 155 344 c 257
EndSplineSet
PickledDataWithLists: "(dp0
Vcom.schriftgestaltung.Glyphs.lastChange\\u000d
p1
V2016-05-30 10:12:35 +0000\\u000d
p2
s."
EndChar

StartChar: afii10046
Encoding: 1068 1068 447
GlifName: uni042C_
Width: 575
VWidth: 0
Flags: HMW
LayerCount: 2
Fore
SplineSet
197 420 m 257
 272 420 l 258
 434 420 514 346 514 244 c 256
 514 233 513 222 511 210 c 256
 492 94 387 0 205 0 c 258
 70 0 l 258
 54 0 47 9 49 25 c 258
 152 675 l 258
 155 691 165 700 181 700 c 258
 216 700 l 258
 232 700 240 691 237 675 c 257
 197 420 l 257
142 76 m 257
 217 76 l 258
 344 76 414 134 426 210 c 256
 427 217 428 224 428 231 c 256
 428 297 376 344 260 344 c 258
 185 344 l 257
 142 76 l 257
EndSplineSet
PickledDataWithLists: "(dp0
Vcom.schriftgestaltung.Glyphs.lastChange\\u000d
p1
V2016-05-30 10:12:22 +0000\\u000d
p2
s."
EndChar

StartChar: afii10047
Encoding: 1069 1069 448
GlifName: uni042D_
Width: 575
VWidth: 0
Flags: HMW
AnchorPoint: "mark-top" 360 700 basechar 0
LayerCount: 2
Fore
SplineSet
165 680 m 256
 215 699 263 710 308 710 c 256
 411 710 520 657 520 478 c 256
 520 452 517 422 512 390 c 258
 500 310 l 258
 460 60 312 -10 194 -10 c 256
 149 -10 105 1 61 20 c 256
 47 26 44 38 53 53 c 258
 67 77 l 258
 75 92 87 97 101 91 c 256
 141 74 177 68 208 68 c 256
 320 68 389 157 414 313 c 257
 167 313 l 258
 153 313 143 324 145 338 c 258
 149 363 l 258
 151 377 164 388 178 388 c 258
 426 388 l 257
 431 417 433 444 433 468 c 256
 433 575 388 632 298 632 c 256
 267 632 229 626 183 609 c 256
 167 603 157 608 153 623 c 258
 147 647 l 258
 143 662 149 674 165 680 c 256
EndSplineSet
PickledDataWithLists: "(dp0
Vcom.schriftgestaltung.Glyphs.lastChange\\u000d
p1
V2016-05-30 10:12:43 +0000\\u000d
p2
s."
EndChar

StartChar: afii10048
Encoding: 1070 1070 449
GlifName: uni042E_
Width: 575
VWidth: 0
Flags: HMW
AnchorPoint: "mark-top" 360 700 basechar 0
LayerCount: 2
Fore
SplineSet
259 497 m 258
 283 648 338 710 446 710 c 256
 532 710 571 670 571 578 c 256
 571 554 569 527 564 497 c 258
 518 203 l 258
 494 52 440 -10 332 -10 c 256
 245 -10 206 30 206 123 c 256
 206 147 208 173 213 203 c 258
 233 333 l 257
 148 333 l 257
 99 25 l 258
 97 9 87 0 70 0 c 258
 35 0 l 258
 19 0 12 9 14 25 c 258
 117 675 l 258
 120 691 130 700 146 700 c 258
 181 700 l 258
 198 700 205 692 202 675 c 258
 160 410 l 257
 245 410 l 257
 259 497 l 258
344 66 m 256
 391 66 417 106 433 203 c 258
 479 497 l 258
 483 522 485 544 485 562 c 256
 485 612 469 634 434 634 c 256
 386 634 359 594 344 497 c 258
 298 203 l 258
 294 178 292 156 292 138 c 256
 292 88 309 66 344 66 c 256
-1397 737 m 1281
EndSplineSet
PickledDataWithLists: "(dp0
Vcom.schriftgestaltung.Glyphs.lastChange\\u000d
p1
V2016-05-30 10:12:53 +0000\\u000d
p2
s."
EndChar

StartChar: afii10049
Encoding: 1071 1071 450
GlifName: uni042F_
Width: 575
VWidth: 0
Flags: HMW
AnchorPoint: "mark-top" 360 700 basechar 0
LayerCount: 2
Fore
SplineSet
12 0 m 258
 -7 0 -13 12 -1 30 c 258
 200 335 l 257
 150 362 123 414 123 473 c 256
 123 484 124 495 126 506 c 256
 143 615 235 700 388 700 c 258
 546 700 l 258
 562 700 570 692 567 675 c 258
 464 25 l 258
 462 9 451 0 435 0 c 258
 400 0 l 258
 384 0 377 9 379 25 c 258
 425 312 l 257
 280 312 l 257
 86 18 l 258
 78 6 68 0 54 0 c 258
 12 0 l 258
209 488 m 256
 209 436 249 389 339 389 c 258
 437 389 l 257
 474 624 l 257
 376 624 l 258
 277 624 220 565 211 506 c 256
 210 500 209 494 209 488 c 256
EndSplineSet
PickledDataWithLists: "(dp0
Vcom.schriftgestaltung.Glyphs.lastChange\\u000d
p1
V2016-05-30 10:12:58 +0000\\u000d
p2
s."
EndChar

StartChar: afii10066
Encoding: 1073 1073 452
GlifName: uni0431
Width: 575
VWidth: 0
Flags: HMW
AnchorPoint: "mark-top" 360 700 basechar 0
LayerCount: 2
Fore
SplineSet
168 402 m 257
 225 419 271 429 313 429 c 256
 418 429 494 365 494 259 c 256
 494 247 493 234 491 220 c 256
 469 78 370 -10 242 -10 c 256
 125 -10 55 61 55 216 c 256
 55 249 59 286 65 326 c 256
 104 571 232 700 401 700 c 256
 422 700 448 704 506 716 c 256
 520 719 531 713 534 701 c 258
 540 675 l 258
 544 660 534 645 516 640 c 256
 449 621 424 622 390 622 c 256
 310 622 215 585 168 402 c 257
142 230 m 256
 142 112 193 68 257 68 c 256
 325 68 389 118 405 220 c 256
 407 230 407 239 407 248 c 256
 407 312 366 351 297 351 c 256
 269 351 217 349 150 317 c 257
 145 284 142 255 142 230 c 256
EndSplineSet
PickledDataWithLists: "(dp0
Vcom.schriftgestaltung.Glyphs.lastChange\\u000d
p1
V2016-05-30 10:13:07 +0000\\u000d
p2
s."
EndChar

StartChar: afii10067
Encoding: 1074 1074 453
GlifName: uni0432
Width: 575
VWidth: 0
Flags: HMW
AnchorPoint: "mark-top" 327 500 basechar 0
LayerCount: 2
Fore
SplineSet
66 25 m 257
 130 424 l 257
 92 424 l 258
 75 424 68 433 71 449 c 258
 75 475 l 258
 77 491 87 500 104 500 c 257
 284 500 l 258
 431 500 494 464 494 394 c 256
 494 386 493 379 492 371 c 256
 481 303 436 285 385 270 c 257
 457 271 499 231 499 169 c 256
 499 162 498 154 497 146 c 256
 481 46 384 0 224 0 c 258
 87 0 l 258
 71 0 64 9 66 25 c 257
215 424 m 257
 195 303 l 257
 252 303 l 258
 352 303 406 302 416 361 c 256
 417 365 417 369 417 373 c 256
 417 416 373 424 272 424 c 258
 215 424 l 257
160 77 m 257
 237 77 l 258
 353 77 412 89 421 151 c 256
 422 156 422 160 422 164 c 256
 422 215 367 226 260 226 c 258
 183 226 l 257
 160 77 l 257
EndSplineSet
PickledDataWithLists: "(dp0
Vcom.schriftgestaltung.Glyphs.lastChange\\u000d
p1
V2016-05-30 10:13:14 +0000\\u000d
p2
s."
EndChar

StartChar: afii10068
Encoding: 1075 1075 454
GlifName: uni0433
Width: 575
VWidth: 0
Flags: HMW
AnchorPoint: "mark-top" 327 500 basechar 0
LayerCount: 2
Fore
SplineSet
526 448 m 258
 523 432 513 423 497 423 c 258
 197 423 l 257
 134 25 l 258
 132 8 122 0 105 0 c 258
 70 0 l 258
 54 0 47 9 49 25 c 258
 121 475 l 258
 123 491 134 500 150 500 c 258
 510 500 l 258
 526 500 534 491 531 475 c 258
 526 448 l 258
EndSplineSet
PickledDataWithLists: "(dp0
Vcom.schriftgestaltung.Glyphs.lastChange\\u000d
p1
V2016-05-29 16:25:09 +0000\\u000d
p2
s."
EndChar

StartChar: afii10069
Encoding: 1076 1076 455
GlifName: uni0434
Width: 575
VWidth: 0
Flags: HMW
AnchorPoint: "mark-top" 327 500 basechar 0
LayerCount: 2
Fore
SplineSet
51 -125 m 258
 16 -125 l 258
 0 -125 -8 -116 -5 -100 c 258
 19 53 l 258
 21 69 32 78 48 78 c 258
 66 78 l 257
 131 198 159 375 175 475 c 256
 177 491 188 500 204 500 c 258
 474 500 l 258
 490 500 497 491 495 475 c 258
 432 78 l 257
 473 78 l 258
 489 78 496 69 494 53 c 258
 470 -100 l 258
 467 -116 457 -125 441 -125 c 258
 406 -125 l 258
 390 -125 382 -116 385 -100 c 258
 400 0 l 257
 95 0 l 257
 80 -100 l 258
 77 -116 67 -125 51 -125 c 258
251 422 m 257
 223 261 191 151 132 78 c 257
 347 78 l 257
 401 422 l 257
 251 422 l 257
EndSplineSet
PickledDataWithLists: "(dp0
Vcom.schriftgestaltung.Glyphs.lastChange\\u000d
p1
V2016-05-30 08:31:25 +0000\\u000d
p2
s."
EndChar

StartChar: afii10072
Encoding: 1078 1078 457
GlifName: uni0436
Width: 575
VWidth: 0
Flags: HMW
AnchorPoint: "mark-top" 327 500 basechar 0
LayerCount: 2
Fore
SplineSet
431 290 m 258
 422 276 406 264 389 257 c 257
 404 251 417 238 421 225 c 258
 474 42 l 258
 480 21 463 0 440 0 c 258
 415 0 l 258
 406 0 400 4 397 13 c 258
 341 195 l 258
 338 209 332 218 326 222 c 257
 294 25 l 258
 292 11 279 0 265 0 c 258
 230 0 l 258
 216 0 207 11 209 25 c 258
 241 222 l 257
 233 218 225 209 216 195 c 258
 102 13 l 258
 97 4 89 0 80 0 c 258
 55 0 l 258
 32 0 23 21 35 42 c 258
 146 225 l 258
 154 238 171 251 188 257 c 257
 173 264 161 276 156 290 c 258
 102 457 l 258
 95 478 112 500 136 500 c 258
 160 500 l 258
 168 500 175 495 178 488 c 258
 236 319 l 258
 240 306 245 297 252 293 c 257
 280 474 l 258
 283 488 296 500 310 500 c 258
 345 500 l 258
 359 500 368 489 366 475 c 258
 337 293 l 257
 344 297 353 306 361 319 c 258
 473 488 l 258
 478 495 487 500 495 500 c 258
 519 500 l 258
 543 500 552 478 539 457 c 258
 431 290 l 258
EndSplineSet
PickledDataWithLists: "(dp0
Vcom.schriftgestaltung.Glyphs.lastChange\\u000d
p1
V2016-05-23 16:22:06 +0000\\u000d
p2
s."
EndChar

StartChar: afii10073
Encoding: 1079 1079 458
GlifName: uni0437
Width: 575
VWidth: 0
Flags: HMW
AnchorPoint: "mark-top" 327 500 basechar 0
LayerCount: 2
Fore
SplineSet
153 437 m 258
 149 465 l 258
 147 480 154 492 171 496 c 256
 208 505 249 510 289 510 c 256
 398 510 503 486 503 400 c 256
 503 394 502 388 501 381 c 256
 491 320 443 283 368 264 c 257
 424 256 473 214 473 153 c 256
 473 147 473 140 472 134 c 256
 455 32 325 -10 202 -10 c 256
 160 -10 119 -5 83 4 c 256
 68 8 65 20 71 35 c 258
 83 63 l 258
 90 78 102 83 117 79 c 256
 146 72 178 68 214 68 c 256
 312 68 380 99 388 149 c 256
 388 152 389 155 389 158 c 256
 389 202 331 224 246 224 c 258
 195 224 l 258
 179 224 171 233 174 249 c 258
 178 276 l 258
 181 292 191 301 207 301 c 258
 258 301 l 258
 346 301 405 321 413 368 c 256
 413 371 414 374 414 376 c 256
 414 417 363 432 277 432 c 256
 244 432 212 428 181 421 c 256
 164 417 154 422 153 437 c 258
EndSplineSet
PickledDataWithLists: "(dp0
Vcom.schriftgestaltung.Glyphs.lastChange\\u000d
p1
V2016-05-30 10:13:27 +0000\\u000d
p2
s."
EndChar

StartChar: afii10074
Encoding: 1080 1080 459
GlifName: uni0438
Width: 575
VWidth: 0
Flags: HMW
AnchorPoint: "mark-top" 327 500 basechar 0
LayerCount: 2
Fore
SplineSet
104 474 m 258
 107 489 120 500 135 500 c 258
 169 500 l 258
 184 500 192 489 189 474 c 258
 136 139 l 257
 439 469 l 258
 459 491 475 500 503 500 c 258
 519 500 l 258
 537 500 544 491 542 475 c 258
 471 26 l 258
 468 11 455 0 440 0 c 258
 406 0 l 258
 391 0 383 11 386 26 c 258
 438 357 l 257
 137 36 l 258
 117 14 100 0 72 0 c 258
 56 0 l 258
 38 0 31 9 33 25 c 258
 104 474 l 258
EndSplineSet
PickledDataWithLists: "(dp0
Vcom.schriftgestaltung.Glyphs.lastChange\\u000d
p1
V2016-05-30 07:47:32 +0000\\u000d
p2
s."
EndChar

StartChar: afii10076
Encoding: 1082 1082 461
GlifName: uni043A_
Width: 575
VWidth: 0
Flags: HMW
AnchorPoint: "mark-top" 327 500 basechar 0
LayerCount: 2
Fore
SplineSet
297 233 m 258
 467 31 l 258
 481 15 472 0 449 0 c 258
 391 0 l 258
 378 0 370 4 362 13 c 258
 194 214 l 258
 183 228 173 236 168 236 c 257
 134 25 l 258
 132 9 121 0 105 0 c 258
 70 0 l 258
 54 0 47 9 49 25 c 258
 121 475 l 258
 123 491 134 500 150 500 c 258
 185 500 l 258
 201 500 208 491 206 475 c 258
 176 285 l 257
 181 285 193 293 209 307 c 258
 418 487 l 258
 428 496 438 500 451 500 c 258
 509 500 l 258
 532 500 535 485 517 469 c 258
 306 287 l 258
 295 278 285 269 255 260 c 257
 282 251 290 242 297 233 c 258
EndSplineSet
PickledDataWithLists: "(dp0
Vcom.schriftgestaltung.Glyphs.lastChange\\u000d
p1
V2016-05-30 07:49:26 +0000\\u000d
p2
s."
EndChar

StartChar: afii10077
Encoding: 1083 1083 462
GlifName: uni043B_
Width: 575
VWidth: 0
Flags: HMW
AnchorPoint: "mark-top" 327 500 basechar 0
LayerCount: 2
Fore
SplineSet
526 475 m 258
 454 25 l 258
 452 9 441 0 425 0 c 258
 390 0 l 258
 374 0 367 9 369 25 c 258
 432 422 l 257
 253 422 l 257
 253 420 l 257
 215 182 151 14 25 -16 c 256
 8 -20 0 -10 3 7 c 258
 9 46 l 258
 11 60 20 66 34 73 c 256
 112 112 157 354 168 420 c 258
 177 475 l 258
 179 491 190 500 206 500 c 258
 505 500 l 258
 521 500 528 491 526 475 c 258
EndSplineSet
PickledDataWithLists: "(dp0
Vcom.schriftgestaltung.Glyphs.lastChange\\u000d
p1
V2016-05-30 07:50:00 +0000\\u000d
p2
s."
EndChar

StartChar: afii10078
Encoding: 1084 1084 463
GlifName: uni043C_
Width: 575
VWidth: 0
Flags: HMW
AnchorPoint: "mark-top" 327 500 basechar 0
LayerCount: 2
Fore
SplineSet
538 505 m 258
 556 505 564 496 561 480 c 257
 510 26 l 257
 507 11 494 0 479 0 c 258
 445 0 l 258
 430 0 423 11 425 26 c 258
 456 340 l 257
 310 118 l 258
 302 105 292 100 278 100 c 258
 250 100 l 258
 236 100 228 105 224 118 c 258
 148 340 l 257
 81 26 l 258
 77 11 66 0 51 0 c 258
 17 0 l 258
 2 0 -8 11 -4 26 c 258
 87 480 l 258
 91 496 100 505 118 505 c 258
 134 505 l 258
 162 505 180 494 188 469 c 258
 280 199 l 257
 458 469 l 258
 474 494 494 505 522 505 c 258
 538 505 l 258
EndSplineSet
PickledDataWithLists: "(dp0
Vcom.schriftgestaltung.Glyphs.lastChange\\u000d
p1
V2016-05-30 07:50:28 +0000\\u000d
p2
s."
EndChar

StartChar: afii10079
Encoding: 1085 1085 464
GlifName: uni043D_
Width: 575
VWidth: 0
Flags: HMW
AnchorPoint: "mark-top" 327 500 basechar 0
LayerCount: 2
Fore
SplineSet
487 500 m 258
 522 500 l 258
 538 500 545 492 543 475 c 258
 471 25 l 258
 469 9 459 0 442 0 c 258
 407 0 l 258
 391 0 384 9 386 25 c 258
 419 233 l 257
 150 233 l 257
 117 25 l 258
 115 9 105 0 88 0 c 258
 53 0 l 258
 37 0 30 9 32 25 c 257
 104 475 l 258
 106 491 117 500 133 500 c 258
 168 500 l 258
 185 500 191 492 189 475 c 258
 163 310 l 257
 432 310 l 257
 458 475 l 258
 460 492 471 500 487 500 c 258
EndSplineSet
PickledDataWithLists: "(dp0
Vcom.schriftgestaltung.Glyphs.lastChange\\u000d
p1
V2016-05-30 07:51:04 +0000\\u000d
p2
s."
EndChar

StartChar: afii10081
Encoding: 1087 1087 466
GlifName: uni043F_
Width: 575
VWidth: 0
Flags: HMW
AnchorPoint: "mark-top" 327 500 basechar 0
LayerCount: 2
Fore
SplineSet
143 500 m 258
 513 500 l 258
 529 500 536 491 534 475 c 258
 462 25 l 258
 460 9 449 0 433 0 c 258
 398 0 l 258
 382 0 375 9 377 25 c 258
 440 422 l 257
 190 422 l 257
 127 25 l 258
 125 9 114 0 98 0 c 258
 63 0 l 258
 47 0 40 9 42 25 c 258
 114 475 l 258
 116 491 127 500 143 500 c 258
EndSplineSet
PickledDataWithLists: "(dp0
Vcom.schriftgestaltung.Glyphs.lastChange\\u000d
p1
V2016-05-30 07:52:44 +0000\\u000d
p2
s."
EndChar

StartChar: afii10084
Encoding: 1090 1090 469
GlifName: uni0442
Width: 575
VWidth: 0
Flags: HMW
AnchorPoint: "mark-top" 327 500 basechar 0
LayerCount: 2
Fore
SplineSet
590 475 m 258
 586 449 l 258
 583 433 573 424 557 424 c 258
 358 424 l 257
 294 25 l 258
 292 9 282 0 265 0 c 258
 230 0 l 258
 214 0 207 9 209 25 c 258
 273 424 l 257
 74 424 l 258
 58 424 51 433 54 449 c 258
 58 475 l 258
 60 491 70 500 87 500 c 258
 569 500 l 258
 585 500 592 492 590 475 c 258
EndSplineSet
PickledDataWithLists: "(dp0
Vcom.schriftgestaltung.Glyphs.lastChange\\u000d
p1
V2016-05-30 07:54:07 +0000\\u000d
p2
s."
EndChar

StartChar: afii10086
Encoding: 1092 1092 471
GlifName: uni0444
Width: 575
VWidth: 0
Flags: HMW
LayerCount: 2
Fore
SplineSet
526 320 m 256
 526 299 524 275 520 250 c 256
 494 87 408 5 289 -10 c 257
 269 -135 l 258
 266 -151 257 -160 240 -160 c 258
 205 -160 l 258
 189 -160 181 -151 184 -135 c 258
 204 -9 l 257
 109 5 49 67 49 184 c 256
 49 204 51 226 55 250 c 256
 80 410 168 492 286 509 c 257
 306 635 l 258
 309 651 319 660 335 660 c 258
 370 660 l 258
 387 660 394 652 391 635 c 258
 371 510 l 257
 468 497 526 437 526 320 c 256
359 430 m 257
 301 70 l 257
 375 87 419 150 435 250 c 256
 438 270 440 288 440 305 c 256
 440 373 414 416 359 430 c 257
274 430 m 257
 200 413 156 350 140 250 c 256
 137 230 135 212 135 195 c 256
 135 127 161 84 216 70 c 257
 274 430 l 257
EndSplineSet
PickledDataWithLists: "(dp0
Vcom.schriftgestaltung.Glyphs.lastChange\\u000d
p1
V2016-05-30 10:13:41 +0000\\u000d
p2
s."
EndChar

StartChar: afii10088
Encoding: 1094 1094 473
GlifName: uni0446
Width: 575
VWidth: 0
Flags: HMW
AnchorPoint: "mark-top" 327 500 basechar 0
LayerCount: 2
Fore
SplineSet
494 475 m 258
 431 78 l 257
 488 78 l 258
 504 78 511 69 509 53 c 258
 489 -75 l 258
 486 -91 476 -100 460 -100 c 258
 425 -100 l 258
 409 -100 401 -91 404 -75 c 258
 415 0 l 257
 63 0 l 258
 47 0 40 9 42 25 c 258
 114 475 l 258
 116 491 127 500 143 500 c 258
 178 500 l 258
 194 500 201 491 199 475 c 258
 136 78 l 257
 346 78 l 257
 409 475 l 258
 411 491 422 500 438 500 c 258
 473 500 l 258
 489 500 496 491 494 475 c 258
EndSplineSet
PickledDataWithLists: "(dp0
Vcom.schriftgestaltung.Glyphs.lastChange\\u000d
p1
V2016-05-30 07:56:43 +0000\\u000d
p2
s."
EndChar

StartChar: afii10089
Encoding: 1095 1095 474
GlifName: uni0447
Width: 575
VWidth: 0
Flags: HMW
AnchorPoint: "mark-top" 327 500 basechar 0
LayerCount: 2
Fore
SplineSet
470 500 m 258
 505 500 l 258
 521 500 528 491 526 475 c 258
 454 25 l 258
 452 9 441 0 425 0 c 258
 390 0 l 258
 374 0 367 9 369 25 c 258
 388 145 l 257
 342 141 303 140 280 140 c 256
 154 140 95 181 95 283 c 256
 95 301 96 320 100 342 c 258
 121 475 l 258
 123 491 133 500 150 500 c 258
 185 500 l 258
 201 500 208 491 206 475 c 258
 185 342 l 258
 183 327 181 314 181 302 c 256
 181 239 215 216 292 216 c 256
 316 216 355 217 400 220 c 257
 441 475 l 258
 443 491 453 500 470 500 c 258
EndSplineSet
PickledDataWithLists: "(dp0
Vcom.schriftgestaltung.Glyphs.lastChange\\u000d
p1
V2016-05-30 10:13:48 +0000\\u000d
p2
s."
EndChar

